# Blender v2.71 (sub 0) OBJ File: ''
# www.blender.org
mtllib leftFoot.mtl
o node_shape0.002
v -0.019642 0.021173 0.003725
v -0.020124 -0.020213 0.003030
v 0.018565 0.016064 0.003716
v 0.017328 -0.017822 0.002963
v -0.043278 0.072027 -0.070920
v -0.041338 -0.039226 -0.070725
v 0.039397 0.064652 -0.069218
v 0.031947 -0.033228 -0.070776
v -0.060359 0.069362 -0.103665
v -0.051216 -0.035605 -0.103360
v 0.040182 -0.041976 -0.103515
v -0.040824 0.128191 -0.078472
v 0.046544 0.127141 -0.076757
v -0.060453 0.127661 -0.108490
v 0.065499 0.126216 -0.106883
v 0.003580 0.134295 -0.068623
v 0.003322 0.133823 -0.109372
v -0.039072 0.177795 -0.084784
v -0.053666 0.177449 -0.104515
v -0.007104 0.177859 -0.083001
v -0.010142 0.177587 -0.103737
v 0.045613 0.177971 -0.084412
v 0.058909 0.177804 -0.103002
v 0.014893 0.177910 -0.084005
v 0.017443 0.177672 -0.103321
v -0.005943 -0.015296 -0.111112
v -0.001815 0.045338 -0.048054
v 0.031613 0.003567 -0.047965
v -0.003145 -0.041996 -0.052837
v -0.037265 0.002093 -0.048478
v 0.057283 0.004965 -0.089822
v -0.064120 0.012595 -0.090882
v 0.000770 0.106358 -0.110894
v 0.001325 0.108523 -0.069535
v 0.066092 0.098550 -0.089866
v -0.065220 0.106371 -0.092048
v -0.020823 0.150949 -0.074003
v 0.000354 0.150777 -0.090036
v -0.035017 0.150453 -0.110471
v 0.062414 0.150943 -0.092886
v 0.028146 0.151039 -0.073811
v 0.041404 0.150700 -0.109417
v 0.007136 0.150796 -0.090342
v 0.050072 -0.005262 -0.105036
v -0.000388 0.024867 0.003794
v 0.024230 -0.001033 0.003472
v -0.001419 -0.025701 0.002088
v -0.026210 0.000779 0.003523
v 0.024638 0.032751 -0.047757
v -0.028774 0.036671 -0.048435
v -0.001194 0.078409 -0.064718
v 0.021542 -0.026564 -0.049413
v 0.042270 0.009777 -0.069466
v -0.028364 -0.032695 -0.049504
v 0.043498 -0.046655 -0.092665
v -0.067370 0.072518 -0.090170
v -0.052048 -0.044397 -0.091896
v -0.057029 0.005256 -0.105765
v -0.057912 0.106275 -0.106161
v -0.027047 0.127691 -0.113030
v 0.041022 0.102240 -0.075256
v -0.039394 0.107002 -0.077018
v -0.014828 0.128654 -0.069427
v 0.058640 0.099305 -0.104651
v 0.065806 0.126138 -0.092245
v 0.020958 0.128718 -0.068783
v 0.032379 0.127881 -0.112309
v -0.004881 0.150924 -0.076011
v -0.021619 0.177878 -0.080521
v -0.008548 0.150592 -0.105162
v 0.003619 0.139073 -0.088716
v -0.033373 0.177467 -0.107498
v -0.052660 0.177605 -0.094863
v 0.063848 0.150817 -0.105089
v 0.058276 0.177903 -0.093714
v 0.012446 0.150961 -0.076477
v 0.028932 0.177974 -0.081049
v 0.015646 0.150667 -0.104843
v 0.039496 0.177704 -0.106321
v 0.010153 0.177775 -0.093656
v -0.037020 -0.051560 -0.106438
v -0.026353 -0.051560 -0.108481
v 0.009111 -0.051560 -0.109637
v 0.011475 -0.051560 -0.072421
v -0.014333 -0.051560 -0.066097
v -0.025244 -0.051560 -0.071698
v -0.045062 -0.051560 -0.091347
v 0.028352 -0.051560 -0.106106
v 0.038475 -0.051560 -0.093070
v 0.038495 -0.051560 -0.093046
v -0.021800 0.190608 -0.082538
v -0.035667 0.190608 -0.085936
v -0.038923 0.190608 -0.086498
v -0.007658 0.190608 -0.085128
v -0.010258 0.190608 -0.084513
v -0.002560 0.190608 -0.094534
v -0.005979 0.190608 -0.088232
v -0.010625 0.190608 -0.104834
v -0.007846 0.190608 -0.101144
v -0.030476 0.190608 -0.108056
v -0.052615 0.190608 -0.105403
v -0.036421 0.190608 -0.107783
v -0.051820 0.190608 -0.097676
v -0.049888 0.190608 -0.094653
v -0.051799 0.190608 -0.096269
v 0.029091 0.190608 -0.083232
v 0.020280 0.190608 -0.085094
v 0.015425 0.190608 -0.086153
v 0.045405 0.190608 -0.086125
v 0.039579 0.190608 -0.085347
v 0.055676 0.190608 -0.093678
v 0.057320 0.190608 -0.096383
v 0.057365 0.190608 -0.095103
v 0.057822 0.190608 -0.103860
v 0.039046 0.190608 -0.106624
v 0.051146 0.190608 -0.104555
v 0.017836 0.190608 -0.103898
v 0.025355 0.190608 -0.104763
v 0.010818 0.190608 -0.095065
v 0.015352 0.190608 -0.101078
v 0.013780 0.190608 -0.089016
v -0.032868 0.190608 -0.108396
vn -0.122500 0.008500 -0.992400
vn -0.093000 0.027800 -0.995300
vn -0.188000 0.034600 -0.981600
vn -0.115600 -0.028900 -0.992900
vn -0.317600 -0.100700 -0.942900
vn -0.032500 -0.054100 -0.998000
vn 0.120500 -0.073500 -0.990000
vn 0.182500 0.035800 -0.982500
vn 0.180300 0.043100 -0.982700
vn 0.108800 -0.005300 -0.994100
vn 0.106800 -0.004100 -0.994300
vn -0.176600 0.913800 0.365700
vn -0.294100 0.900900 0.319200
vn -0.166400 0.479700 0.861500
vn -0.196200 0.444200 0.874200
vn 0.242900 0.432900 0.868100
vn 0.216100 0.474200 0.853500
vn 0.403400 0.855400 0.324900
vn 0.399200 0.856500 0.327200
vn 0.937400 0.308300 0.162100
vn 0.955900 0.227100 0.186400
vn 0.687000 0.159100 0.709000
vn 0.889900 0.044500 0.454000
vn 0.897100 -0.226900 0.379100
vn 0.818600 -0.297200 0.491400
vn 0.938600 -0.319900 0.128900
vn 0.919400 -0.380900 0.097900
vn 0.124700 -0.851700 0.509000
vn -0.262700 -0.865300 0.426900
vn -0.383200 -0.564900 0.730800
vn -0.380100 -0.554400 0.740400
vn -0.302600 -0.915500 0.265000
vn -0.257000 -0.924300 0.282300
vn 0.364600 -0.895800 0.254300
vn 0.503000 -0.845000 0.181500
vn 0.479000 -0.593000 0.647200
vn 0.426800 -0.783200 0.452200
vn -0.941200 -0.277400 0.193100
vn -0.946200 -0.248200 0.207400
vn -0.800300 -0.221200 0.557300
vn -0.850500 -0.181900 0.493600
vn -0.828100 0.105500 0.550600
vn -0.687000 0.167800 0.707000
vn -0.944200 0.231600 0.234100
vn -0.932100 0.298100 0.205700
vn 0.808600 0.039700 0.587000
vn 0.919500 -0.073900 -0.386100
vn 0.928400 -0.261000 -0.264500
vn 0.902200 -0.220500 -0.370800
vn 0.789100 -0.241800 0.564700
vn 0.764700 -0.202200 0.611800
vn -0.856600 -0.190000 0.479700
vn -0.954800 -0.198300 -0.221400
vn -0.919300 -0.152100 -0.363000
vn -0.908600 -0.033600 -0.416300
vn -0.890600 -0.042900 -0.452700
vn -0.624200 -0.043100 0.780100
vn 0.093900 -0.106000 -0.989900
vn 0.142300 -0.271500 -0.951800
vn -0.087600 0.063200 -0.994200
vn 0.110600 0.044700 -0.992900
vn -0.129600 -0.264700 -0.955600
vn -0.079700 -0.117300 -0.989900
vn -0.080200 -0.062000 -0.994900
vn -0.033700 -0.032400 0.998900
vn -0.002100 -0.035200 0.999400
vn 0.267800 -0.294500 0.917400
vn 0.146800 0.027100 0.988800
vn 0.164200 0.149500 0.975000
vn 0.156900 0.143200 0.977200
vn -0.168800 0.169400 0.971000
vn -0.184300 0.188600 0.964600
vn -0.182500 0.055000 0.981700
vn -0.313500 -0.256500 0.914300
vn 0.658400 -0.061600 0.750100
vn 0.512700 0.114500 0.850900
vn 0.496300 -0.057800 0.866200
vn 0.627300 0.073400 0.775300
vn 0.999700 0.008600 -0.020900
vn 0.858000 -0.255600 -0.445500
vn 0.888100 -0.083800 -0.451900
vn -0.884100 0.030300 -0.466400
vn -0.887600 0.027700 -0.459800
vn -0.877900 -0.153700 -0.453500
vn -0.503300 0.025300 0.863700
vn -0.496300 0.202300 0.844300
vn -0.621100 0.082700 0.779400
vn -0.504200 -0.698000 0.508500
vn -0.648400 -0.596100 0.473600
vn 0.614000 -0.629000 -0.476800
vn 0.638800 -0.616100 -0.460900
vn -0.328500 0.104300 0.938700
vn -0.355100 0.130300 0.925700
vn -0.232300 0.222300 0.946900
vn 0.163900 0.236600 0.957700
vn 0.121100 0.258700 0.958300
vn 0.112300 0.450600 0.885600
vn -0.096500 0.175200 0.979800
vn 0.959000 0.275100 0.067300
vn 0.794300 0.533400 0.290900
vn 0.924500 0.165400 0.343400
vn 0.858800 0.077400 -0.506400
vn 0.690800 0.592900 -0.413800
vn 0.962400 0.259500 -0.079800
vn 0.090000 0.142300 -0.985700
vn 0.181800 0.358500 -0.915600
vn 0.195900 0.063200 -0.978600
vn 0.158500 0.098500 -0.982400
vn -0.144500 0.116900 -0.982600
vn -0.166900 0.101100 -0.980800
vn -0.134400 0.064100 -0.988800
vn -0.983200 0.170800 -0.063900
vn -0.986800 0.126500 0.100800
vn -0.592400 0.122300 0.796300
vn -0.569800 0.132500 0.811000
vn 0.626500 0.105600 0.772300
vn 0.604600 0.129400 0.785900
vn 0.588500 0.114900 0.800300
vn 0.986000 0.153400 0.065600
vn 0.978800 0.170400 0.113300
vn 0.991600 0.058100 0.115900
vn 0.990600 0.134900 -0.020100
vn 0.072200 0.197000 0.977700
vn -0.148700 0.485200 0.861700
vn -0.162100 0.279100 0.946500
vn -0.200100 0.259700 0.944700
vn 0.191400 0.249500 0.949300
vn 0.338700 0.146200 0.929500
vn 0.302000 0.115900 0.946200
vn 0.164300 0.059800 -0.984600
vn 0.188300 0.084000 -0.978500
vn 0.187600 0.109800 -0.976100
vn 0.166600 0.123900 -0.978200
vn -0.134200 0.103500 -0.985500
vn -0.174500 0.067000 -0.982400
vn -0.163200 0.365800 -0.916300
vn -0.068600 0.152100 -0.986000
vn -0.958400 0.279600 -0.057300
vn -0.682200 0.608200 -0.405800
vn -0.859000 0.085600 -0.504800
vn -0.798200 0.015300 -0.602200
vn -0.887900 0.152600 0.434000
vn -0.919100 0.181200 0.349800
vn -0.780300 0.552900 0.292300
vn -0.952900 0.295400 0.068400
vn -0.235300 0.148800 0.960400
vn -0.235300 0.148900 0.960500
vn -0.168600 0.132600 0.976700
vn 0.226800 0.169900 0.959000
vn 0.166500 0.156600 0.973500
vn 0.166600 0.156700 0.973500
vn 0.872900 0.117300 0.473600
vn 0.798600 -0.021000 -0.601500
vn 0.780900 -0.013400 -0.624500
vn 0.780900 -0.013300 -0.624500
vn 0.159700 -0.077000 -0.984200
vn -0.145200 -0.055100 -0.987900
vn -0.991100 0.086000 0.101900
vn -0.991100 0.086100 0.102000
vn -0.640700 0.124300 0.757700
vn -0.592900 0.113500 0.797200
vn -0.203800 0.169200 0.964300
vn -0.210000 0.171600 0.962500
vn 0.131100 0.135300 0.982100
vn 0.195000 0.164600 0.966900
vn 0.588300 0.118100 0.800000
vn 0.997100 0.067700 -0.035100
vn 0.993800 0.088800 0.066800
vn 0.993800 0.088800 0.066700
vn 0.168500 -0.017300 -0.985500
vn 0.168600 -0.017300 -0.985500
vn -0.114200 -0.040800 -0.992600
vn -0.134700 -0.028000 -0.990500
vn -0.134600 -0.028100 -0.990500
vn -0.798200 -0.024700 -0.601900
vn -0.798200 -0.024700 -0.601800
vn -0.860800 0.119700 0.494600
vn -0.894100 0.094400 0.437800
vn -0.169700 -0.060700 -0.983600
vn -0.021600 -0.021400 0.999500
vn 0.010400 -0.134700 0.990800
vn 0.003200 -0.022300 0.999700
vn 0.022200 -0.017000 0.999600
vn -0.002000 -0.016800 0.999900
vn -0.001300 -0.011700 0.999900
vn -0.724900 -0.570400 -0.386300
vn -0.592800 -0.617700 -0.516800
vn 0.486100 -0.599800 0.635600
vn 0.516600 -0.581000 0.629000
vn 0.000000 -1.000000 -0.000000
vn 0.873500 0.116800 0.472500
vn 0.140400 -0.072900 -0.987400
vn -0.997600 0.067700 0.014900
vn 0.639500 0.128700 0.758000
vn 0.103400 -0.057800 -0.993000
vn -0.750400 -0.006700 -0.661000
vn 0.000000 1.000000 0.000200
vn 0.000000 1.000000 0.000000
vn 0.000000 1.000000 0.000800
usemtl None
s off
f 9//1 33//1 26//1
f 26//2 58//2 9//2
f 26//3 82//3 81//3
f 58//4 26//4 81//4
f 58//5 81//5 10//5
f 82//6 26//6 83//6
f 26//7 44//7 11//7
f 83//8 26//8 11//8
f 88//9 83//9 11//9
f 64//10 44//10 26//10
f 26//11 33//11 64//11
f 1//12 45//12 27//12
f 27//13 50//13 1//13
f 5//14 50//14 27//14
f 27//15 51//15 5//15
f 7//16 51//16 27//16
f 27//17 49//17 7//17
f 3//18 49//18 27//18
f 27//19 45//19 3//19
f 3//20 46//20 28//20
f 28//21 49//21 3//21
f 7//22 49//22 28//22
f 28//23 53//23 7//23
f 8//24 53//24 28//24
f 28//25 52//25 8//25
f 4//26 52//26 28//26
f 28//27 46//27 4//27
f 84//28 29//28 85//28
f 29//29 54//29 6//29
f 85//30 29//30 6//30
f 86//31 85//31 6//31
f 2//32 54//32 29//32
f 29//33 47//33 2//33
f 4//34 47//34 29//34
f 29//35 52//35 4//35
f 29//36 84//36 8//36
f 52//37 29//37 8//37
f 2//38 48//38 30//38
f 30//39 54//39 2//39
f 6//40 54//40 30//40
f 30//41 32//41 6//41
f 5//42 32//42 30//42
f 30//43 50//43 5//43
f 1//44 50//44 30//44
f 30//45 48//45 1//45
f 7//46 53//46 31//46
f 31//47 44//47 64//47
f 11//48 44//48 31//48
f 31//49 55//49 11//49
f 8//50 55//50 31//50
f 31//51 53//51 8//51
f 32//52 57//52 6//52
f 10//53 57//53 32//53
f 32//54 58//54 10//54
f 9//55 58//55 32//55
f 32//56 56//56 9//56
f 5//57 56//57 32//57
f 15//58 64//58 33//58
f 33//59 67//59 15//59
f 17//60 67//60 33//60
f 33//61 60//61 17//61
f 14//62 60//62 33//62
f 33//63 59//63 14//63
f 9//64 59//64 33//64
f 16//65 63//65 34//65
f 34//66 66//66 16//66
f 13//67 66//67 34//67
f 34//68 61//68 13//68
f 7//69 61//69 34//69
f 34//70 51//70 7//70
f 5//71 51//71 34//71
f 34//72 62//72 5//72
f 12//73 62//73 34//73
f 34//74 63//74 12//74
f 7//75 31//75 35//75
f 35//76 61//76 7//76
f 13//77 61//77 35//77
f 35//78 65//78 13//78
f 15//79 65//79 35//79
f 35//80 64//80 15//80
f 35//81 31//81 64//81
f 9//82 56//82 36//82
f 36//83 59//83 9//83
f 14//84 59//84 36//84
f 36//85 62//85 12//85
f 5//86 62//86 36//86
f 36//87 56//87 5//87
f 87//88 86//88 6//88
f 6//89 57//89 87//89
f 89//90 88//90 11//90
f 11//91 55//91 89//91
f 12//92 63//92 37//92
f 18//93 12//93 37//93
f 37//94 69//94 18//94
f 20//95 69//95 37//95
f 37//96 68//96 20//96
f 16//97 68//97 37//97
f 37//98 63//98 16//98
f 16//99 71//99 38//99
f 38//100 68//100 16//100
f 20//101 68//101 38//101
f 38//102 70//102 21//102
f 17//103 70//103 38//103
f 38//104 71//104 17//104
f 17//105 60//105 39//105
f 39//106 70//106 17//106
f 21//107 70//107 39//107
f 39//108 72//108 21//108
f 19//109 72//109 39//109
f 14//110 19//110 39//110
f 39//111 60//111 14//111
f 14//112 36//112 73//112
f 73//113 19//113 14//113
f 73//114 12//114 18//114
f 73//115 36//115 12//115
f 13//116 65//116 40//116
f 22//117 13//117 40//117
f 40//118 75//118 22//118
f 23//119 75//119 40//119
f 40//120 74//120 23//120
f 15//121 74//121 40//121
f 40//122 65//122 15//122
f 16//123 66//123 41//123
f 41//124 76//124 16//124
f 24//125 76//125 41//125
f 41//126 77//126 24//126
f 22//127 77//127 41//127
f 41//128 13//128 22//128
f 41//129 66//129 13//129
f 15//130 67//130 42//130
f 42//131 74//131 15//131
f 23//132 74//132 42//132
f 42//133 79//133 23//133
f 25//134 79//134 42//134
f 42//135 78//135 25//135
f 17//136 78//136 42//136
f 42//137 67//137 17//137
f 17//138 71//138 43//138
f 43//139 78//139 17//139
f 25//140 78//140 43//140
f 43//141 80//141 25//141
f 24//142 80//142 43//142
f 43//143 76//143 24//143
f 16//144 76//144 43//144
f 43//145 71//145 16//145
f 69//146 91//146 92//146
f 92//147 18//147 69//147
f 93//148 18//148 92//148
f 20//149 94//149 95//149
f 91//150 69//150 20//150
f 20//151 95//151 91//151
f 20//152 38//152 96//152
f 96//152 97//152 20//152
f 21//153 98//153 99//153
f 96//154 38//154 21//154
f 21//155 99//155 96//155
f 98//156 21//156 72//156
f 72//156 100//156 98//156
f 19//157 101//157 102//157
f 102//157 72//157 19//157
f 101//158 19//158 73//158
f 73//159 103//159 101//159
f 105//160 73//160 104//160
f 93//161 104//161 73//161
f 73//161 18//161 93//161
f 77//162 106//162 107//162
f 107//162 24//162 77//162
f 108//163 24//163 107//163
f 22//164 109//164 110//164
f 106//165 77//165 22//165
f 22//165 110//165 106//165
f 109//166 22//166 75//166
f 75//166 111//166 109//166
f 113//167 75//167 112//167
f 112//168 75//168 23//168
f 23//169 114//169 112//169
f 79//170 115//170 116//170
f 116//171 23//171 79//171
f 25//172 117//172 118//172
f 115//173 79//173 25//173
f 25//174 118//174 115//174
f 80//175 119//175 120//175
f 120//176 25//176 80//176
f 24//177 108//177 121//177
f 119//178 80//178 24//178
f 24//178 121//178 119//178
f 122//179 72//179 102//179
f 4//180 46//180 3//180
f 2//181 47//181 4//181
f 2//182 4//182 3//182
f 1//183 48//183 2//183
f 1//184 2//184 3//184
f 1//185 3//185 45//185
f 10//186 81//186 87//186
f 87//187 57//187 10//187
f 8//188 84//188 89//188
f 89//189 55//189 8//189
f 88//190 90//190 84//190
f 82//190 83//190 88//190
f 87//190 81//190 82//190
f 87//190 82//190 88//190
f 86//190 87//190 88//190
f 85//190 86//190 88//190
f 85//190 88//190 84//190
f 94//191 20//191 97//191
f 100//192 72//192 122//192
f 103//193 73//193 105//193
f 111//194 75//194 113//194
f 114//195 23//195 116//195
f 117//196 25//196 120//196
f 89//197 84//197 90//197
f 90//198 88//198 89//198
f 95//198 94//198 97//198
f 97//198 96//198 99//198
f 99//198 98//198 100//198
f 97//198 99//198 100//198
f 100//198 122//198 102//198
f 102//198 101//198 103//198
f 100//198 102//198 103//198
f 103//198 105//198 104//198
f 104//198 93//198 92//198
f 103//198 104//198 92//198
f 100//198 103//198 92//198
f 97//198 100//198 92//198
f 95//198 97//198 92//198
f 91//198 95//198 92//198
f 110//198 109//198 111//198
f 106//198 110//198 111//198
f 111//198 113//198 112//198
f 112//198 114//198 116//198
f 111//198 112//198 116//198
f 106//198 111//198 116//198
f 116//198 115//198 118//198
f 118//198 117//198 120//198
f 116//198 118//198 120//198
f 106//198 116//198 120//198
f 120//198 119//198 121//198
f 106//198 120//198 121//198
f 106//198 121//198 108//198
f 106//199 108//199 107//199
