# Blender v2.71 (sub 0) OBJ File: ''
# www.blender.org
mtllib pelvis.mtl
o node_shape0.005
v 0.002975 -0.000000 0.221475
v 0.002975 0.000000 -0.038244
v 0.034020 0.000000 -0.038244
v 0.156686 -0.000000 0.022332
v 0.139270 -0.000000 0.144998
v 0.117312 -0.000000 0.222232
v 0.032148 0.010618 -0.038244
v 0.147416 0.052572 0.022332
v 0.131051 0.046616 0.144998
v 0.110416 0.039105 0.222232
v 0.026757 0.019955 -0.038244
v 0.120724 0.098804 0.022332
v 0.107383 0.087609 0.144998
v 0.090562 0.073494 0.222232
v 0.018497 0.026886 -0.038244
v 0.079830 0.133118 0.022332
v 0.071123 0.118035 0.144998
v 0.060143 0.099019 0.222232
v 0.008366 0.030573 -0.038244
v 0.029666 0.151376 0.022332
v 0.026642 0.134225 0.144998
v 0.022829 0.112600 0.222232
v -0.002416 0.030573 -0.038244
v -0.023717 0.151376 0.022332
v -0.020693 0.134225 0.144998
v -0.016879 0.112600 0.222232
v -0.012548 0.026886 -0.038244
v -0.073881 0.133118 0.022332
v -0.065173 0.118035 0.144998
v -0.054194 0.099019 0.222232
v -0.020807 0.019955 -0.038244
v -0.114775 0.098804 0.022332
v -0.101434 0.087609 0.144998
v -0.084612 0.073494 0.222232
v -0.026198 0.010618 -0.038244
v -0.141466 0.052572 0.022332
v -0.125101 0.046616 0.144998
v -0.104467 0.039106 0.222232
v -0.028070 0.000000 -0.038244
v -0.150736 -0.000000 0.022332
v -0.133321 -0.000000 0.144998
v -0.111362 -0.000000 0.222232
v -0.026198 -0.010618 -0.038244
v -0.141466 -0.052572 0.022332
v -0.125101 -0.046616 0.144998
v -0.104467 -0.039105 0.222232
v -0.020807 -0.019955 -0.038244
v -0.114775 -0.098804 0.022332
v -0.101434 -0.087609 0.144998
v -0.084612 -0.073494 0.222232
v -0.012548 -0.026886 -0.038244
v -0.073881 -0.133118 0.022332
v -0.065173 -0.118035 0.144998
v -0.054194 -0.099019 0.222232
v -0.002416 -0.030573 -0.038244
v -0.023717 -0.151376 0.022332
v -0.020693 -0.134225 0.144998
v -0.016880 -0.112600 0.222232
v 0.008366 -0.030573 -0.038244
v 0.029667 -0.151376 0.022332
v 0.026642 -0.134225 0.144998
v 0.022829 -0.112600 0.222232
v 0.018497 -0.026886 -0.038244
v 0.079830 -0.133118 0.022332
v 0.071123 -0.118035 0.144998
v 0.060143 -0.099019 0.222232
v 0.026757 -0.019955 -0.038244
v 0.120724 -0.098804 0.022332
v 0.107383 -0.087609 0.144998
v 0.090562 -0.073494 0.222232
v 0.032148 -0.010618 -0.038244
v 0.147416 -0.052572 0.022332
v 0.131051 -0.046616 0.144998
v 0.110416 -0.039105 0.222232
vn 0.000000 0.000000 -1.000000
vn 0.441400 0.077800 -0.893900
vn 0.975300 0.172000 0.138500
vn 0.948300 0.167200 0.269600
vn -0.006600 -0.001200 1.000000
vn 0.388200 0.224100 -0.893900
vn 0.857700 0.495200 0.138500
vn 0.834000 0.481500 0.269600
vn 0.833900 0.481500 0.269600
vn -0.005800 -0.003400 1.000000
vn 0.288100 0.343400 -0.893900
vn 0.636600 0.758700 0.138500
vn 0.619000 0.737700 0.269600
vn -0.004300 -0.005100 1.000000
vn 0.153300 0.421200 -0.893900
vn 0.338700 0.930600 0.138500
vn 0.329400 0.904900 0.269600
vn -0.002300 -0.006300 1.000000
vn 0.000000 0.448200 -0.893900
vn 0.000000 0.990400 0.138500
vn 0.000000 0.963000 0.269600
vn 0.000000 -0.006700 1.000000
vn -0.153300 0.421200 -0.893900
vn -0.338700 0.930600 0.138500
vn -0.329300 0.904900 0.269600
vn -0.329400 0.904900 0.269600
vn 0.002300 -0.006300 1.000000
vn -0.288100 0.343400 -0.893900
vn -0.636600 0.758700 0.138500
vn -0.619000 0.737700 0.269600
vn 0.004300 -0.005100 1.000000
vn -0.388200 0.224100 -0.893900
vn -0.857700 0.495200 0.138500
vn -0.833900 0.481500 0.269600
vn -0.834000 0.481500 0.269600
vn 0.005800 -0.003400 1.000000
vn -0.441400 0.077800 -0.893900
vn -0.975300 0.172000 0.138500
vn -0.948300 0.167200 0.269600
vn 0.006600 -0.001200 1.000000
vn -0.441400 -0.077800 -0.893900
vn -0.975300 -0.172000 0.138500
vn -0.948300 -0.167200 0.269600
vn 0.006600 0.001200 1.000000
vn -0.388200 -0.224100 -0.893900
vn -0.857700 -0.495200 0.138500
vn -0.833900 -0.481500 0.269600
vn -0.834000 -0.481500 0.269600
vn 0.005800 0.003400 1.000000
vn -0.288100 -0.343400 -0.893900
vn -0.288200 -0.343400 -0.893900
vn -0.636600 -0.758700 0.138500
vn -0.619000 -0.737700 0.269600
vn 0.004300 0.005100 1.000000
vn -0.153300 -0.421200 -0.893900
vn -0.338700 -0.930600 0.138500
vn -0.329400 -0.904900 0.269600
vn 0.002300 0.006300 1.000000
vn 0.000000 -0.448200 -0.893900
vn 0.000000 -0.990400 0.138500
vn 0.000000 -0.963000 0.269600
vn 0.000000 0.006700 1.000000
vn 0.153300 -0.421200 -0.893900
vn 0.338700 -0.930600 0.138500
vn 0.329300 -0.904900 0.269600
vn 0.329400 -0.904900 0.269600
vn -0.002300 0.006300 1.000000
vn 0.288100 -0.343400 -0.893900
vn 0.636600 -0.758700 0.138500
vn 0.619000 -0.737700 0.269600
vn -0.004300 0.005100 1.000000
vn 0.388200 -0.224100 -0.893900
vn 0.857700 -0.495200 0.138500
vn 0.834000 -0.481500 0.269600
vn 0.833900 -0.481500 0.269600
vn -0.005800 0.003400 1.000000
vn 0.441400 -0.077800 -0.893900
vn 0.975300 -0.172000 0.138500
vn 0.948300 -0.167200 0.269600
vn -0.006600 0.001200 1.000000
usemtl None
s off
f 2//1 7//1 3//1
f 3//2 8//2 4//2
f 3//2 7//2 8//2
f 4//3 9//3 5//3
f 4//3 8//3 9//3
f 5//4 10//4 6//4
f 5//4 9//4 10//4
f 6//5 10//5 1//5
f 2//1 11//1 7//1
f 7//6 12//6 8//6
f 7//6 11//6 12//6
f 8//7 13//7 9//7
f 8//7 12//7 13//7
f 9//8 14//8 10//8
f 9//9 13//9 14//9
f 10//10 14//10 1//10
f 2//1 15//1 11//1
f 11//11 16//11 12//11
f 11//11 15//11 16//11
f 12//12 17//12 13//12
f 12//12 16//12 17//12
f 13//13 18//13 14//13
f 13//13 17//13 18//13
f 14//14 18//14 1//14
f 2//1 19//1 15//1
f 15//15 20//15 16//15
f 15//15 19//15 20//15
f 16//16 21//16 17//16
f 16//16 20//16 21//16
f 17//17 22//17 18//17
f 17//17 21//17 22//17
f 18//18 22//18 1//18
f 2//1 23//1 19//1
f 19//19 24//19 20//19
f 19//19 23//19 24//19
f 20//20 25//20 21//20
f 20//20 24//20 25//20
f 21//21 26//21 22//21
f 21//21 25//21 26//21
f 22//22 26//22 1//22
f 2//1 27//1 23//1
f 23//23 28//23 24//23
f 23//23 27//23 28//23
f 24//24 29//24 25//24
f 24//24 28//24 29//24
f 25//25 30//25 26//25
f 25//26 29//26 30//26
f 26//27 30//27 1//27
f 2//1 31//1 27//1
f 27//28 32//28 28//28
f 27//28 31//28 32//28
f 28//29 33//29 29//29
f 28//29 32//29 33//29
f 29//30 34//30 30//30
f 29//30 33//30 34//30
f 30//31 34//31 1//31
f 2//1 35//1 31//1
f 31//32 36//32 32//32
f 31//32 35//32 36//32
f 32//33 37//33 33//33
f 32//33 36//33 37//33
f 33//34 38//34 34//34
f 33//35 37//35 38//35
f 34//36 38//36 1//36
f 2//1 39//1 35//1
f 35//37 40//37 36//37
f 35//37 39//37 40//37
f 36//38 41//38 37//38
f 36//38 40//38 41//38
f 37//39 42//39 38//39
f 37//39 41//39 42//39
f 38//40 42//40 1//40
f 2//1 43//1 39//1
f 39//41 44//41 40//41
f 39//41 43//41 44//41
f 40//42 45//42 41//42
f 40//42 44//42 45//42
f 41//43 46//43 42//43
f 41//43 45//43 46//43
f 42//44 46//44 1//44
f 2//1 47//1 43//1
f 43//45 48//45 44//45
f 43//45 47//45 48//45
f 44//46 49//46 45//46
f 44//46 48//46 49//46
f 45//47 50//47 46//47
f 45//48 49//48 50//48
f 46//49 50//49 1//49
f 2//1 51//1 47//1
f 47//50 52//50 48//50
f 47//51 51//51 52//51
f 48//52 53//52 49//52
f 48//52 52//52 53//52
f 49//53 54//53 50//53
f 49//53 53//53 54//53
f 50//54 54//54 1//54
f 2//1 55//1 51//1
f 51//55 56//55 52//55
f 51//55 55//55 56//55
f 52//56 57//56 53//56
f 52//56 56//56 57//56
f 53//57 58//57 54//57
f 53//57 57//57 58//57
f 54//58 58//58 1//58
f 2//1 59//1 55//1
f 55//59 60//59 56//59
f 55//59 59//59 60//59
f 56//60 61//60 57//60
f 56//60 60//60 61//60
f 57//61 62//61 58//61
f 57//61 61//61 62//61
f 58//62 62//62 1//62
f 2//1 63//1 59//1
f 59//63 64//63 60//63
f 59//63 63//63 64//63
f 60//64 65//64 61//64
f 60//64 64//64 65//64
f 61//65 66//65 62//65
f 61//66 65//66 66//66
f 62//67 66//67 1//67
f 2//1 67//1 63//1
f 63//68 68//68 64//68
f 63//68 67//68 68//68
f 64//69 69//69 65//69
f 64//69 68//69 69//69
f 65//70 70//70 66//70
f 65//70 69//70 70//70
f 66//71 70//71 1//71
f 2//1 71//1 67//1
f 67//72 72//72 68//72
f 67//72 71//72 72//72
f 68//73 73//73 69//73
f 68//73 72//73 73//73
f 69//74 74//74 70//74
f 69//75 73//75 74//75
f 70//76 74//76 1//76
f 2//1 3//1 71//1
f 71//77 4//77 72//77
f 71//77 3//77 4//77
f 72//78 5//78 73//78
f 72//78 4//78 5//78
f 73//79 6//79 74//79
f 73//79 5//79 6//79
f 74//80 6//80 1//80
