# Blender v2.69 (sub 0) OBJ File: 'rom.blend'
# www.blender.org
mtllib roms.mtl
o upper_right_arm_z_joint__foo.004
v 0.708907 0.575211 0.496092
v 0.110007 0.294458 0.860759
v -0.052030 0.115779 -0.181364
v -0.109512 -0.013860 0.358814
v 0.430353 1.235545 0.543202
v -0.541377 0.270387 0.369727
v 0.426383 0.066919 0.239982
v 0.617430 0.519020 -0.092845
v 0.484070 0.838837 -0.331591
v 0.172114 0.910677 0.893758
vn 0.009885 -0.595529 -0.803273
vn 0.529304 -0.530080 -0.662460
vn -0.626706 0.694498 -0.353428
vn -0.652406 0.343341 -0.675635
vn -0.710311 0.693657 0.119572
vn 0.227821 -0.870959 0.435348
vn -0.602281 0.017965 0.798082
vn 0.096890 -0.970105 -0.222507
vn 0.668360 0.231507 0.706895
vn 0.551220 -0.099914 0.828356
vn -0.428536 -0.674182 0.601528
vn 0.889729 -0.446364 -0.095610
vn -0.536668 -0.805758 -0.250484
vn 0.602040 -0.600052 0.526769
vn 0.948241 0.266476 -0.172711
vn 0.911301 0.393148 -0.122329
usemtl None
s off
f 9//1 8//1 7//1
f 9//2 7//2 3//2
f 9//3 6//3 5//3
f 9//4 3//4 6//4
f 5//5 6//5 10//5
f 2//6 4//6 7//6
f 6//7 2//7 10//7
f 7//8 4//8 3//8
f 5//9 10//9 1//9
f 1//10 10//10 2//10
f 6//11 4//11 2//11
f 8//12 1//12 7//12
f 4//13 6//13 3//13
f 7//14 1//14 2//14
f 1//15 8//15 9//15
f 1//16 9//16 5//16
o upper_left_arm_z_joint_foo.000_foo.005
v 0.538844 0.157387 -0.249921
v -0.105317 0.058398 -0.559804
v -0.064647 0.282070 0.320359
v -0.636929 0.954922 -0.215032
v 0.684919 0.506109 -0.426677
v -0.287825 0.098252 -0.044527
v 0.303257 0.852174 -0.893073
v 0.644377 0.933829 -0.199673
v 0.014478 0.368484 -0.867129
v 0.399689 0.362236 -0.751932
v -0.507816 0.399640 0.087541
v -0.393191 0.595517 -0.814645
v -0.265679 0.917427 0.324276
v 0.152865 0.017849 -0.060103
v -0.560747 0.338014 -0.438675
v 0.450274 0.492571 0.293249
vn 0.017834 0.991923 -0.125583
vn -0.813755 0.120595 0.568559
vn -0.404908 -0.559969 -0.722831
vn 0.185890 -0.726964 -0.661036
vn -0.766037 -0.624990 0.150248
vn 0.835629 0.317209 -0.448446
vn 0.503363 -0.696248 0.511727
vn 0.948613 -0.073443 0.307799
vn 0.337284 -0.835230 -0.434315
vn 0.015730 0.998159 0.058569
vn -0.179037 -0.983761 0.012675
vn 0.759505 -0.037593 -0.649414
vn -0.338219 0.740187 -0.581146
vn 0.314875 -0.685721 0.656232
vn -0.920044 0.028061 -0.390809
vn -0.543454 -0.829573 -0.128325
vn -0.136752 -0.848560 0.511121
vn -0.492144 -0.160993 0.855497
vn -0.521605 -0.577524 -0.628008
vn -0.979479 -0.163620 0.117685
vn 0.741945 -0.523261 -0.419185
vn -0.486816 -0.623441 0.611826
vn 0.925009 -0.236917 0.297033
vn 0.276581 -0.215361 -0.936548
vn -0.118182 0.017306 -0.992841
vn 0.048790 0.009281 0.998766
vn 0.389083 0.604934 0.694744
vn 0.243255 -0.948556 -0.202654
usemtl None
s off
f 17//17 14//17 18//17
f 14//18 21//18 23//18
f 19//19 12//19 22//19
f 12//20 19//20 20//20
f 16//21 21//21 25//21
f 18//22 15//22 17//22
f 11//23 26//23 24//23
f 18//24 26//24 15//24
f 20//25 11//25 12//25
f 18//26 14//26 23//26
f 24//27 16//27 12//27
f 17//28 15//28 20//28
f 17//29 22//29 14//29
f 26//30 13//30 24//30
f 25//31 14//31 22//31
f 25//32 12//32 16//32
f 16//33 24//33 13//33
f 23//34 21//34 13//34
f 25//35 22//35 12//35
f 25//36 21//36 14//36
f 15//37 11//37 20//37
f 13//38 21//38 16//38
f 11//39 15//39 26//39
f 17//40 20//40 19//40
f 17//41 19//41 22//41
f 13//42 26//42 23//42
f 23//43 26//43 18//43
f 11//44 24//44 12//44
o upper_left_leg_z_joint_foo.006
v 0.845320 -0.637982 0.030240
v 0.196783 -1.104708 -0.357881
v -0.479449 -0.978297 -0.420564
v -0.232610 -0.803638 0.670141
v 0.532105 -0.612857 0.559368
v 1.004797 -0.124590 -0.235122
v 0.369495 -0.354008 -1.013518
v -0.462987 -0.566201 -0.911212
v -0.476047 -0.150478 -0.982803
v -0.934992 -0.168177 -0.180758
v 0.484969 -0.992489 0.042531
v 0.802515 -0.541948 -0.514692
vn -0.804073 -0.531188 0.267032
vn 0.276226 -0.786435 0.552467
vn 0.860448 -0.003923 0.509523
vn -0.082833 -0.761740 -0.642566
vn 0.438769 -0.646253 -0.624371
vn 0.625830 -0.741243 -0.242685
vn 0.764760 0.059121 -0.641597
vn -0.857545 -0.379373 -0.347409
vn -0.861380 -0.112369 -0.495377
vn -0.076973 -0.171554 -0.982163
vn -0.010647 -0.960827 0.276944
vn 0.924169 -0.357132 -0.135531
vn 0.686994 -0.704495 -0.178117
vn 0.236511 0.958943 0.156497
vn -0.197843 -0.959927 0.198491
vn 0.078585 -0.665969 -0.741828
vn -0.001205 0.800747 0.599002
vn -0.154536 0.880099 0.448937
vn -0.028990 0.964972 -0.260746
vn 0.645874 -0.642208 0.412815
usemtl None
s off
f 29//45 30//45 36//45
f 37//46 31//46 30//46
f 32//47 31//47 27//47
f 34//48 28//48 29//48
f 28//49 33//49 38//49
f 28//50 38//50 37//50
f 33//51 32//51 38//51
f 34//52 29//52 36//52
f 36//53 35//53 34//53
f 35//54 33//54 34//54
f 37//55 30//55 28//55
f 38//56 32//56 27//56
f 38//57 27//57 37//57
f 35//58 36//58 33//58
f 30//59 29//59 28//59
f 28//60 34//60 33//60
f 32//61 36//61 30//61
f 32//62 30//62 31//62
f 32//63 33//63 36//63
f 37//64 27//64 31//64
o upper_right_leg_z_joint__foo.007
v -0.787238 -0.641835 0.525066
v 0.246040 -0.571830 0.987510
v 0.281564 -0.338511 -0.843645
v 0.409677 -0.180935 0.997830
v 0.853701 -0.271329 0.582742
v -0.446618 -0.963347 0.484611
v 0.376138 -1.021844 0.424945
v 0.965962 -0.216869 0.208055
v -0.314423 -0.682636 -0.674651
v -0.579961 -0.236167 -0.641442
v 0.096462 -1.065963 -0.273422
v 0.838338 -0.634377 -0.152647
v 0.752842 -0.143984 -0.538198
vn 0.624359 -0.280617 0.728993
vn -0.336576 -0.459970 0.821672
vn 0.462535 -0.616869 -0.636815
vn -0.064252 -0.993999 0.088526
vn -0.680747 -0.690401 -0.244806
vn 0.273773 0.958100 0.084212
vn -0.427098 0.874893 0.228364
vn -0.412338 0.148885 0.898783
vn -0.069648 0.997536 0.008437
vn -0.235618 -0.068023 -0.969462
vn 0.958893 -0.052130 -0.278938
vn -0.080623 0.989535 0.119671
vn 0.515427 -0.843137 -0.153149
vn 0.636281 -0.523931 0.566254
vn -0.827086 -0.468851 -0.310014
vn 0.789522 -0.556701 0.258339
vn 0.609289 -0.421719 -0.671505
vn 0.150434 -0.633327 -0.759122
vn -0.010409 -0.782025 0.623160
vn 0.876065 -0.439387 0.198615
vn -0.019292 0.856536 -0.515727
vn -0.513216 -0.818932 -0.256826
usemtl None
s off
f 43//65 42//65 40//65
f 40//66 39//66 44//66
f 41//67 50//67 49//67
f 45//68 44//68 49//68
f 44//69 39//69 47//69
f 42//70 43//70 51//70
f 42//71 48//71 39//71
f 42//72 39//72 40//72
f 42//73 51//73 48//73
f 48//74 41//74 47//74
f 50//75 51//75 46//75
f 43//76 46//76 51//76
f 50//77 45//77 49//77
f 45//78 43//78 40//78
f 48//79 47//79 39//79
f 50//80 43//80 45//80
f 51//81 50//81 41//81
f 47//82 41//82 49//82
f 44//83 45//83 40//83
f 46//84 43//84 50//84
f 48//85 51//85 41//85
f 44//86 47//86 49//86
