# Blender v2.62 (sub 0) OBJ File: 'climb.blend'
# www.blender.org
mtllib climb.mtl
o Cube.005_Cube.001
v 0.406863 3.766162 0.032628
v 0.406863 3.566163 0.032628
v 0.406863 3.566163 0.232628
v 0.506863 3.766162 0.032628
v 0.506863 3.566163 0.032628
v 0.506863 3.766162 0.232628
v 0.506863 3.566163 0.232628
v 0.406863 3.766162 0.232628
vt -0.000000 1.000000
vn -1.000000 0.000000 0.000000
vn 0.000000 0.000000 -1.000000
vn 1.000000 0.000000 0.000000
vn 0.000000 -0.000000 1.000000
vn -0.000000 -1.000000 -0.000000
vn -0.000000 1.000000 0.000000
usemtl None.004
s off
f 1/1/1 2/1/1 3/1/1
f 4/1/2 5/1/2 2/1/2
f 6/1/3 7/1/3 5/1/3
f 8/1/4 3/1/4 7/1/4
f 2/1/5 5/1/5 7/1/5
f 4/1/6 1/1/6 8/1/6
f 8/1/1 1/1/1 3/1/1
f 1/1/2 4/1/2 2/1/2
f 4/1/3 6/1/3 5/1/3
f 6/1/4 8/1/4 7/1/4
f 3/1/5 2/1/5 7/1/5
f 6/1/6 4/1/6 8/1/6
o Cube.014_Cube.001
v 0.406863 1.263973 -0.691283
v 0.406863 1.063973 -0.691283
v 0.406863 1.063973 -0.491283
v 0.506863 1.263973 -0.691283
v 0.506863 1.063973 -0.691283
v 0.506863 1.263973 -0.491283
v 0.506863 1.063973 -0.491283
v 0.406863 1.263973 -0.491283
vt -0.000000 1.000000
usemtl None.004
s off
f 9/2/1 10/2/1 11/2/1
f 12/2/2 13/2/2 10/2/2
f 14/2/3 15/2/3 13/2/3
f 16/2/4 11/2/4 15/2/4
f 10/2/5 13/2/5 15/2/5
f 12/2/6 9/2/6 16/2/6
f 16/2/1 9/2/1 11/2/1
f 9/2/2 12/2/2 10/2/2
f 12/2/3 14/2/3 13/2/3
f 14/2/4 16/2/4 15/2/4
f 11/2/5 10/2/5 15/2/5
f 14/2/6 12/2/6 16/2/6
o Cube.006_Cube.001
v 0.406863 4.223073 -0.203671
v 0.406863 4.023074 -0.203671
v 0.406863 4.023074 -0.003671
v 0.506863 4.223073 -0.203671
v 0.506863 4.023074 -0.203671
v 0.506863 4.223073 -0.003671
v 0.506863 4.023074 -0.003671
v 0.406863 4.223073 -0.003671
vt -0.000000 1.000000
usemtl None.004
s off
f 17/3/1 18/3/1 19/3/1
f 20/3/2 21/3/2 18/3/2
f 22/3/3 23/3/3 21/3/3
f 24/3/4 19/3/4 23/3/4
f 18/3/5 21/3/5 23/3/5
f 20/3/6 17/3/6 24/3/6
f 24/3/1 17/3/1 19/3/1
f 17/3/2 20/3/2 18/3/2
f 20/3/3 22/3/3 21/3/3
f 22/3/4 24/3/4 23/3/4
f 19/3/5 18/3/5 23/3/5
f 22/3/6 20/3/6 24/3/6
o Cube.025_Cube.001
v 0.406863 3.799615 -0.651413
v 0.406863 3.599615 -0.651413
v 0.406863 3.599615 -0.451413
v 0.506863 3.799615 -0.651413
v 0.506863 3.599615 -0.651413
v 0.506863 3.799615 -0.451413
v 0.506863 3.599615 -0.451413
v 0.406863 3.799615 -0.451413
vt -0.000000 1.000000
usemtl None.004
s off
f 25/4/1 26/4/1 27/4/1
f 28/4/2 29/4/2 26/4/2
f 30/4/3 31/4/3 29/4/3
f 32/4/4 27/4/4 31/4/4
f 26/4/5 29/4/5 31/4/5
f 28/4/6 25/4/6 32/4/6
f 32/4/1 25/4/1 27/4/1
f 25/4/2 28/4/2 26/4/2
f 28/4/3 30/4/3 29/4/3
f 30/4/4 32/4/4 31/4/4
f 27/4/5 26/4/5 31/4/5
f 30/4/6 28/4/6 32/4/6
o Cube.020_Cube.001
v 0.406863 2.718131 -0.724420
v 0.406863 2.518131 -0.724420
v 0.406863 2.518131 -0.524420
v 0.506863 2.718131 -0.724420
v 0.506863 2.518131 -0.724420
v 0.506863 2.718131 -0.524420
v 0.506863 2.518131 -0.524420
v 0.406863 2.718131 -0.524420
vt -0.000000 1.000000
usemtl None.004
s off
f 33/5/1 34/5/1 35/5/1
f 36/5/2 37/5/2 34/5/2
f 38/5/3 39/5/3 37/5/3
f 40/5/4 35/5/4 39/5/4
f 34/5/5 37/5/5 39/5/5
f 36/5/6 33/5/6 40/5/6
f 40/5/1 33/5/1 35/5/1
f 33/5/2 36/5/2 34/5/2
f 36/5/3 38/5/3 37/5/3
f 38/5/4 40/5/4 39/5/4
f 35/5/5 34/5/5 39/5/5
f 38/5/6 36/5/6 40/5/6
o Cube.021_Cube.001
v 0.406863 2.190087 -0.183999
v 0.406863 1.990087 -0.183999
v 0.406863 1.990087 0.016001
v 0.506863 2.190087 -0.183999
v 0.506863 1.990087 -0.183999
v 0.506863 2.190087 0.016001
v 0.506863 1.990087 0.016001
v 0.406863 2.190087 0.016001
vt -0.000000 1.000000
usemtl None.004
s off
f 41/6/1 42/6/1 43/6/1
f 44/6/2 45/6/2 42/6/2
f 46/6/3 47/6/3 45/6/3
f 48/6/4 43/6/4 47/6/4
f 42/6/5 45/6/5 47/6/5
f 44/6/6 41/6/6 48/6/6
f 48/6/1 41/6/1 43/6/1
f 41/6/2 44/6/2 42/6/2
f 44/6/3 46/6/3 45/6/3
f 46/6/4 48/6/4 47/6/4
f 43/6/5 42/6/5 47/6/5
f 46/6/6 44/6/6 48/6/6
o Cube.016_Cube.001
v 0.406863 1.387426 0.105233
v 0.406863 1.187426 0.105233
v 0.406863 1.187426 0.305233
v 0.506863 1.387426 0.105233
v 0.506863 1.187426 0.105233
v 0.506863 1.387426 0.305233
v 0.506863 1.187426 0.305233
v 0.406863 1.387426 0.305233
vt -0.000000 1.000000
usemtl None.175
s off
f 49/7/1 50/7/1 51/7/1
f 52/7/2 53/7/2 50/7/2
f 54/7/3 55/7/3 53/7/3
f 56/7/4 51/7/4 55/7/4
f 50/7/5 53/7/5 55/7/5
f 52/7/6 49/7/6 56/7/6
f 56/7/1 49/7/1 51/7/1
f 49/7/2 52/7/2 50/7/2
f 52/7/3 54/7/3 53/7/3
f 54/7/4 56/7/4 55/7/4
f 51/7/5 50/7/5 55/7/5
f 54/7/6 52/7/6 56/7/6
o Cube.001_Cube.001
v 0.406863 2.568062 0.532551
v 0.406863 2.368062 0.532551
v 0.406863 2.368062 0.732551
v 0.506863 2.568062 0.532551
v 0.506863 2.368062 0.532551
v 0.506863 2.568062 0.732551
v 0.506863 2.368062 0.732551
v 0.406863 2.568062 0.732551
vt -0.000000 1.000000
usemtl None.004
s off
f 57/8/1 58/8/1 59/8/1
f 60/8/2 61/8/2 58/8/2
f 62/8/3 63/8/3 61/8/3
f 64/8/4 59/8/4 63/8/4
f 58/8/5 61/8/5 63/8/5
f 60/8/6 57/8/6 64/8/6
f 64/8/1 57/8/1 59/8/1
f 57/8/2 60/8/2 58/8/2
f 60/8/3 62/8/3 61/8/3
f 62/8/4 64/8/4 63/8/4
f 59/8/5 58/8/5 63/8/5
f 62/8/6 60/8/6 64/8/6
o Cube.003_Cube.001
v 0.406863 2.044608 -0.764260
v 0.406863 1.844608 -0.764260
v 0.406863 1.844608 -0.564260
v 0.506863 2.044608 -0.764260
v 0.506863 1.844608 -0.764260
v 0.506863 2.044608 -0.564260
v 0.506863 1.844608 -0.564260
v 0.406863 2.044608 -0.564260
vt -0.000000 1.000000
usemtl None.004
s off
f 65/9/1 66/9/1 67/9/1
f 68/9/2 69/9/2 66/9/2
f 70/9/3 71/9/3 69/9/3
f 72/9/4 67/9/4 71/9/4
f 66/9/5 69/9/5 71/9/5
f 68/9/6 65/9/6 72/9/6
f 72/9/1 65/9/1 67/9/1
f 65/9/2 68/9/2 66/9/2
f 68/9/3 70/9/3 69/9/3
f 70/9/4 72/9/4 71/9/4
f 67/9/5 66/9/5 71/9/5
f 70/9/6 68/9/6 72/9/6
o Cube.026_Cube.001
v 0.406863 4.079822 0.275291
v 0.406863 3.879822 0.275291
v 0.406863 3.879822 0.475291
v 0.506863 4.079822 0.275291
v 0.506863 3.879822 0.275291
v 0.506863 4.079822 0.475291
v 0.506863 3.879822 0.475291
v 0.406863 4.079822 0.475291
vt -0.000000 1.000000
usemtl None.004
s off
f 73/10/1 74/10/1 75/10/1
f 76/10/2 77/10/2 74/10/2
f 78/10/3 79/10/3 77/10/3
f 80/10/4 75/10/4 79/10/4
f 74/10/5 77/10/5 79/10/5
f 76/10/6 73/10/6 80/10/6
f 80/10/1 73/10/1 75/10/1
f 73/10/2 76/10/2 74/10/2
f 76/10/3 78/10/3 77/10/3
f 78/10/4 80/10/4 79/10/4
f 75/10/5 74/10/5 79/10/5
f 78/10/6 76/10/6 80/10/6
o Cube.024_Cube.001
v 0.406863 3.012006 -0.002588
v 0.406863 2.812006 -0.002588
v 0.406863 2.812006 0.197412
v 0.506863 3.012006 -0.002588
v 0.506863 2.812006 -0.002588
v 0.506863 3.012006 0.197412
v 0.506863 2.812006 0.197412
v 0.406863 3.012006 0.197412
vt -0.000000 1.000000
usemtl None.004
s off
f 81/11/1 82/11/1 83/11/1
f 84/11/2 85/11/2 82/11/2
f 86/11/3 87/11/3 85/11/3
f 88/11/4 83/11/4 87/11/4
f 82/11/5 85/11/5 87/11/5
f 84/11/6 81/11/6 88/11/6
f 88/11/1 81/11/1 83/11/1
f 81/11/2 84/11/2 82/11/2
f 84/11/3 86/11/3 85/11/3
f 86/11/4 88/11/4 87/11/4
f 83/11/5 82/11/5 87/11/5
f 86/11/6 84/11/6 88/11/6
o Cube.017_Cube.001
v 0.406863 1.006676 0.527529
v 0.406863 0.806676 0.527529
v 0.406863 0.806676 0.727529
v 0.506863 1.006676 0.527529
v 0.506863 0.806676 0.527529
v 0.506863 1.006676 0.727529
v 0.506863 0.806676 0.727529
v 0.406863 1.006676 0.727529
vt -0.000000 1.000000
usemtl None.004
s off
f 89/12/1 90/12/1 91/12/1
f 92/12/2 93/12/2 90/12/2
f 94/12/3 95/12/3 93/12/3
f 96/12/4 91/12/4 95/12/4
f 90/12/5 93/12/5 95/12/5
f 92/12/6 89/12/6 96/12/6
f 96/12/1 89/12/1 91/12/1
f 89/12/2 92/12/2 90/12/2
f 92/12/3 94/12/3 93/12/3
f 94/12/4 96/12/4 95/12/4
f 91/12/5 90/12/5 95/12/5
f 94/12/6 92/12/6 96/12/6
o Cube.019_Cube.001
v 0.406863 1.572883 -0.347878
v 0.406863 1.372883 -0.347878
v 0.406863 1.372883 -0.147878
v 0.506863 1.572883 -0.347878
v 0.506863 1.372883 -0.347878
v 0.506863 1.572883 -0.147878
v 0.506863 1.372883 -0.147878
v 0.406863 1.572883 -0.147878
vt -0.000000 1.000000
usemtl None.004
s off
f 97/13/1 98/13/1 99/13/1
f 100/13/2 101/13/2 98/13/2
f 102/13/3 103/13/3 101/13/3
f 104/13/4 99/13/4 103/13/4
f 98/13/5 101/13/5 103/13/5
f 100/13/6 97/13/6 104/13/6
f 104/13/1 97/13/1 99/13/1
f 97/13/2 100/13/2 98/13/2
f 100/13/3 102/13/3 101/13/3
f 102/13/4 104/13/4 103/13/4
f 99/13/5 98/13/5 103/13/5
f 102/13/6 100/13/6 104/13/6
o Cube.018_Cube.001
v 0.406863 2.020750 0.673235
v 0.406863 1.820750 0.673235
v 0.406863 1.820750 0.873235
v 0.506863 2.020750 0.673235
v 0.506863 1.820750 0.673235
v 0.506863 2.020750 0.873235
v 0.506863 1.820750 0.873235
v 0.406863 2.020750 0.873235
vt -0.000000 1.000000
usemtl None.175
s off
f 105/14/1 106/14/1 107/14/1
f 108/14/2 109/14/2 106/14/2
f 110/14/3 111/14/3 109/14/3
f 112/14/4 107/14/4 111/14/4
f 106/14/5 109/14/5 111/14/5
f 108/14/6 105/14/6 112/14/6
f 112/14/1 105/14/1 107/14/1
f 105/14/2 108/14/2 106/14/2
f 108/14/3 110/14/3 109/14/3
f 110/14/4 112/14/4 111/14/4
f 107/14/5 106/14/5 111/14/5
f 110/14/6 108/14/6 112/14/6
o Cube.002_Cube.001
v 0.406863 3.498225 0.557101
v 0.406863 3.298226 0.557101
v 0.406863 3.298226 0.757101
v 0.506863 3.498225 0.557101
v 0.506863 3.298226 0.557101
v 0.506863 3.498225 0.757101
v 0.506863 3.298226 0.757101
v 0.406863 3.498225 0.757101
vt -0.000000 1.000000
usemtl None.004
s off
f 113/15/1 114/15/1 115/15/1
f 116/15/2 117/15/2 114/15/2
f 118/15/3 119/15/3 117/15/3
f 120/15/4 115/15/4 119/15/4
f 114/15/5 117/15/5 119/15/5
f 116/15/6 113/15/6 120/15/6
f 120/15/1 113/15/1 115/15/1
f 113/15/2 116/15/2 114/15/2
f 116/15/3 118/15/3 117/15/3
f 118/15/4 120/15/4 119/15/4
f 115/15/5 114/15/5 119/15/5
f 118/15/6 116/15/6 120/15/6
o Cube.023_Cube.001
v 0.406863 3.077406 0.412748
v 0.406863 2.877406 0.412748
v 0.406863 2.877406 0.612748
v 0.506863 3.077406 0.412748
v 0.506863 2.877406 0.412748
v 0.506863 3.077406 0.612748
v 0.506863 2.877406 0.612748
v 0.406863 3.077406 0.612748
vt -0.000000 1.000000
usemtl None.004
s off
f 121/16/1 122/16/1 123/16/1
f 124/16/2 125/16/2 122/16/2
f 126/16/3 127/16/3 125/16/3
f 128/16/4 123/16/4 127/16/4
f 122/16/5 125/16/5 127/16/5
f 124/16/6 121/16/6 128/16/6
f 128/16/1 121/16/1 123/16/1
f 121/16/2 124/16/2 122/16/2
f 124/16/3 126/16/3 125/16/3
f 126/16/4 128/16/4 127/16/4
f 123/16/5 122/16/5 127/16/5
f 126/16/6 124/16/6 128/16/6
o Cube.004_Cube.001
v 0.406863 2.456827 -0.520346
v 0.406863 2.256827 -0.520346
v 0.406863 2.256827 -0.320346
v 0.506863 2.456827 -0.520346
v 0.506863 2.256827 -0.520346
v 0.506863 2.456827 -0.320346
v 0.506863 2.256827 -0.320346
v 0.406863 2.456827 -0.320346
vt -0.000000 1.000000
usemtl None.004
s off
f 129/17/1 130/17/1 131/17/1
f 132/17/2 133/17/2 130/17/2
f 134/17/3 135/17/3 133/17/3
f 136/17/4 131/17/4 135/17/4
f 130/17/5 133/17/5 135/17/5
f 132/17/6 129/17/6 136/17/6
f 136/17/1 129/17/1 131/17/1
f 129/17/2 132/17/2 130/17/2
f 132/17/3 134/17/3 133/17/3
f 134/17/4 136/17/4 135/17/4
f 131/17/5 130/17/5 135/17/5
f 134/17/6 132/17/6 136/17/6
o Cube.015_Cube.001
v 0.406863 0.798643 -0.697648
v 0.406863 0.598643 -0.697648
v 0.406863 0.598643 -0.497648
v 0.506863 0.798643 -0.697648
v 0.506863 0.598643 -0.697648
v 0.506863 0.798643 -0.497648
v 0.506863 0.598643 -0.497648
v 0.406863 0.798643 -0.497648
vt -0.000000 1.000000
usemtl None.004
s off
f 137/18/1 138/18/1 139/18/1
f 140/18/2 141/18/2 138/18/2
f 142/18/3 143/18/3 141/18/3
f 144/18/4 139/18/4 143/18/4
f 138/18/5 141/18/5 143/18/5
f 140/18/6 137/18/6 144/18/6
f 144/18/1 137/18/1 139/18/1
f 137/18/2 140/18/2 138/18/2
f 140/18/3 142/18/3 141/18/3
f 142/18/4 144/18/4 143/18/4
f 139/18/5 138/18/5 143/18/5
f 142/18/6 140/18/6 144/18/6
o Cube.007_Cube.001
v 0.406863 3.200447 -0.460402
v 0.406863 3.000447 -0.460402
v 0.406863 3.000447 -0.260402
v 0.506863 3.200447 -0.460402
v 0.506863 3.000447 -0.460402
v 0.506863 3.200447 -0.260402
v 0.506863 3.000447 -0.260402
v 0.406863 3.200447 -0.260402
vt -0.000000 1.000000
usemtl wire_086086086
s off
f 145/19/1 146/19/1 147/19/1
f 148/19/2 149/19/2 146/19/2
f 150/19/3 151/19/3 149/19/3
f 152/19/4 147/19/4 151/19/4
f 146/19/5 149/19/5 151/19/5
f 148/19/6 145/19/6 152/19/6
f 152/19/1 145/19/1 147/19/1
f 145/19/2 148/19/2 146/19/2
f 148/19/3 150/19/3 149/19/3
f 150/19/4 152/19/4 151/19/4
f 147/19/5 146/19/5 151/19/5
f 150/19/6 148/19/6 152/19/6
