# Blender v2.62 (sub 0) OBJ File: ''
# www.blender.org
mtllib stonesprm.mtl
o Cube_Cube.001
v -0.198587 2.059075 0.641347
v -0.198587 2.059075 1.330763
v -1.098177 2.059075 1.330763
v -1.098177 2.059075 0.641347
v -0.198587 4.059075 0.641347
v -0.198588 4.059075 1.330763
v -1.098177 4.059075 1.330763
v -1.098177 4.059075 0.641347
vn 0.000000 -1.000000 0.000000
vn 0.000000 1.000000 0.000000
vn 1.000000 0.000000 0.000000
vn -0.000000 -0.000000 1.000000
vn -1.000000 -0.000000 -0.000000
vn 0.000000 0.000000 -1.000000
usemtl 
s off
f 1//1 2//1 3//1
f 1//1 3//1 4//1
f 5//2 8//2 7//2
f 5//2 7//2 6//2
f 1//3 5//3 6//3
f 1//3 6//3 2//3
f 2//4 6//4 7//4
f 2//4 7//4 3//4
f 3//5 7//5 8//5
f 3//5 8//5 4//5
f 5//6 1//6 4//6
f 5//6 4//6 8//6
o Mesh.014_Mesh_Group19679.001
v -4.358261 0.107718 -6.745785
v -3.801187 0.107718 -6.912628
v -3.801187 2.068423 -6.912628
v -4.358261 2.068423 -6.745783
v -3.640328 2.068423 -7.398001
v -4.369510 2.068423 -7.386693
v -4.358261 2.068424 -8.120799
v -3.801187 2.068423 -7.953956
v -3.801187 0.107720 -7.953957
v -4.358261 0.107720 -8.120799
v -4.369510 0.107718 -7.386693
v -3.640328 0.107718 -7.398002
v -5.003376 0.107718 -7.398002
v -4.842516 0.107718 -6.912628
v -4.842516 2.068423 -6.912628
v -5.003376 2.068423 -7.398001
v -4.842516 0.107720 -7.953957
v -4.842516 2.068423 -7.953956
vn -0.015595 -0.644185 0.764672
vn 0.548601 -0.616443 0.564776
vn 0.548601 0.616443 0.564776
vn -0.015595 0.644185 0.764672
vn 0.763115 0.646077 0.014618
vn -0.015595 0.644185 -0.764672
vn 0.560930 0.613575 -0.555712
vn 0.560930 -0.613575 -0.555712
vn -0.015595 -0.644185 -0.764672
vn 0.763115 -0.646077 0.014618
vn -0.763115 -0.646077 0.014618
vn -0.558275 -0.619556 0.551744
vn -0.558275 0.619556 0.551744
vn -0.763115 0.646077 0.014618
vn -0.570421 -0.616627 -0.542528
vn -0.570421 0.616627 -0.542528
usemtl None.001
s 1
f 9//7 10//8 11//9
f 12//10 9//7 11//9
f 12//10 11//9 13//11
f 13//11 14//2 12//10
f 15//12 16//13 17//14
f 17//14 18//15 15//12
f 19//1 20//16 10//8
f 10//8 9//7 19//1
f 10//8 20//16 13//11
f 13//11 11//9 10//8
f 21//17 22//18 23//19
f 23//19 24//20 21//17
f 25//21 21//17 24//20
f 24//20 26//22 25//21
f 18//15 17//14 20//16
f 20//16 19//1 18//15
f 13//11 20//16 17//14
f 17//14 16//13 13//11
f 15//12 14//2 13//11
f 13//11 16//13 15//12
f 23//19 12//10 14//2
f 14//2 24//20 23//19
f 22//18 9//7 12//10
f 12//10 23//19 22//18
f 19//1 9//7 21//17
f 9//7 22//18 21//17
f 25//21 18//15 19//1
f 19//1 21//17 25//21
f 26//22 15//12 18//15
f 18//15 25//21 26//22
f 24//20 14//2 15//12
f 15//12 26//22 24//20
o Mesh.013_Mesh.011_Group19709.001
v -4.503783 -0.828973 -4.467667
v -3.946710 -0.828973 -4.634511
v -3.946710 0.266589 -4.634511
v -4.503783 0.266589 -4.467667
v -3.785850 0.266589 -5.119883
v -4.515032 0.266589 -5.108576
v -4.503783 0.266589 -5.842681
v -3.946710 0.266589 -5.675838
v -3.946710 -0.828973 -5.675838
v -4.503783 -0.828973 -5.842681
v -4.515032 -0.828973 -5.108576
v -3.785850 -0.828973 -5.119883
v -5.148898 -0.828973 -5.119883
v -4.988038 -0.828973 -4.634511
v -4.988038 0.266589 -4.634511
v -5.148898 0.266589 -5.119883
v -4.988038 -0.828973 -5.675838
v -4.988038 0.266589 -5.675838
usemtl None.001
s 1
f 27//7 28//8 29//9
f 30//10 27//7 29//9
f 30//10 29//9 31//11
f 31//11 32//2 30//10
f 33//12 34//13 35//14
f 35//14 36//15 33//12
f 37//1 38//16 28//8
f 28//8 27//7 37//1
f 28//8 38//16 31//11
f 31//11 29//9 28//8
f 39//17 40//18 41//19
f 41//19 42//20 39//17
f 43//21 39//17 42//20
f 42//20 44//22 43//21
f 36//15 35//14 38//16
f 38//16 37//1 36//15
f 31//11 38//16 35//14
f 35//14 34//13 31//11
f 33//12 32//2 31//11
f 31//11 34//13 33//12
f 41//19 30//10 32//2
f 32//2 42//20 41//19
f 40//18 27//7 30//10
f 30//10 41//19 40//18
f 37//1 27//7 39//17
f 27//7 40//18 39//17
f 43//21 36//15 37//1
f 37//1 39//17 43//21
f 44//22 33//12 36//15
f 36//15 43//21 44//22
f 42//20 32//2 33//12
f 33//12 44//22 42//20
o Mesh.012_Mesh.014_Group19619.001
v 0.148787 -0.409410 0.368286
v 0.694066 -0.409410 0.204976
v 0.694066 0.991948 0.204976
v 0.148787 0.991948 0.368286
v 0.851520 0.991948 -0.270121
v 0.137777 0.991948 -0.259052
v 0.148787 0.991949 -0.977614
v 0.694066 0.991949 -0.814304
v 0.694066 -0.409410 -0.814304
v 0.148787 -0.409410 -0.977614
v 0.137777 -0.409410 -0.259052
v 0.851520 -0.409410 -0.270121
v -0.482668 -0.409410 -0.270121
v -0.325214 -0.409410 0.204976
v -0.325214 0.991948 0.204976
v -0.482668 0.991948 -0.270121
v -0.325214 -0.409410 -0.814304
v -0.325214 0.991949 -0.814304
usemtl None.001
s 1
f 45//7 46//8 47//9
f 48//10 45//7 47//9
f 48//10 47//9 49//11
f 49//11 50//2 48//10
f 51//12 52//13 53//14
f 53//14 54//15 51//12
f 55//1 56//16 46//8
f 46//8 45//7 55//1
f 46//8 56//16 49//11
f 49//11 47//9 46//8
f 57//17 58//18 59//19
f 59//19 60//20 57//17
f 61//21 57//17 60//20
f 60//20 62//22 61//21
f 54//15 53//14 56//16
f 56//16 55//1 54//15
f 49//11 56//16 53//14
f 53//14 52//13 49//11
f 51//12 50//2 49//11
f 49//11 52//13 51//12
f 59//19 48//10 50//2
f 50//2 60//20 59//19
f 58//18 45//7 48//10
f 48//10 59//19 58//18
f 55//1 45//7 57//17
f 45//7 58//18 57//17
f 61//21 54//15 55//1
f 55//1 57//17 61//21
f 62//22 51//12 54//15
f 54//15 61//21 62//22
f 60//20 50//2 51//12
f 51//12 62//22 60//20
o Mesh.011_Mesh.003_Group19499.001
v -0.561345 0.150061 0.663686
v -0.556047 -0.096052 0.668145
v -1.960744 0.149639 2.039769
v -0.572604 -0.173478 2.042039
v -1.963503 -0.172074 0.665378
v -1.958673 0.160087 0.677543
v -0.558273 0.160284 2.037840
v -1.960465 -0.168251 2.041678
vn 0.053961 -0.996997 -0.055536
vn -0.003767 -0.999989 0.002786
vn 0.001280 0.012525 0.999921
vn -0.000238 0.006003 0.999982
vn -0.999893 0.014590 -0.001408
vn -0.999997 -0.000866 0.002210
vn 0.999767 0.021477 -0.002395
vn 0.999038 -0.042774 0.009629
vn 0.007101 0.999947 -0.007455
vn -0.007579 0.999942 0.007658
vn 0.002940 -0.018048 -0.999833
vn -0.009645 0.036737 -0.999278
usemtl None.001
s off
f 67//23 64//23 66//23
f 70//24 67//24 66//24
f 66//25 69//25 65//25
f 65//26 70//26 66//26
f 65//27 68//27 67//27
f 67//28 70//28 65//28
f 64//29 63//29 69//29
f 69//30 66//30 64//30
f 69//31 63//31 68//31
f 68//32 65//32 69//32
f 63//33 64//33 67//33
f 68//34 63//34 67//34
o Mesh.010_Mesh.009_Group19589.001
v -4.043916 0.466685 -10.651352
v -1.082580 0.311307 -10.651352
v -1.082580 0.311305 -9.078380
v -4.043916 0.466682 -9.078380
v -1.079203 0.375679 -9.020960
v -0.942681 2.977629 -9.020957
v -3.904018 3.133006 -9.020957
v -4.040539 0.531057 -9.020960
v -4.010150 3.138574 -9.078377
v -4.010150 3.138576 -10.651349
v -4.146671 0.536628 -10.651352
v -4.146671 0.536627 -9.078380
v -0.973070 0.370113 -10.651352
v -0.836549 2.972061 -10.651349
v -0.836549 2.972060 -9.078377
v -0.973070 0.370112 -9.078380
v -0.939304 3.042003 -9.078377
v -0.939304 3.042004 -10.651349
v -3.900640 3.197383 -10.651349
v -3.900640 3.197381 -9.078377
v -0.942681 2.977630 -10.708770
v -1.079203 0.375682 -10.708773
v -4.040539 0.531059 -10.708773
v -3.904018 3.133007 -10.708770
vn -0.285806 -0.880123 -0.379009
vn 0.192145 -0.905209 -0.379009
vn 0.192145 -0.905209 0.379009
vn -0.285806 -0.880123 0.379009
vn 0.205054 -0.344432 0.916105
vn 0.239998 0.321085 0.916105
vn -0.205084 0.344432 0.916105
vn -0.239998 -0.321085 0.916105
vn -0.772179 0.458785 0.439528
vn -0.772179 0.458785 -0.439528
vn -0.815943 -0.375469 -0.439528
vn -0.815943 -0.375469 0.439528
vn 0.772179 -0.458815 -0.439528
vn 0.815943 0.375469 -0.439528
vn 0.815943 0.375469 0.439528
vn 0.772179 -0.458785 0.439528
vn 0.285806 0.880123 0.379009
vn 0.285806 0.880123 -0.379009
vn -0.192145 0.905209 -0.379009
vn -0.192145 0.905209 0.379009
vn 0.239998 0.321085 -0.916105
vn 0.205084 -0.344432 -0.916105
vn -0.239998 -0.321085 -0.916105
vn -0.205084 0.344432 -0.916105
usemtl None.001
s 1
f 71//35 72//36 73//37
f 74//38 71//35 73//37
f 75//39 76//40 77//41
f 77//41 78//42 75//39
f 79//43 80//44 81//45
f 81//45 82//46 79//43
f 83//47 84//48 85//49
f 85//49 86//50 83//47
f 87//51 88//52 89//53
f 89//53 90//54 87//51
f 91//55 92//56 93//57
f 93//57 94//58 91//55
f 74//38 82//46 81//45
f 81//45 71//35 74//38
f 78//42 74//38 73//37
f 73//37 75//39 78//42
f 82//46 78//42 77//41
f 77//41 79//43 82//46
f 86//50 73//37 72//36
f 72//36 83//47 86//50
f 75//39 86//50 85//49
f 85//49 76//40 75//39
f 79//43 90//54 89//53
f 89//53 80//44 79//43
f 90//54 77//41 76//40
f 76//40 87//51 90//54
f 87//51 85//49 84//48
f 84//48 88//52 87//51
f 80//44 94//58 93//57
f 93//57 81//45 80//44
f 94//58 89//53 88//52
f 88//52 91//55 94//58
f 91//55 84//48 83//47
f 83//47 92//56 91//55
f 71//35 93//57 92//56
f 72//36 71//35 92//56
f 82//46 74//38 78//42
f 73//37 86//50 75//39
f 90//54 79//43 77//41
f 85//49 87//51 76//40
f 94//58 80//44 89//53
f 84//48 91//55 88//52
f 71//35 81//45 93//57
f 83//47 72//36 92//56
o Mesh.008_Mesh.002_Group19559.001
v -2.757742 0.650569 -8.032216
v -1.698682 0.650569 -8.032216
v -1.698682 0.650569 -6.996264
v -2.757742 0.650569 -6.996264
v -1.698682 0.715032 -6.958446
v -1.698682 1.036302 -6.958446
v -2.757742 1.036302 -6.958446
v -2.757742 0.715032 -6.958446
v -2.795698 1.036302 -6.996264
v -2.795698 1.036302 -8.032216
v -2.795698 0.715032 -8.032216
v -2.795698 0.715032 -6.996264
v -1.660726 0.715032 -8.032216
v -1.660726 1.036302 -8.032216
v -1.660726 1.036302 -6.996264
v -1.660726 0.715032 -6.996264
v -1.698682 1.100765 -6.996264
v -1.698682 1.100765 -8.032216
v -2.757742 1.100765 -8.032216
v -2.757742 1.100765 -6.996264
v -1.698682 1.036302 -8.070034
v -1.698682 0.715032 -8.070034
v -2.757742 0.715032 -8.070034
v -2.757742 1.036302 -8.070034
vn -0.424848 -0.798975 -0.425550
vn 0.424848 -0.798975 -0.425550
vn 0.424848 -0.798975 0.425550
vn -0.424848 -0.798975 0.425550
vn 0.355022 -0.235664 0.904630
vn 0.355022 0.235664 0.904630
vn -0.355022 0.235664 0.904630
vn -0.355022 -0.235664 0.904630
vn -0.903928 0.236183 0.356487
vn -0.903928 0.236183 -0.356487
vn -0.903928 -0.236183 -0.356487
vn -0.903928 -0.236183 0.356487
vn 0.903928 -0.236183 -0.356487
vn 0.903928 0.236183 -0.356487
vn 0.903928 0.236183 0.356487
vn 0.903928 -0.236183 0.356487
vn 0.424848 0.798975 0.425550
vn 0.424848 0.798975 -0.425550
vn -0.424848 0.798975 -0.425550
vn -0.424848 0.798975 0.425550
vn 0.355022 0.235664 -0.904630
vn 0.355022 -0.235664 -0.904630
vn -0.355022 -0.235664 -0.904630
vn -0.355022 0.235664 -0.904630
usemtl None.001
s 1
f 95//59 96//60 97//61
f 98//62 95//59 97//61
f 99//63 100//64 101//65
f 101//65 102//66 99//63
f 103//67 104//68 105//69
f 105//69 106//70 103//67
f 107//71 108//72 109//73
f 109//73 110//74 107//71
f 111//75 112//76 113//77
f 113//77 114//78 111//75
f 115//79 116//80 117//81
f 117//81 118//82 115//79
f 98//62 106//70 105//69
f 105//69 95//59 98//62
f 102//66 98//62 97//61
f 97//61 99//63 102//66
f 106//70 102//66 101//65
f 101//65 103//67 106//70
f 110//74 97//61 96//60
f 96//60 107//71 110//74
f 99//63 110//74 109//73
f 109//73 100//64 99//63
f 103//67 114//78 113//77
f 113//77 104//68 103//67
f 114//78 101//65 100//64
f 100//64 111//75 114//78
f 111//75 109//73 108//72
f 108//72 112//76 111//75
f 104//68 118//82 117//81
f 117//81 105//69 104//68
f 118//82 113//77 112//76
f 112//76 115//79 118//82
f 115//79 108//72 107//71
f 107//71 116//80 115//79
f 95//59 117//81 116//80
f 96//60 95//59 116//80
f 106//70 98//62 102//66
f 97//61 110//74 99//63
f 114//78 103//67 101//65
f 109//73 111//75 100//64
f 118//82 104//68 113//77
f 108//72 115//79 112//76
f 95//59 105//69 117//81
f 107//71 96//60 116//80
o Mesh.007_Mesh.007_Group19664.001
v -1.209226 -0.162660 -5.368372
v -0.652153 -0.162660 -5.535215
v -0.652153 0.932902 -5.535215
v -1.209226 0.932902 -5.368372
v -0.491293 0.932902 -6.020588
v -1.220475 0.932902 -6.009281
v -1.209226 0.932902 -6.743387
v -0.652153 0.932902 -6.576544
v -0.652153 -0.162660 -6.576544
v -1.209226 -0.162660 -6.743387
v -1.220475 -0.162660 -6.009281
v -0.491293 -0.162660 -6.020588
v -1.854341 -0.162660 -6.020588
v -1.693481 -0.162660 -5.535215
v -1.693481 0.932902 -5.535215
v -1.854341 0.932902 -6.020588
v -1.693481 -0.162660 -6.576544
v -1.693481 0.932902 -6.576544
usemtl None.001
s 1
f 119//7 120//8 121//9
f 122//10 119//7 121//9
f 122//10 121//9 123//11
f 123//11 124//2 122//10
f 125//12 126//13 127//14
f 127//14 128//15 125//12
f 129//1 130//16 120//8
f 120//8 119//7 129//1
f 120//8 130//16 123//11
f 123//11 121//9 120//8
f 131//17 132//18 133//19
f 133//19 134//20 131//17
f 135//21 131//17 134//20
f 134//20 136//22 135//21
f 128//15 127//14 130//16
f 130//16 129//1 128//15
f 123//11 130//16 127//14
f 127//14 126//13 123//11
f 125//12 124//2 123//11
f 123//11 126//13 125//12
f 133//19 122//10 124//2
f 124//2 134//20 133//19
f 132//18 119//7 122//10
f 122//10 133//19 132//18
f 129//1 119//7 131//17
f 119//7 132//18 131//17
f 135//21 128//15 129//1
f 129//1 131//17 135//21
f 136//22 125//12 128//15
f 128//15 135//21 136//22
f 134//20 124//2 125//12
f 125//12 136//22 134//20
o Mesh.006_Mesh.005_Group19649.001
v -4.236379 -0.819059 0.181501
v -3.310024 -0.778881 0.285748
v -3.284801 -0.788774 1.353192
v -4.421566 0.546664 1.308117
v -3.169907 0.622724 1.177443
v -4.430431 -0.840893 1.207918
v -4.137767 0.599436 0.137791
v -3.310024 0.622477 0.285748
vn 0.044486 -0.998957 -0.010309
vn 0.096213 0.115269 0.988664
vn 0.996159 -0.084113 -0.024319
vn -0.982480 0.019660 -0.185327
vn 0.175958 0.000000 -0.984398
vn 0.113393 -0.038476 -0.992805
vn -0.057393 0.997868 0.031078
vn -0.970685 0.060312 -0.232667
vn -0.122318 -0.070707 0.989969
vn 0.987878 0.000000 -0.155230
vn 0.047008 -0.998818 -0.012360
vn -0.028578 0.999583 0.004213
usemtl None.001
s off
f 137//83 138//83 139//83
f 140//84 139//84 141//84
f 141//85 139//85 138//85
f 137//86 142//86 140//86
f 143//87 144//87 138//87
f 138//88 137//88 143//88
f 143//89 140//89 141//89
f 143//90 137//90 140//90
f 142//91 139//91 140//91
f 138//92 144//92 141//92
f 142//93 137//93 139//93
f 141//94 144//94 143//94
o Mesh.005_Mesh.012_Group19634.001
v -0.580898 -0.855024 -1.867298
v -0.035619 -0.855024 -2.030607
v -0.035619 0.496893 -2.030607
v -0.580898 0.496893 -1.867297
v 0.121835 0.496895 -2.505704
v -0.591908 0.496895 -2.494635
v -0.580898 0.496896 -3.213196
v -0.035619 0.496895 -3.049887
v -0.035619 -0.855023 -3.049888
v -0.580898 -0.855022 -3.213197
v -0.591908 -0.855023 -2.494636
v 0.121835 -0.855023 -2.505705
v -1.212353 -0.855023 -2.505705
v -1.054899 -0.855024 -2.030607
v -1.054899 0.496893 -2.030607
v -1.212353 0.496895 -2.505704
v -1.054899 -0.855023 -3.049888
v -1.054899 0.496895 -3.049887
vn -0.763085 0.646077 0.014618
usemtl None.001
s 1
f 145//7 146//8 147//9
f 148//10 145//7 147//9
f 148//10 147//9 149//11
f 149//11 150//2 148//10
f 151//12 152//13 153//14
f 153//14 154//15 151//12
f 155//1 156//16 146//8
f 146//8 145//7 155//1
f 146//8 156//16 149//11
f 149//11 147//9 146//8
f 157//17 158//18 159//19
f 159//19 160//95 157//17
f 161//21 157//17 160//95
f 160//95 162//22 161//21
f 154//15 153//14 156//16
f 156//16 155//1 154//15
f 149//11 156//16 153//14
f 153//14 152//13 149//11
f 151//12 150//2 149//11
f 149//11 152//13 151//12
f 159//19 148//10 150//2
f 150//2 160//95 159//19
f 158//18 145//7 148//10
f 148//10 159//19 158//18
f 155//1 145//7 157//17
f 145//7 158//18 157//17
f 161//21 154//15 155//1
f 155//1 157//17 161//21
f 162//22 151//12 154//15
f 154//15 161//21 162//22
f 160//95 150//2 151//12
f 151//12 162//22 160//95
o Mesh.004_Mesh.013_Group19724.001
v -3.431845 0.616757 -2.073156
v -4.402985 0.616758 -1.850901
v -3.787396 -0.881624 -2.205729
v -4.196284 0.616755 -0.830643
v -3.135489 0.616756 -1.061092
v -4.396035 -0.881624 -1.031581
v -3.248490 -0.881624 -0.885675
vn -0.860123 -0.247786 -0.445859
vn 0.211269 0.097920 0.972511
vn 0.940543 -0.198813 -0.275414
vn -0.000001 1.000000 0.000003
vn 0.000001 1.000000 0.000000
vn -0.974828 0.103471 0.197497
vn -0.220962 0.137857 -0.965490
vn 0.919856 -0.113335 -0.375527
vn -0.125288 -0.115441 0.985381
usemtl None.001
s off
f 165//96 168//96 164//96
f 166//97 169//97 167//97
f 165//98 163//98 167//98
f 167//99 164//99 166//99
f 163//100 164//100 167//100
f 166//101 164//101 168//101
f 164//102 163//102 165//102
f 167//103 169//103 165//103
f 168//104 169//104 166//104
f 169//1 168//1 165//1
o Mesh.003_Mesh.010_Group19514.001
v -2.791214 -0.103551 -1.742900
v -1.405232 -0.072860 -1.762233
v -1.412294 0.754103 -1.769263
v -1.414878 -0.082497 -0.388692
v -2.810061 0.765615 -1.761632
v -1.407194 0.763704 -0.396343
v -2.824533 -0.037787 -1.773849
v -2.812284 -0.075435 -0.392166
v -2.816372 0.751211 -0.388113
vn 0.022042 -0.999734 -0.006860
vn -0.005104 -0.999772 0.020731
vn 0.005760 0.008988 0.999943
vn -0.002511 -0.004915 0.999985
vn -0.999827 0.018077 -0.004404
vn -0.999950 -0.004987 0.008729
vn 0.999957 0.008507 -0.003774
vn 0.999935 -0.009017 0.006959
vn 0.008197 0.999942 -0.007024
vn -0.008804 0.999907 0.010446
vn 0.007975 -0.008432 -0.999933
vn -0.005333 0.015300 -0.999869
vn -0.003155 -0.427115 -0.904192
vn -0.891187 -0.453615 -0.004460
usemtl None.001
s off
f 170//105 171//105 173//105
f 177//106 170//106 173//106
f 173//107 175//107 178//107
f 178//108 177//108 173//108
f 178//109 174//109 176//109
f 176//110 177//110 178//110
f 171//111 172//111 175//111
f 175//112 173//112 171//112
f 175//113 172//113 174//113
f 174//114 178//114 175//114
f 172//115 171//115 176//115
f 176//116 174//116 172//116
f 170//117 176//117 171//117
f 176//118 170//118 177//118
o Mesh.002_Mesh.001_Group19574.001
v -3.355430 1.900957 -8.902094
v -2.296370 1.900957 -8.902094
v -2.296370 1.900957 -7.797948
v -3.355430 1.900957 -7.797948
v -2.296370 1.965420 -7.757641
v -2.296370 2.094372 -7.757641
v -3.355430 2.094372 -7.757641
v -3.355430 1.965420 -7.757641
v -3.393386 2.094372 -7.797948
v -3.393386 2.094373 -8.902094
v -3.393386 1.965420 -8.902094
v -3.393386 1.965420 -7.797948
v -2.258414 1.965420 -8.902094
v -2.258414 2.094373 -8.902094
v -2.258414 2.094372 -7.797948
v -2.258414 1.965420 -7.797948
v -2.296370 2.158836 -7.797948
v -2.296370 2.158836 -8.902094
v -3.355430 2.158836 -8.902094
v -3.355430 2.158836 -7.797948
v -2.296370 2.094373 -8.942401
v -2.296370 1.965420 -8.942401
v -3.355430 1.965420 -8.942401
v -3.355430 2.094373 -8.942401
vn -0.426649 -0.803613 -0.414899
vn 0.426649 -0.803613 -0.414899
vn 0.426649 -0.803613 0.414899
vn -0.426649 -0.803613 0.414899
vn 0.366741 -0.246254 0.897122
vn 0.366741 0.246254 0.897122
vn -0.366741 0.246254 0.897122
vn -0.366741 -0.246254 0.897122
vn -0.908750 0.237526 0.343059
vn -0.908750 0.237526 -0.343059
vn -0.908750 -0.237526 -0.343059
vn -0.908750 -0.237526 0.343059
vn 0.908750 -0.237526 -0.343059
vn 0.908750 0.237526 -0.343059
vn 0.908750 0.237526 0.343059
vn 0.908750 -0.237526 0.343059
vn 0.426649 0.803613 0.414899
vn 0.426649 0.803613 -0.414899
vn -0.426649 0.803613 -0.414899
vn -0.426649 0.803613 0.414899
vn 0.366741 0.246254 -0.897122
vn 0.366741 -0.246254 -0.897122
vn -0.366741 -0.246254 -0.897122
vn -0.366741 0.246254 -0.897122
usemtl None.001
s 1
f 179//119 180//120 181//121
f 182//122 179//119 181//121
f 183//123 184//124 185//125
f 185//125 186//126 183//123
f 187//127 188//128 189//129
f 189//129 190//130 187//127
f 191//131 192//132 193//133
f 193//133 194//134 191//131
f 195//135 196//136 197//137
f 197//137 198//138 195//135
f 199//139 200//140 201//141
f 201//141 202//142 199//139
f 182//122 190//130 189//129
f 189//129 179//119 182//122
f 186//126 182//122 181//121
f 181//121 183//123 186//126
f 190//130 186//126 185//125
f 185//125 187//127 190//130
f 194//134 181//121 180//120
f 180//120 191//131 194//134
f 183//123 194//134 193//133
f 193//133 184//124 183//123
f 187//127 198//138 197//137
f 197//137 188//128 187//127
f 198//138 185//125 184//124
f 184//124 195//135 198//138
f 195//135 193//133 192//132
f 192//132 196//136 195//135
f 188//128 202//142 201//141
f 201//141 189//129 188//128
f 202//142 197//137 196//136
f 196//136 199//139 202//142
f 199//139 192//132 191//131
f 191//131 200//140 199//139
f 179//119 201//141 200//140
f 180//120 179//119 200//140
f 190//130 182//122 186//126
f 181//121 194//134 183//123
f 198//138 187//127 185//125
f 193//133 195//135 184//124
f 202//142 188//128 197//137
f 192//132 199//139 196//136
f 179//119 189//129 201//141
f 191//131 180//120 200//140
o Mesh.001_Mesh.006_Group19544.001
v -3.573399 -0.012921 -6.828287
v -2.392820 -0.012921 -6.828287
v -2.392820 -0.012922 -5.498495
v -3.573399 -0.012922 -5.498495
v -2.392820 0.064354 -5.449950
v -2.392820 0.218937 -5.449950
v -3.573399 0.218937 -5.449950
v -3.573399 0.064354 -5.449950
v -3.615710 0.218937 -5.498495
v -3.615710 0.218938 -6.828287
v -3.615710 0.064355 -6.828287
v -3.615710 0.064354 -5.498495
v -2.350509 0.064355 -6.828287
v -2.350509 0.218938 -6.828287
v -2.350509 0.218937 -5.498495
v -2.350509 0.064354 -5.498495
v -2.392820 0.296213 -5.498495
v -2.392820 0.296214 -6.828287
v -3.573399 0.296214 -6.828287
v -3.573399 0.296213 -5.498495
v -2.392820 0.218938 -6.876831
v -2.392820 0.064355 -6.876831
v -3.573399 0.064355 -6.876831
v -3.573399 0.218938 -6.876831
vn -0.438459 -0.798639 -0.412152
vn 0.438459 -0.798639 -0.412152
vn 0.438459 -0.798639 0.412152
vn -0.438459 -0.798639 0.412152
vn 0.382519 -0.245399 0.890713
vn 0.382519 0.245399 0.890713
vn -0.382519 0.245399 0.890713
vn -0.382519 -0.245399 0.890713
vn -0.917203 0.225684 0.328318
vn -0.917173 0.225684 -0.328318
vn -0.917173 -0.225684 -0.328318
vn -0.917203 -0.225684 0.328318
vn 0.917173 -0.225684 -0.328318
vn 0.917173 0.225684 -0.328318
vn 0.917203 0.225684 0.328318
vn 0.917203 -0.225684 0.328318
vn 0.438459 0.798639 0.412152
vn 0.438459 0.798639 -0.412152
vn -0.438459 0.798639 -0.412152
vn -0.438459 0.798639 0.412152
vn 0.382519 0.245399 -0.890744
vn 0.382519 -0.245399 -0.890744
vn -0.382519 -0.245399 -0.890744
vn -0.382519 0.245399 -0.890744
usemtl None.001
s 1
f 203//143 204//144 205//145
f 206//146 203//143 205//145
f 207//147 208//148 209//149
f 209//149 210//150 207//147
f 211//151 212//152 213//153
f 213//153 214//154 211//151
f 215//155 216//156 217//157
f 217//157 218//158 215//155
f 219//159 220//160 221//161
f 221//161 222//162 219//159
f 223//163 224//164 225//165
f 225//165 226//166 223//163
f 206//146 214//154 213//153
f 213//153 203//143 206//146
f 210//150 206//146 205//145
f 205//145 207//147 210//150
f 214//154 210//150 209//149
f 209//149 211//151 214//154
f 218//158 205//145 204//144
f 204//144 215//155 218//158
f 207//147 218//158 217//157
f 217//157 208//148 207//147
f 211//151 222//162 221//161
f 221//161 212//152 211//151
f 222//162 209//149 208//148
f 208//148 219//159 222//162
f 219//159 217//157 216//156
f 216//156 220//160 219//159
f 212//152 226//166 225//165
f 225//165 213//153 212//152
f 226//166 221//161 220//160
f 220//160 223//163 226//166
f 223//163 216//156 215//155
f 215//155 224//164 223//163
f 203//143 225//165 224//164
f 204//144 203//143 224//164
f 214//154 206//146 210//150
f 205//145 218//158 207//147
f 222//162 211//151 209//149
f 217//157 219//159 208//148
f 226//166 212//152 221//161
f 216//156 223//163 220//160
f 203//143 213//153 225//165
f 215//155 204//144 224//164
o Mesh_Mesh.004_Group19694.001
v -2.734145 0.028221 2.417719
v -2.690751 0.074610 2.327984
v -0.023693 0.040142 5.393991
v -2.718091 0.247639 2.370639
v -0.020942 0.236945 2.354825
v -2.725217 0.234191 5.393992
v -2.720339 0.045020 5.384360
v -0.012162 0.245722 5.376841
v -0.010248 0.047269 2.370639
vn 0.006953 -0.999973 -0.002326
vn -0.001829 -0.999982 0.005671
vn 0.005948 0.082803 0.996548
vn -0.003659 -0.050945 0.998695
vn -0.997364 0.072538 -0.002028
vn -0.999650 -0.026022 0.004800
vn 0.998424 0.056034 -0.003063
vn 0.998441 -0.055641 0.004309
vn 0.003948 0.999988 -0.002916
vn -0.004222 0.999981 0.004438
vn 0.015019 -0.082237 -0.996500
vn -0.004748 0.238644 -0.971096
vn -0.001739 -0.887977 -0.459885
vn -0.893514 -0.030747 -0.447983
usemtl None.001
s off
f 227//167 235//167 229//167
f 233//168 227//168 229//168
f 229//169 234//169 232//169
f 232//170 233//170 229//170
f 230//171 227//171 232//171
f 227//172 233//172 232//172
f 235//173 231//173 234//173
f 234//174 229//174 235//174
f 234//175 231//175 230//175
f 230//176 232//176 234//176
f 231//177 235//177 228//177
f 228//178 230//178 231//178
f 227//179 228//179 235//179
f 228//180 227//180 230//180
