# Blender v2.62 (sub 0) OBJ File: ''
# www.blender.org
mtllib stonesprm.mtl
o Mesh.015_Cube_Cube.000
v 3.722787 5.696054 -3.994968
v 3.722787 5.696054 -3.305552
v -5.123898 5.696054 -3.305552
v -5.123898 5.696054 -3.994968
v 3.722787 6.137544 -3.994968
v -5.123898 6.137544 -3.994968
v -5.123898 6.137543 -3.305552
v 3.722777 6.137543 -3.305552
vn 0.000000 -1.000000 -0.000001
vn -0.000000 1.000000 0.000001
vn 1.000000 0.000000 0.000015
vn 1.000000 0.000023 0.000000
vn -0.000000 0.000000 1.000000
vn -1.000000 0.000000 0.000000
vn 0.000000 0.000000 -1.000000
usemtl 
s off
f 1//1 2//1 3//1
f 1//1 3//1 4//1
f 5//2 6//2 7//2
f 5//2 7//2 8//2
f 1//3 5//3 8//3
f 1//4 8//4 2//4
f 2//5 8//5 7//5
f 2//5 7//5 3//5
f 3//6 7//6 6//6
f 3//6 6//6 4//6
f 5//7 1//7 4//7
f 5//7 4//7 6//7
o Mesh.014_Mesh.007_Mesh.007_Group19664.001
v -1.209226 -0.162659 -5.368372
v -0.652153 -0.162659 -5.535215
v -0.652153 0.932903 -5.535215
v -1.209226 0.932903 -5.368372
v -0.491293 0.932903 -6.020588
v -1.220475 0.932903 -6.009281
v -1.209226 0.932903 -6.743387
v -0.652153 0.932903 -6.576544
v -0.652153 -0.162659 -6.576544
v -1.209226 -0.162659 -6.743387
v -1.220475 -0.162659 -6.009281
v -0.491293 -0.162659 -6.020588
v -1.854341 -0.162659 -6.020588
v -1.693481 -0.162659 -5.535215
v -1.693481 0.932903 -5.535215
v -1.854341 0.932903 -6.020588
v -1.693481 -0.162659 -6.576544
v -1.693481 0.932903 -6.576544
vn -0.015595 -0.644185 0.764672
vn 0.548601 -0.616443 0.564776
vn 0.548601 0.616443 0.564776
vn -0.015595 0.644185 0.764672
vn 0.763115 0.646077 0.014618
vn 0.000000 1.000000 0.000000
vn -0.015595 0.644185 -0.764672
vn 0.560930 0.613575 -0.555712
vn 0.560930 -0.613575 -0.555712
vn -0.015595 -0.644185 -0.764672
vn 0.000000 -1.000000 0.000000
vn 0.763115 -0.646077 0.014618
vn -0.763115 -0.646077 0.014618
vn -0.558275 -0.619556 0.551744
vn -0.558275 0.619556 0.551744
vn -0.763115 0.646077 0.014618
vn -0.570421 -0.616627 -0.542528
vn -0.570421 0.616627 -0.542528
usemtl None.001
s 1
f 9//8 10//9 11//10
f 12//11 9//8 11//10
f 12//11 11//10 13//12
f 13//12 14//13 12//11
f 15//14 16//15 17//16
f 17//16 18//17 15//14
f 19//18 20//19 10//9
f 10//9 9//8 19//18
f 10//9 20//19 13//12
f 13//12 11//10 10//9
f 21//20 22//21 23//22
f 23//22 24//23 21//20
f 25//24 21//20 24//23
f 24//23 26//25 25//24
f 18//17 17//16 20//19
f 20//19 19//18 18//17
f 13//12 20//19 17//16
f 17//16 16//15 13//12
f 15//14 14//13 13//12
f 13//12 16//15 15//14
f 23//22 12//11 14//13
f 14//13 24//23 23//22
f 22//21 9//8 12//11
f 12//11 23//22 22//21
f 19//18 9//8 21//20
f 9//8 22//21 21//20
f 25//24 18//17 19//18
f 19//18 21//20 25//24
f 26//25 15//14 18//17
f 18//17 25//24 26//25
f 24//23 14//13 15//14
f 15//14 26//25 24//23
o Mesh.013_Mesh_Mesh.004_Group19694.001
v -2.734145 0.028221 2.417719
v -0.010248 0.047269 2.370639
v -0.023693 0.040141 5.393991
v -2.720339 0.045019 5.384360
v -0.012162 0.245721 5.376841
v -2.725217 0.234190 5.393992
v -2.718091 0.247639 2.370639
v -0.020942 0.236945 2.354825
v -2.690751 0.074610 2.327984
vn 0.006953 -0.999973 -0.002326
vn -0.001829 -0.999982 0.005671
vn 0.005948 0.082801 0.996548
vn -0.003659 -0.050945 0.998695
vn -0.997364 0.072538 -0.002028
vn -0.999650 -0.026022 0.004799
vn 0.998424 0.056036 -0.003064
vn 0.998441 -0.055643 0.004309
vn 0.003948 0.999988 -0.002916
vn -0.004222 0.999981 0.004438
vn 0.015019 -0.082236 -0.996500
vn -0.004748 0.238644 -0.971096
vn -0.001739 -0.887976 -0.459886
vn -0.893515 -0.030747 -0.447980
usemtl None.001
s off
f 27//26 28//26 29//26
f 30//27 27//27 29//27
f 29//28 31//28 32//28
f 32//29 30//29 29//29
f 33//30 27//30 32//30
f 27//31 30//31 32//31
f 28//32 34//32 31//32
f 31//33 29//33 28//33
f 31//34 34//34 33//34
f 33//35 32//35 31//35
f 34//36 28//36 35//36
f 35//37 33//37 34//37
f 27//38 35//38 28//38
f 35//39 27//39 33//39
o Mesh.012_Mesh.010_Mesh.009_Group19589.001
v -4.043916 0.466687 -10.651352
v -1.082580 0.311309 -10.651352
v -1.082580 0.311306 -9.078380
v -4.043916 0.466683 -9.078380
v -1.079203 0.375680 -9.020960
v -0.942681 2.977630 -9.020956
v -3.904018 3.133008 -9.020956
v -4.040539 0.531058 -9.020960
v -4.010150 3.138575 -9.078376
v -4.010150 3.138578 -10.651348
v -4.146671 0.536630 -10.651352
v -4.146671 0.536628 -9.078380
v -0.973070 0.370115 -10.651352
v -0.836549 2.972063 -10.651348
v -0.836549 2.972061 -9.078376
v -0.973070 0.370113 -9.078380
v -0.939304 3.042004 -9.078376
v -0.939304 3.042006 -10.651348
v -3.900640 3.197385 -10.651348
v -3.900640 3.197382 -9.078376
v -0.942681 2.977632 -10.708769
v -1.079203 0.375684 -10.708773
v -4.040539 0.531061 -10.708773
v -3.904018 3.133009 -10.708769
vn -0.285806 -0.880123 -0.379009
vn 0.192145 -0.905209 -0.379009
vn 0.192145 -0.905209 0.379009
vn -0.285806 -0.880123 0.379009
vn 0.205054 -0.344432 0.916105
vn 0.239998 0.321085 0.916105
vn -0.205084 0.344432 0.916105
vn -0.239998 -0.321085 0.916105
vn -0.772179 0.458785 0.439528
vn -0.772179 0.458815 -0.439528
vn -0.815943 -0.375469 -0.439528
vn -0.815943 -0.375469 0.439528
vn 0.772179 -0.458815 -0.439528
vn 0.815943 0.375469 -0.439528
vn 0.815943 0.375469 0.439528
vn 0.772179 -0.458785 0.439528
vn 0.285806 0.880123 0.379009
vn 0.285806 0.880123 -0.379009
vn -0.192145 0.905209 -0.379009
vn -0.192145 0.905209 0.379009
vn 0.239998 0.321085 -0.916105
vn 0.205084 -0.344432 -0.916105
vn -0.239998 -0.321085 -0.916105
vn -0.205084 0.344432 -0.916105
usemtl None.001
s 1
f 36//40 37//41 38//42
f 39//43 36//40 38//42
f 40//44 41//45 42//46
f 42//46 43//47 40//44
f 44//48 45//49 46//50
f 46//50 47//51 44//48
f 48//52 49//53 50//54
f 50//54 51//55 48//52
f 52//56 53//57 54//58
f 54//58 55//59 52//56
f 56//60 57//61 58//62
f 58//62 59//63 56//60
f 39//43 47//51 46//50
f 46//50 36//40 39//43
f 43//47 39//43 38//42
f 38//42 40//44 43//47
f 47//51 43//47 42//46
f 42//46 44//48 47//51
f 51//55 38//42 37//41
f 37//41 48//52 51//55
f 40//44 51//55 50//54
f 50//54 41//45 40//44
f 44//48 55//59 54//58
f 54//58 45//49 44//48
f 55//59 42//46 41//45
f 41//45 52//56 55//59
f 52//56 50//54 49//53
f 49//53 53//57 52//56
f 45//49 59//63 58//62
f 58//62 46//50 45//49
f 59//63 54//58 53//57
f 53//57 56//60 59//63
f 56//60 49//53 48//52
f 48//52 57//61 56//60
f 36//40 58//62 57//61
f 37//41 36//40 57//61
f 47//51 39//43 43//47
f 38//42 51//55 40//44
f 55//59 44//48 42//46
f 50//54 52//56 41//45
f 59//63 45//49 54//58
f 49//53 56//60 53//57
f 36//40 46//50 58//62
f 48//52 37//41 57//61
o Mesh.011_Mesh.005_Mesh.012_Group19634.001
v -0.580898 -0.855024 -1.867298
v -0.035619 -0.855024 -2.030607
v -0.035619 0.496893 -2.030607
v -0.580898 0.496893 -1.867297
v 0.121835 0.496895 -2.505704
v -0.591908 0.496895 -2.494635
v -0.580898 0.496897 -3.213196
v -0.035619 0.496895 -3.049887
v -0.035619 -0.855023 -3.049888
v -0.580898 -0.855021 -3.213197
v -0.591908 -0.855023 -2.494636
v 0.121835 -0.855023 -2.505705
v -1.212353 -0.855023 -2.505705
v -1.054899 -0.855024 -2.030607
v -1.054899 0.496893 -2.030607
v -1.212353 0.496895 -2.505704
v -1.054899 -0.855023 -3.049888
v -1.054899 0.496895 -3.049887
usemtl None.001
s 1
f 60//8 61//9 62//10
f 63//11 60//8 62//10
f 63//11 62//10 64//12
f 64//12 65//13 63//11
f 66//14 67//15 68//16
f 68//16 69//17 66//14
f 70//18 71//19 61//9
f 61//9 60//8 70//18
f 61//9 71//19 64//12
f 64//12 62//10 61//9
f 72//20 73//21 74//22
f 74//22 75//23 72//20
f 76//24 72//20 75//23
f 75//23 77//25 76//24
f 69//17 68//16 71//19
f 71//19 70//18 69//17
f 64//12 71//19 68//16
f 68//16 67//15 64//12
f 66//14 65//13 64//12
f 64//12 67//15 66//14
f 74//22 63//11 65//13
f 65//13 75//23 74//22
f 73//21 60//8 63//11
f 63//11 74//22 73//21
f 70//18 60//8 72//20
f 60//8 73//21 72//20
f 76//24 69//17 70//18
f 70//18 72//20 76//24
f 77//25 66//14 69//17
f 69//17 76//24 77//25
f 75//23 65//13 66//14
f 66//14 77//25 75//23
o Mesh.010_Mesh.012_Mesh.014_Group19619.001
v 0.148787 -0.409410 0.368286
v 0.694066 -0.409410 0.204976
v 0.694066 0.991948 0.204976
v 0.148787 0.991948 0.368286
v 0.851520 0.991948 -0.270121
v 0.137777 0.991948 -0.259052
v 0.148787 0.991949 -0.977614
v 0.694066 0.991949 -0.814304
v 0.694066 -0.409410 -0.814304
v 0.148787 -0.409410 -0.977614
v 0.137777 -0.409410 -0.259052
v 0.851520 -0.409410 -0.270121
v -0.482668 -0.409410 -0.270121
v -0.325214 -0.409410 0.204976
v -0.325214 0.991948 0.204976
v -0.482668 0.991948 -0.270121
v -0.325214 -0.409410 -0.814304
v -0.325214 0.991949 -0.814304
usemtl None.001
s 1
f 78//8 79//9 80//10
f 81//11 78//8 80//10
f 81//11 80//10 82//12
f 82//12 83//13 81//11
f 84//14 85//15 86//16
f 86//16 87//17 84//14
f 88//18 89//19 79//9
f 79//9 78//8 88//18
f 79//9 89//19 82//12
f 82//12 80//10 79//9
f 90//20 91//21 92//22
f 92//22 93//23 90//20
f 94//24 90//20 93//23
f 93//23 95//25 94//24
f 87//17 86//16 89//19
f 89//19 88//18 87//17
f 82//12 89//19 86//16
f 86//16 85//15 82//12
f 84//14 83//13 82//12
f 82//12 85//15 84//14
f 92//22 81//11 83//13
f 83//13 93//23 92//22
f 91//21 78//8 81//11
f 81//11 92//22 91//21
f 88//18 78//8 90//20
f 78//8 91//21 90//20
f 94//24 87//17 88//18
f 88//18 90//20 94//24
f 95//25 84//14 87//17
f 87//17 94//24 95//25
f 93//23 83//13 84//14
f 84//14 95//25 93//23
o Mesh.009_Mesh.014_Mesh_Group19679.001
v -4.358261 0.107719 -6.745785
v -3.801187 0.107719 -6.912628
v -3.801187 2.068424 -6.912628
v -4.358261 2.068424 -6.745782
v -3.640328 2.068424 -7.398001
v -4.369510 2.068424 -7.386693
v -4.358261 2.068425 -8.120799
v -3.801187 2.068424 -7.953956
v -3.801187 0.107721 -7.953957
v -4.358261 0.107721 -8.120799
v -4.369510 0.107719 -7.386693
v -3.640328 0.107719 -7.398002
v -5.003376 0.107719 -7.398002
v -4.842516 0.107719 -6.912628
v -4.842516 2.068424 -6.912628
v -5.003376 2.068424 -7.398001
v -4.842516 0.107721 -7.953957
v -4.842516 2.068424 -7.953956
usemtl None.001
s 1
f 96//8 97//9 98//10
f 99//11 96//8 98//10
f 99//11 98//10 100//12
f 100//12 101//13 99//11
f 102//14 103//15 104//16
f 104//16 105//17 102//14
f 106//18 107//19 97//9
f 97//9 96//8 106//18
f 97//9 107//19 100//12
f 100//12 98//10 97//9
f 108//20 109//21 110//22
f 110//22 111//23 108//20
f 112//24 108//20 111//23
f 111//23 113//25 112//24
f 105//17 104//16 107//19
f 107//19 106//18 105//17
f 100//12 107//19 104//16
f 104//16 103//15 100//12
f 102//14 101//13 100//12
f 100//12 103//15 102//14
f 110//22 99//11 101//13
f 101//13 111//23 110//22
f 109//21 96//8 99//11
f 99//11 110//22 109//21
f 106//18 96//8 108//20
f 96//8 109//21 108//20
f 112//24 105//17 106//18
f 106//18 108//20 112//24
f 113//25 102//14 105//17
f 105//17 112//24 113//25
f 111//23 101//13 102//14
f 102//14 113//25 111//23
o Mesh.008_Mesh.008_Mesh.002_Group19559.001
v -2.757742 0.650570 -8.032216
v -1.698682 0.650570 -8.032216
v -1.698682 0.650570 -6.996264
v -2.757742 0.650570 -6.996264
v -1.698682 0.715033 -6.958446
v -1.698682 1.036303 -6.958446
v -2.757742 1.036303 -6.958446
v -2.757742 0.715033 -6.958446
v -2.795698 1.036303 -6.996264
v -2.795698 1.036303 -8.032216
v -2.795698 0.715033 -8.032216
v -2.795698 0.715033 -6.996264
v -1.660726 0.715033 -8.032216
v -1.660726 1.036303 -8.032216
v -1.660726 1.036303 -6.996264
v -1.660726 0.715033 -6.996264
v -1.698682 1.100766 -6.996264
v -1.698682 1.100766 -8.032216
v -2.757742 1.100766 -8.032216
v -2.757742 1.100766 -6.996264
v -1.698682 1.036303 -8.070034
v -1.698682 0.715033 -8.070034
v -2.757742 0.715033 -8.070034
v -2.757742 1.036303 -8.070034
vn -0.424848 -0.798975 -0.425550
vn 0.424848 -0.798975 -0.425550
vn 0.424848 -0.798975 0.425550
vn -0.424848 -0.798975 0.425550
vn 0.355022 -0.235664 0.904630
vn 0.355022 0.235664 0.904630
vn -0.355022 0.235664 0.904630
vn -0.355022 -0.235664 0.904630
vn -0.903928 0.236183 0.356487
vn -0.903928 0.236183 -0.356487
vn -0.903928 -0.236183 -0.356487
vn -0.903928 -0.236183 0.356487
vn 0.903928 -0.236183 -0.356487
vn 0.903928 0.236183 -0.356487
vn 0.903928 0.236183 0.356487
vn 0.903928 -0.236183 0.356487
vn 0.424848 0.798975 0.425550
vn 0.424848 0.798975 -0.425550
vn -0.424848 0.798975 -0.425550
vn -0.424848 0.798975 0.425550
vn 0.355022 0.235664 -0.904630
vn 0.355022 -0.235664 -0.904630
vn -0.355022 -0.235664 -0.904630
vn -0.355022 0.235664 -0.904630
usemtl None.001
s 1
f 114//64 115//65 116//66
f 117//67 114//64 116//66
f 118//68 119//69 120//70
f 120//70 121//71 118//68
f 122//72 123//73 124//74
f 124//74 125//75 122//72
f 126//76 127//77 128//78
f 128//78 129//79 126//76
f 130//80 131//81 132//82
f 132//82 133//83 130//80
f 134//84 135//85 136//86
f 136//86 137//87 134//84
f 117//67 125//75 124//74
f 124//74 114//64 117//67
f 121//71 117//67 116//66
f 116//66 118//68 121//71
f 125//75 121//71 120//70
f 120//70 122//72 125//75
f 129//79 116//66 115//65
f 115//65 126//76 129//79
f 118//68 129//79 128//78
f 128//78 119//69 118//68
f 122//72 133//83 132//82
f 132//82 123//73 122//72
f 133//83 120//70 119//69
f 119//69 130//80 133//83
f 130//80 128//78 127//77
f 127//77 131//81 130//80
f 123//73 137//87 136//86
f 136//86 124//74 123//73
f 137//87 132//82 131//81
f 131//81 134//84 137//87
f 134//84 127//77 126//76
f 126//76 135//85 134//84
f 114//64 136//86 135//85
f 115//65 114//64 135//85
f 125//75 117//67 121//71
f 116//66 129//79 118//68
f 133//83 122//72 120//70
f 128//78 130//80 119//69
f 137//87 123//73 132//82
f 127//77 134//84 131//81
f 114//64 124//74 136//86
f 126//76 115//65 135//85
o Mesh.007_Mesh.003_Mesh.010_Group19514.001
v -2.791214 -0.103551 -1.742900
v -1.405232 -0.072860 -1.762233
v -1.414878 -0.082497 -0.388692
v -2.812284 -0.075435 -0.392166
v -1.407194 0.763704 -0.396343
v -2.816372 0.751211 -0.388113
v -2.810061 0.765615 -1.761632
v -2.824533 -0.037787 -1.773849
v -1.412294 0.754103 -1.769263
vn 0.022042 -0.999733 -0.006860
vn -0.005104 -0.999772 0.020731
vn 0.005760 0.008989 0.999943
vn -0.002511 -0.004915 0.999985
vn -0.999827 0.018077 -0.004404
vn -0.999950 -0.004988 0.008729
vn 0.999957 0.008507 -0.003774
vn 0.999935 -0.009017 0.006959
vn 0.008197 0.999942 -0.007023
vn -0.008804 0.999907 0.010446
vn 0.007975 -0.008432 -0.999933
vn -0.005333 0.015301 -0.999869
vn -0.003155 -0.427117 -0.904191
vn -0.891187 -0.453614 -0.004460
usemtl None.001
s off
f 138//88 139//88 140//88
f 141//89 138//89 140//89
f 140//90 142//90 143//90
f 143//91 141//91 140//91
f 143//92 144//92 145//92
f 145//93 141//93 143//93
f 139//94 146//94 142//94
f 142//95 140//95 139//95
f 142//96 146//96 144//96
f 144//97 143//97 142//97
f 146//98 139//98 145//98
f 145//99 144//99 146//99
f 138//100 145//100 139//100
f 145//101 138//101 141//101
o Mesh.006_Cube_Cube.001
v 3.722787 5.696054 -0.131824
v 3.722787 5.696054 0.557592
v -5.123898 5.696054 0.557592
v -5.123898 5.696054 -0.131824
v 3.722787 6.137544 -0.131824
v -5.123898 6.137544 -0.131824
v -5.123898 6.137543 0.557592
v 3.722777 6.137543 0.557592
usemtl 
s off
f 147//1 148//1 149//1
f 147//1 149//1 150//1
f 151//2 152//2 153//2
f 151//2 153//2 154//2
f 147//3 151//3 154//3
f 147//4 154//4 148//4
f 148//5 154//5 153//5
f 148//5 153//5 149//5
f 149//6 153//6 152//6
f 149//6 152//6 150//6
f 151//7 147//7 150//7
f 151//7 150//7 152//7
o Mesh.005_Mesh.013_Mesh.011_Group19709.001
v -4.503783 -0.828972 -4.467667
v -3.946710 -0.828972 -4.634511
v -3.946710 0.266590 -4.634511
v -4.503783 0.266590 -4.467667
v -3.785850 0.266590 -5.119883
v -4.515032 0.266590 -5.108576
v -4.503783 0.266590 -5.842681
v -3.946710 0.266590 -5.675838
v -3.946710 -0.828972 -5.675838
v -4.503783 -0.828972 -5.842681
v -4.515032 -0.828972 -5.108576
v -3.785850 -0.828972 -5.119883
v -5.148898 -0.828972 -5.119883
v -4.988038 -0.828972 -4.634511
v -4.988038 0.266590 -4.634511
v -5.148898 0.266590 -5.119883
v -4.988038 -0.828972 -5.675838
v -4.988038 0.266590 -5.675838
usemtl None.001
s 1
f 155//8 156//9 157//10
f 158//11 155//8 157//10
f 158//11 157//10 159//12
f 159//12 160//13 158//11
f 161//14 162//15 163//16
f 163//16 164//17 161//14
f 165//18 166//19 156//9
f 156//9 155//8 165//18
f 156//9 166//19 159//12
f 159//12 157//10 156//9
f 167//20 168//21 169//22
f 169//22 170//23 167//20
f 171//24 167//20 170//23
f 170//23 172//25 171//24
f 164//17 163//16 166//19
f 166//19 165//18 164//17
f 159//12 166//19 163//16
f 163//16 162//15 159//12
f 161//14 160//13 159//12
f 159//12 162//15 161//14
f 169//22 158//11 160//13
f 160//13 170//23 169//22
f 168//21 155//8 158//11
f 158//11 169//22 168//21
f 165//18 155//8 167//20
f 155//8 168//21 167//20
f 171//24 164//17 165//18
f 165//18 167//20 171//24
f 172//25 161//14 164//17
f 164//17 171//24 172//25
f 170//23 160//13 161//14
f 161//14 172//25 170//23
o Mesh.004_Mesh.001_Mesh.006_Group19544.001
v -3.573399 -0.012920 -6.828287
v -2.392820 -0.012920 -6.828287
v -2.392820 -0.012921 -5.498495
v -3.573399 -0.012921 -5.498495
v -2.392820 0.064355 -5.449950
v -2.392820 0.218938 -5.449950
v -3.573399 0.218938 -5.449950
v -3.573399 0.064355 -5.449950
v -3.615710 0.218938 -5.498495
v -3.615710 0.218939 -6.828287
v -3.615710 0.064356 -6.828287
v -3.615710 0.064355 -5.498495
v -2.350509 0.064356 -6.828287
v -2.350509 0.218939 -6.828287
v -2.350509 0.218938 -5.498495
v -2.350509 0.064355 -5.498495
v -2.392820 0.296214 -5.498495
v -2.392820 0.296215 -6.828287
v -3.573399 0.296215 -6.828287
v -3.573399 0.296214 -5.498495
v -2.392820 0.218939 -6.876831
v -2.392820 0.064356 -6.876831
v -3.573399 0.064356 -6.876831
v -3.573399 0.218939 -6.876831
vn -0.438459 -0.798639 -0.412152
vn 0.438459 -0.798639 -0.412152
vn 0.438459 -0.798639 0.412152
vn -0.438459 -0.798639 0.412152
vn 0.382519 -0.245399 0.890713
vn 0.382519 0.245399 0.890713
vn -0.382519 0.245399 0.890713
vn -0.382519 -0.245399 0.890713
vn -0.917203 0.225684 0.328318
vn -0.917173 0.225684 -0.328318
vn -0.917173 -0.225684 -0.328318
vn -0.917203 -0.225684 0.328318
vn 0.917173 -0.225684 -0.328318
vn 0.917173 0.225684 -0.328318
vn 0.917203 0.225684 0.328318
vn 0.917203 -0.225684 0.328318
vn 0.438459 0.798639 0.412152
vn 0.438459 0.798639 -0.412152
vn -0.438459 0.798639 -0.412152
vn -0.438459 0.798639 0.412152
vn 0.382519 0.245399 -0.890744
vn 0.382519 -0.245399 -0.890744
vn -0.382519 -0.245399 -0.890744
vn -0.382519 0.245399 -0.890744
usemtl None.001
s 1
f 173//102 174//103 175//104
f 176//105 173//102 175//104
f 177//106 178//107 179//108
f 179//108 180//109 177//106
f 181//110 182//111 183//112
f 183//112 184//113 181//110
f 185//114 186//115 187//116
f 187//116 188//117 185//114
f 189//118 190//119 191//120
f 191//120 192//121 189//118
f 193//122 194//123 195//124
f 195//124 196//125 193//122
f 176//105 184//113 183//112
f 183//112 173//102 176//105
f 180//109 176//105 175//104
f 175//104 177//106 180//109
f 184//113 180//109 179//108
f 179//108 181//110 184//113
f 188//117 175//104 174//103
f 174//103 185//114 188//117
f 177//106 188//117 187//116
f 187//116 178//107 177//106
f 181//110 192//121 191//120
f 191//120 182//111 181//110
f 192//121 179//108 178//107
f 178//107 189//118 192//121
f 189//118 187//116 186//115
f 186//115 190//119 189//118
f 182//111 196//125 195//124
f 195//124 183//112 182//111
f 196//125 191//120 190//119
f 190//119 193//122 196//125
f 193//122 186//115 185//114
f 185//114 194//123 193//122
f 173//102 195//124 194//123
f 174//103 173//102 194//123
f 184//113 176//105 180//109
f 175//104 188//117 177//106
f 192//121 181//110 179//108
f 187//116 189//118 178//107
f 196//125 182//111 191//120
f 186//115 193//122 190//119
f 173//102 183//112 195//124
f 185//114 174//103 194//123
o Mesh.003_Mesh.002_Mesh.001_Group19574.001
v -3.355430 1.900958 -8.902094
v -2.296370 1.900958 -8.902094
v -2.296370 1.900958 -7.797947
v -3.355430 1.900958 -7.797947
v -2.296370 1.965421 -7.757640
v -2.296370 2.094373 -7.757640
v -3.355430 2.094373 -7.757640
v -3.355430 1.965421 -7.757640
v -3.393386 2.094373 -7.797947
v -3.393386 2.094374 -8.902094
v -3.393386 1.965421 -8.902094
v -3.393386 1.965421 -7.797947
v -2.258414 1.965421 -8.902094
v -2.258414 2.094374 -8.902094
v -2.258414 2.094373 -7.797947
v -2.258414 1.965421 -7.797947
v -2.296370 2.158837 -7.797947
v -2.296370 2.158837 -8.902094
v -3.355430 2.158837 -8.902094
v -3.355430 2.158837 -7.797947
v -2.296370 2.094374 -8.942401
v -2.296370 1.965421 -8.942401
v -3.355430 1.965421 -8.942401
v -3.355430 2.094374 -8.942401
vn -0.426649 -0.803613 -0.414899
vn 0.426649 -0.803613 -0.414899
vn 0.426649 -0.803613 0.414899
vn -0.426649 -0.803613 0.414899
vn 0.366741 -0.246254 0.897122
vn 0.366741 0.246254 0.897122
vn -0.366741 0.246254 0.897122
vn -0.366741 -0.246254 0.897122
vn -0.908750 0.237526 0.343059
vn -0.908750 0.237526 -0.343059
vn -0.908750 -0.237526 -0.343059
vn -0.908750 -0.237526 0.343059
vn 0.908750 -0.237526 -0.343059
vn 0.908750 0.237526 -0.343059
vn 0.908750 0.237526 0.343059
vn 0.908750 -0.237526 0.343059
vn 0.426649 0.803613 0.414899
vn 0.426649 0.803613 -0.414899
vn -0.426649 0.803613 -0.414899
vn -0.426649 0.803613 0.414899
vn 0.366741 0.246254 -0.897122
vn 0.366741 -0.246254 -0.897122
vn -0.366741 -0.246254 -0.897122
vn -0.366741 0.246254 -0.897122
usemtl None.001
s 1
f 197//126 198//127 199//128
f 200//129 197//126 199//128
f 201//130 202//131 203//132
f 203//132 204//133 201//130
f 205//134 206//135 207//136
f 207//136 208//137 205//134
f 209//138 210//139 211//140
f 211//140 212//141 209//138
f 213//142 214//143 215//144
f 215//144 216//145 213//142
f 217//146 218//147 219//148
f 219//148 220//149 217//146
f 200//129 208//137 207//136
f 207//136 197//126 200//129
f 204//133 200//129 199//128
f 199//128 201//130 204//133
f 208//137 204//133 203//132
f 203//132 205//134 208//137
f 212//141 199//128 198//127
f 198//127 209//138 212//141
f 201//130 212//141 211//140
f 211//140 202//131 201//130
f 205//134 216//145 215//144
f 215//144 206//135 205//134
f 216//145 203//132 202//131
f 202//131 213//142 216//145
f 213//142 211//140 210//139
f 210//139 214//143 213//142
f 206//135 220//149 219//148
f 219//148 207//136 206//135
f 220//149 215//144 214//143
f 214//143 217//146 220//149
f 217//146 210//139 209//138
f 209//138 218//147 217//146
f 197//126 219//148 218//147
f 198//127 197//126 218//147
f 208//137 200//129 204//133
f 199//128 212//141 201//130
f 216//145 205//134 203//132
f 211//140 213//142 202//131
f 220//149 206//135 215//144
f 210//139 217//146 214//143
f 197//126 207//136 219//148
f 209//138 198//127 218//147
o Mesh.002_Mesh.004_Mesh.013_Group19724.001
v -3.787396 -0.881624 -2.205729
v -4.396035 -0.881624 -1.031581
v -4.402985 0.616758 -1.850901
v -4.196284 0.616755 -0.830643
v -3.248490 -0.881624 -0.885675
v -3.135489 0.616756 -1.061092
v -3.431845 0.616757 -2.073156
vn -0.860123 -0.247787 -0.445859
vn 0.211270 0.097920 0.972511
vn 0.940543 -0.198814 -0.275413
vn -0.000000 1.000000 0.000003
vn 0.000001 1.000000 0.000001
vn -0.974827 0.103471 0.197498
vn -0.220962 0.137856 -0.965490
vn 0.919856 -0.113335 -0.375527
vn -0.125288 -0.115441 0.985381
usemtl None.001
s off
f 221//150 222//150 223//150
f 224//151 225//151 226//151
f 221//152 227//152 226//152
f 226//153 223//153 224//153
f 227//154 223//154 226//154
f 224//155 223//155 222//155
f 227//156 221//156 223//156
f 225//157 221//157 226//157
f 222//158 225//158 224//158
f 222//18 221//18 225//18
o Mesh.001_Mesh.011_Mesh.003_Group19499.001
v -1.963503 -0.172074 0.665378
v -0.556047 -0.096052 0.668145
v -0.572604 -0.173478 2.042039
v -1.960465 -0.168251 2.041678
v -0.558273 0.160284 2.037840
v -1.960744 0.149639 2.039769
v -1.958673 0.160087 0.677543
v -0.561345 0.150061 0.663686
vn 0.053961 -0.996997 -0.055536
vn -0.003767 -0.999989 0.002786
vn 0.001280 0.012525 0.999921
vn -0.000237 0.006005 0.999982
vn -0.999893 0.014591 -0.001408
vn -0.999997 -0.000865 0.002210
vn 0.999766 0.021478 -0.002395
vn 0.999038 -0.042775 0.009629
vn 0.007101 0.999947 -0.007455
vn -0.007579 0.999942 0.007658
vn 0.002941 -0.018051 -0.999833
vn -0.009646 0.036738 -0.999278
usemtl None.001
s off
f 228//159 229//159 230//159
f 231//160 228//160 230//160
f 230//161 232//161 233//161
f 233//162 231//162 230//162
f 234//163 228//163 233//163
f 228//164 231//164 233//164
f 229//165 235//165 232//165
f 232//166 230//166 229//166
f 232//167 235//167 234//167
f 234//168 233//168 232//168
f 229//169 228//169 235//169
f 235//170 228//170 234//170
o Mesh_Mesh.006_Mesh.005_Group19649.001
v -4.236379 -0.819059 0.181501
v -3.310024 -0.778881 0.285748
v -3.284801 -0.788774 1.353192
v -4.421566 0.546664 1.308117
v -3.169907 0.622724 1.177443
v -4.430431 -0.840893 1.207918
v -4.137767 0.599436 0.137791
v -3.310024 0.622477 0.285748
vn 0.044487 -0.998957 -0.010310
vn 0.096213 0.115269 0.988664
vn 0.996159 -0.084114 -0.024318
vn -0.982480 0.019660 -0.185327
vn 0.175959 0.000000 -0.984398
vn 0.113394 -0.038475 -0.992805
vn -0.057393 0.997868 0.031078
vn -0.970685 0.060312 -0.232667
vn -0.122318 -0.070707 0.989969
vn 0.987878 0.000000 -0.155231
vn 0.047007 -0.998818 -0.012360
vn -0.028577 0.999583 0.004214
usemtl None.001
s off
f 236//171 237//171 238//171
f 239//172 238//172 240//172
f 240//173 238//173 237//173
f 236//174 241//174 239//174
f 242//175 243//175 237//175
f 237//176 236//176 242//176
f 242//177 239//177 240//177
f 242//178 236//178 239//178
f 241//179 238//179 239//179
f 237//180 243//180 240//180
f 241//181 236//181 238//181
f 240//182 243//182 242//182
