# Blender v2.71 (sub 0) OBJ File: ''
# www.blender.org
mtllib leftHand.mtl
o node_shape0.003
v 0.008800 -0.034206 -0.008107
v 0.002497 -0.027227 0.030914
v 0.012448 0.003541 0.018658
v 0.006597 -0.049715 -0.045319
v 0.002353 -0.025758 -0.090404
v 0.003550 0.023821 0.029629
v -0.001232 -0.008456 -0.048830
v 0.000447 -0.001478 -0.086426
v 0.008632 0.035584 -0.022546
v 0.002662 0.032721 -0.006333
v 0.005560 0.068962 -0.036685
v 0.005283 0.047160 -0.050783
v 0.002532 0.023139 -0.090592
v -0.013601 -0.026725 0.026853
v -0.012845 -0.034292 -0.004741
v -0.021174 -0.023204 -0.045253
v -0.014806 -0.025149 -0.088836
v -0.012983 0.022457 0.027935
v -0.017006 -0.001670 -0.087325
v -0.018346 0.024035 -0.029836
v -0.016512 0.020990 -0.087019
v -0.008315 0.034580 -0.009162
v 0.003441 0.045258 -0.081508
v 0.009936 -0.038494 -0.167542
v 0.010884 -0.029926 -0.164633
v 0.007334 -0.031250 -0.170265
v 0.010560 -0.012324 -0.189850
v 0.008038 -0.004902 -0.188154
v -0.002719 -0.019312 -0.165492
v 0.007486 0.007141 -0.200416
v -0.003066 0.003974 -0.139838
v 0.009721 0.017036 -0.204879
v 0.007705 0.021922 -0.195531
v -0.010942 0.004745 -0.163093
v 0.006886 0.030472 -0.188268
v 0.008941 0.040560 -0.189661
v 0.009120 0.082972 -0.092179
v 0.005341 0.078807 -0.097446
v -0.000377 0.083196 -0.090876
v 0.008047 0.084744 -0.069879
v -0.000937 0.040768 -0.136190
v -0.003658 0.026249 -0.136666
v -0.008277 0.045656 -0.131324
v -0.009001 0.025497 -0.154797
v -0.008176 0.042283 -0.163129
v -0.002929 0.021633 -0.099253
v -0.002121 0.018446 -0.142904
v -0.005305 0.022078 -0.174023
v -0.006367 -0.001391 -0.099058
v -0.000404 -0.019858 -0.125854
v -0.002734 -0.004044 -0.124769
v -0.014370 -0.006958 -0.134431
v -0.000876 -0.002464 -0.172662
v 0.001370 -0.030492 -0.115163
v -0.001587 -0.045450 -0.117236
v -0.007752 -0.040969 -0.139850
v 0.000723 -0.025133 -0.155858
v -0.002711 0.080629 -0.062493
v -0.002450 0.046057 -0.051635
v 0.008156 0.072004 -0.093310
vn 0.776600 -0.000200 0.630000
vn 0.953300 -0.230500 0.195200
vn 0.976100 0.174100 -0.130300
vn 0.982300 0.187000 0.006900
vn 0.996000 0.068800 0.057200
vn 0.994000 -0.019900 -0.107500
vn 0.961200 -0.053700 -0.270700
vn 0.932900 0.321000 0.163200
vn 0.172700 0.957100 0.232600
vn 0.896400 0.240300 0.372500
vn 0.975500 -0.220100 0.002700
vn 0.992500 -0.009600 -0.121600
vn 0.996700 -0.057900 -0.056200
vn 0.994600 -0.071600 0.074800
vn -0.669600 -0.739900 -0.064800
vn -0.999500 0.013200 -0.027100
vn -0.979800 -0.006500 0.199700
vn -0.996800 0.071400 -0.035800
vn -0.994400 -0.054700 0.090800
vn -0.804300 0.587300 0.090700
vn -0.835000 0.547400 -0.055900
vn -0.743400 0.648400 -0.163900
vn 0.032100 -0.983000 0.181000
vn -0.088300 -0.969200 0.230000
vn 0.062900 -0.922500 0.380800
vn 0.832100 0.093500 -0.546600
vn -0.843800 -0.170500 -0.508900
vn 0.975700 -0.147200 0.162300
vn -0.717400 0.541900 -0.437900
vn -0.896700 0.003000 -0.442600
vn -0.135300 0.989400 -0.053100
vn 0.012700 0.996800 -0.078600
vn -0.062100 0.804100 -0.591300
vn 0.102600 0.966200 0.236600
vn -0.108600 0.948900 0.296400
vn -0.245100 -0.018200 0.969300
vn -0.104100 0.027200 0.994200
vn 0.996800 -0.008500 -0.079100
vn 0.973600 -0.177800 -0.142800
vn 0.499000 0.859500 -0.110500
vn -0.779200 0.597900 0.188100
vn 0.434300 -0.892900 -0.118600
vn -0.062000 -0.990700 -0.121000
vn 0.257100 -0.965700 -0.035700
vn 0.967800 -0.171900 0.183700
vn 0.965900 -0.186900 0.179200
vn -0.063500 0.992400 -0.105400
vn 0.599400 0.793200 0.107600
vn -0.993900 -0.006000 -0.110500
vn -0.963600 0.265600 -0.031200
vn -0.878700 -0.176900 -0.443400
vn -0.833700 0.094800 -0.544000
vn 0.239800 -0.970400 -0.030400
vn 0.847500 -0.157600 -0.507000
vn 0.988900 0.148600 0.007500
vn 0.994000 -0.080500 -0.073600
vn -0.040800 0.999100 0.007200
vn 0.843200 0.537100 -0.023600
vn -0.995900 0.022900 -0.087000
vn -0.996700 0.022800 -0.077800
vn -0.963900 0.237000 -0.121200
vn -0.073100 -0.993300 -0.090000
vn 0.195800 -0.974200 -0.112300
vn 0.227000 -0.967800 -0.108900
vn 0.983000 -0.025700 0.181800
vn 0.979900 0.025800 0.197800
vn 0.171900 0.980300 0.096800
vn -0.898000 0.014800 -0.439700
vn 0.037200 -0.998300 -0.045700
vn 0.994100 0.088300 -0.062600
vn 0.984200 0.151300 -0.091800
vn -0.156800 0.980500 -0.118800
vn 0.159100 0.984100 -0.079100
vn -0.995600 0.068800 -0.063400
vn -0.948200 -0.291900 -0.125500
vn -0.042900 -0.995700 -0.082600
vn 0.990500 0.125800 -0.056100
vn -0.895300 -0.410800 -0.172400
vn 0.945500 0.285500 0.156800
vn 0.974500 0.131000 0.182400
vn 0.797800 0.600700 0.050800
vn 0.334100 0.941500 0.044000
vn -0.428400 0.902500 -0.045100
vn -0.940700 -0.040400 -0.336800
vn -0.868900 -0.110300 -0.482600
vn 0.412000 -0.910400 -0.036600
vn 0.995700 0.075000 -0.053900
vn 0.976800 -0.176200 -0.121600
vn 0.017700 0.981900 -0.188400
vn -0.595300 -0.803300 0.020100
vn -0.859400 -0.510100 -0.035400
vn -0.774700 -0.626300 0.087100
vn 0.959500 -0.214900 0.182100
vn 0.964900 -0.173700 0.197000
vn 0.466200 0.878000 0.108200
vn 0.497400 0.861100 0.105500
vn 0.162300 0.932900 -0.321600
vn -0.934800 0.281400 -0.216500
vn -0.900600 0.045000 -0.432300
vn -0.116900 -0.979800 -0.162300
vn -0.731900 -0.454000 -0.508100
vn -0.086900 0.643700 0.760300
vn -0.609600 0.630600 0.480400
vn -0.779900 0.623000 0.060600
vn -0.987000 -0.054900 -0.151100
vn 0.175700 -0.855100 -0.487700
vn 0.977700 0.151500 0.145300
vn 0.999900 0.010700 -0.001200
vn 0.994100 -0.093000 0.055200
vn -0.053400 0.903400 0.425500
vn -0.321000 0.945300 0.059100
vn -0.995800 -0.034200 -0.085000
vn 0.638700 -0.682400 -0.355500
vn 0.817000 -0.012300 -0.576400
vn -0.783700 -0.525600 -0.331000
vn -0.745300 -0.464200 -0.478700
usemtl None.003
s off
f 6//1 2//1 3//1
f 1//2 3//2 2//2
f 4//3 7//3 1//3
f 5//4 7//4 4//4
f 8//5 7//5 5//5
f 3//6 1//6 9//6
f 7//7 9//7 1//7
f 9//8 6//8 3//8
f 6//9 9//9 10//9
f 9//10 11//10 10//10
f 8//11 9//11 7//11
f 9//12 8//12 12//12
f 23//13 12//13 8//13
f 23//14 8//14 13//14
f 16//15 17//15 15//15
f 14//16 18//16 15//16
f 20//17 16//17 15//17
f 20//18 21//18 16//18
f 18//19 20//19 15//19
f 18//20 22//20 20//20
f 21//21 20//21 59//21
f 21//22 59//22 23//22
f 1//23 2//23 15//23
f 14//24 15//24 2//24
f 15//25 4//25 1//25
f 26//26 25//26 24//26
f 28//27 27//27 29//27
f 30//28 32//28 31//28
f 32//29 48//29 33//29
f 32//30 30//30 34//30
f 12//31 23//31 59//31
f 37//32 39//32 40//32
f 39//33 37//33 38//33
f 22//34 6//34 10//34
f 22//35 18//35 6//35
f 2//36 18//36 14//36
f 2//37 6//37 18//37
f 41//38 23//38 13//38
f 41//39 13//39 42//39
f 43//40 23//40 41//40
f 43//41 21//41 23//41
f 13//42 46//42 42//42
f 21//43 42//43 46//43
f 21//44 44//44 42//44
f 42//45 35//45 36//45
f 41//46 42//46 36//46
f 45//47 43//47 36//47
f 36//48 43//48 41//48
f 44//49 21//49 45//49
f 45//50 21//50 43//50
f 35//51 44//51 45//51
f 35//52 45//52 36//52
f 35//53 42//53 44//53
f 8//54 46//54 13//54
f 46//55 8//55 47//55
f 8//56 31//56 47//56
f 46//57 48//57 21//57
f 46//58 47//58 48//58
f 19//59 16//59 21//59
f 19//60 21//60 34//60
f 34//61 21//61 48//61
f 19//62 34//62 49//62
f 8//63 49//63 31//63
f 49//64 34//64 31//64
f 31//65 33//65 47//65
f 31//66 32//66 33//66
f 33//67 48//67 47//67
f 34//68 48//68 32//68
f 34//69 30//69 31//69
f 8//70 5//70 50//70
f 51//71 8//71 50//71
f 52//72 19//72 49//72
f 51//73 49//73 8//73
f 16//74 19//74 52//74
f 16//75 52//75 17//75
f 5//76 17//76 29//76
f 50//77 5//77 29//77
f 17//78 52//78 29//78
f 51//79 27//79 28//79
f 50//80 27//80 51//80
f 49//81 51//81 53//81
f 51//82 28//82 53//82
f 52//83 49//83 53//83
f 53//84 29//84 52//84
f 29//85 53//85 28//85
f 50//86 29//86 27//86
f 4//87 54//87 5//87
f 54//88 4//88 55//88
f 17//89 5//89 54//89
f 15//90 55//90 4//90
f 17//91 55//91 15//91
f 55//92 17//92 56//92
f 54//93 55//93 25//93
f 25//94 55//94 24//94
f 57//95 17//95 54//95
f 54//96 25//96 57//96
f 25//97 26//97 57//97
f 17//98 57//98 56//98
f 56//99 57//99 26//99
f 55//100 56//100 24//100
f 26//101 24//101 56//101
f 10//102 11//102 22//102
f 11//103 58//103 22//103
f 20//104 22//104 59//104
f 58//105 59//105 22//105
f 59//106 60//106 12//106
f 9//107 40//107 11//107
f 9//108 60//108 40//108
f 37//109 40//109 60//109
f 11//110 40//110 58//110
f 40//111 39//111 58//111
f 59//112 58//112 39//112
f 12//113 60//113 9//113
f 60//114 38//114 37//114
f 38//115 60//115 39//115
f 60//116 59//116 39//116
