# Blender v2.71 (sub 0) OBJ File: ''
# www.blender.org
mtllib lowerLeftLeg.mtl
o node_shape0.007
v -0.006667 -0.032396 0.047990
v -0.039059 0.022612 0.038860
v -0.067545 -0.000855 -0.014351
v -0.052909 -0.007457 -0.072157
v -0.036225 -0.056571 -0.016038
v -0.015706 -0.055697 -0.080797
v 0.038524 -0.057607 -0.003108
v 0.030135 -0.045515 -0.073799
v 0.038302 -0.004376 -0.515424
v 0.030946 0.022925 0.045363
v 0.055601 0.005274 -0.068936
v 0.061861 0.028163 -0.010686
v 0.024358 0.049339 -0.071134
v -0.013958 0.066506 -0.001207
v -0.031454 0.046744 -0.068598
v -0.032639 0.004209 -0.532523
vn -0.752500 -0.350600 0.557500
vn -0.744500 -0.433900 0.507500
vn -0.862100 -0.479700 -0.163500
vn -0.787000 -0.560900 -0.256900
vn -0.795200 -0.604300 -0.050300
vn -0.079200 -0.920000 0.383900
vn 0.015800 -0.985200 -0.170400
vn 0.208800 -0.976500 0.053000
vn -0.088800 -0.987800 -0.127700
vn 0.228500 -0.969700 -0.086100
vn 0.596600 -0.371900 0.711200
vn 0.894600 -0.446200 -0.025000
vn 0.866400 -0.195100 0.459600
vn 0.964900 -0.262600 -0.000500
vn 0.886300 -0.427300 -0.178300
vn 0.785800 0.542300 -0.297500
vn 0.816000 0.576400 -0.044100
vn 0.458500 0.825100 0.330000
vn 0.454100 0.890400 0.030200
vn 0.146400 0.982600 -0.114200
vn -0.069700 0.694000 0.716600
vn -0.056900 0.961900 -0.267300
vn -0.050400 0.994600 -0.091100
vn -0.092400 0.109800 0.989600
vn -0.787500 0.595500 0.159000
vn -0.784500 0.619800 0.021900
vn -0.889800 0.369800 -0.267500
vn -0.928600 0.369700 -0.031500
usemtl None.007
s off
f 2//1 3//1 1//1
f 1//2 3//2 5//2
f 3//3 4//3 5//3
f 4//4 6//4 5//4
f 4//5 16//5 6//5
f 1//6 5//6 7//6
f 5//7 8//7 7//7
f 5//8 6//8 8//8
f 6//9 16//9 9//9
f 8//10 6//10 9//10
f 1//11 7//11 10//11
f 8//12 9//12 11//12
f 10//13 7//13 12//13
f 7//14 11//14 12//14
f 7//15 8//15 11//15
f 12//16 11//16 13//16
f 11//17 9//17 13//17
f 10//18 12//18 14//18
f 12//19 13//19 14//19
f 13//20 9//20 16//20
f 10//21 14//21 2//21
f 13//22 15//22 14//22
f 15//23 13//23 16//23
f 1//24 10//24 2//24
f 14//25 3//25 2//25
f 14//26 15//26 3//26
f 15//27 4//27 3//27
f 15//28 16//28 4//28
