# Blender v2.71 (sub 0) OBJ File: ''
# www.blender.org
mtllib lowerRightLeg.mtl
o node_shape0.004
v -0.006667 -0.032396 0.047990
v -0.039059 0.022612 0.038860
v -0.067545 -0.000855 -0.014351
v -0.052909 -0.007457 -0.072157
v -0.020308 -0.017679 -0.532517
v -0.036225 -0.056571 -0.016038
v -0.032589 -0.041007 -0.072317
v -0.003489 -0.062071 -0.131282
v 0.010600 -0.063314 -0.002190
v 0.030135 -0.045515 -0.073799
v 0.053774 -0.036117 -0.004001
v 0.038302 -0.004376 -0.515424
v 0.030946 0.022925 0.045363
v 0.058114 -0.012070 -0.109440
v 0.061861 0.028163 -0.010686
v 0.048944 0.020298 -0.073103
v 0.017227 0.047718 -0.072355
v 0.027251 0.055368 -0.131282
v 0.012690 0.062479 -0.002616
v -0.035585 0.053303 -0.004000
v -0.014492 0.052099 -0.072548
v -0.028888 0.025110 -0.509547
v -0.049250 0.032061 -0.109425
vn -0.752500 -0.350600 0.557500
vn -0.984600 -0.161900 -0.066100
vn -0.744500 -0.433900 0.507500
vn -0.862100 -0.479700 -0.163500
vn -0.839400 -0.507500 -0.194600
vn -0.854400 -0.517300 -0.049000
vn -0.657000 -0.751800 -0.055600
vn -0.254600 -0.860000 0.442300
vn -0.062900 -0.964400 -0.256900
vn -0.075400 -0.959800 -0.270300
vn -0.060900 -0.949100 0.309000
vn 0.252100 -0.960600 -0.116900
vn 0.453100 -0.680900 0.575400
vn 0.529900 -0.845500 -0.065600
vn 0.532800 -0.843400 -0.068700
vn 0.592900 -0.369100 0.715700
vn 0.739900 -0.671000 -0.048800
vn 0.876400 -0.060600 0.477700
vn 0.972800 -0.141500 -0.183500
vn 0.924400 -0.261300 -0.277900
vn 0.861700 -0.250900 0.441000
vn 0.948600 0.314000 -0.040300
vn 0.634300 0.739800 -0.224500
vn 0.882700 0.467500 -0.047300
vn 0.570200 0.727100 0.382400
vn 0.551400 0.822700 -0.138300
vn 0.642800 0.738000 0.205200
vn 0.134400 0.979500 0.150000
vn 0.388800 0.912000 -0.130700
vn 0.139700 0.490000 -0.860500
vn -0.158100 0.731500 0.663200
vn -0.057400 0.813900 0.578200
vn -0.176400 0.960600 -0.214800
vn 0.136600 0.990300 0.024700
vn -0.155700 0.986200 -0.055800
vn -0.092400 0.109800 0.989600
vn -0.467600 0.883100 -0.039100
vn -0.853100 0.454500 0.256300
vn -0.809600 0.527100 -0.258400
vn -0.811100 0.521500 -0.264900
vn -0.751800 0.487900 0.443500
vn -0.997700 0.043800 -0.051500
usemtl None
s off
f 2//1 3//1 1//1
f 4//2 22//2 5//2
f 1//3 3//3 6//3
f 3//4 4//4 6//4
f 4//5 7//5 6//5
f 4//6 5//6 7//6
f 7//7 5//7 8//7
f 1//8 6//8 9//8
f 6//9 10//9 9//9
f 6//10 7//10 10//10
f 7//11 8//11 10//11
f 8//12 5//12 12//12
f 1//13 9//13 11//13
f 9//14 10//14 11//14
f 10//15 8//15 12//15
f 1//16 11//16 13//16
f 10//17 12//17 14//17
f 13//18 11//18 15//18
f 11//19 16//19 15//19
f 11//20 10//20 16//20
f 10//21 14//21 16//21
f 14//22 12//22 16//22
f 15//23 16//23 17//23
f 16//24 12//24 18//24
f 13//25 15//25 19//25
f 15//26 17//26 19//26
f 17//27 16//27 18//27
f 18//28 21//28 17//28
f 18//29 12//29 22//29
f 12//30 5//30 22//30
f 13//31 19//31 20//31
f 13//32 20//32 2//32
f 19//33 17//33 20//33
f 17//34 21//34 20//34
f 21//35 18//35 22//35
f 1//36 13//36 2//36
f 21//37 22//37 23//37
f 20//38 3//38 2//38
f 20//39 21//39 3//39
f 21//40 4//40 3//40
f 21//41 23//41 4//41
f 23//42 22//42 4//42
