# Blender v2.71 (sub 0) OBJ File: ''
# www.blender.org
mtllib upperLeftArm.mtl
o node_shape0.009
v -0.018432 -0.001463 0.011085
v -0.057272 -0.021069 -0.043481
v -0.041364 -0.000371 -0.088626
v -0.064888 -0.014798 -0.170478
v -0.035852 -0.016840 -0.362427
v -0.023698 -0.058887 -0.040252
v -0.023178 -0.031506 -0.086022
v -0.018673 -0.054105 -0.246855
v 0.023150 -0.009384 0.031245
v 0.000373 -0.040321 -0.080678
v 0.001504 -0.030855 -0.376433
v 0.032411 -0.052285 -0.014971
v 0.028152 -0.041561 -0.274236
v 0.034153 -0.016799 -0.076728
v 0.050402 0.007430 0.022634
v 0.059687 0.002568 -0.027526
v 0.021513 0.004258 -0.395872
v 0.049319 0.011465 -0.216463
v 0.025324 0.027270 -0.079971
v 0.032722 0.048692 -0.032254
v 0.018917 0.053706 -0.228141
v 0.001466 0.048431 -0.000251
v -0.005362 0.034136 -0.365548
v -0.014550 0.055873 -0.050577
v -0.017100 0.036026 -0.086829
v -0.030991 0.053855 -0.184332
v -0.058406 0.025023 -0.053125
v -0.043903 0.027663 -0.311853
vn -0.923100 -0.100400 -0.371300
vn -0.627800 -0.599700 -0.496200
vn -0.810200 -0.498900 -0.307700
vn -0.829700 -0.457900 0.319200
vn -0.615000 -0.493500 0.615100
vn -0.347800 -0.937500 -0.013700
vn -0.510100 -0.850400 0.129000
vn -0.739100 -0.665500 -0.104700
vn -0.443100 -0.574600 0.688100
vn -0.199800 -0.839900 -0.504700
vn -0.414600 -0.882300 -0.222900
vn -0.203300 -0.737600 0.643900
vn 0.237600 -0.928600 -0.285000
vn 0.284000 -0.957700 0.046900
vn 0.174500 -0.973500 -0.147500
vn 0.554300 -0.728300 -0.402900
vn 0.562500 -0.822300 0.086000
vn 0.542800 -0.558500 0.627200
vn 0.894400 -0.398000 0.204200
vn 0.843000 -0.476400 -0.250000
vn 0.769100 -0.583100 -0.261600
vn -0.419600 -0.244800 -0.874100
vn 0.920500 -0.390300 0.021000
vn 0.962600 -0.231900 -0.139900
vn 0.856700 0.135000 -0.497800
vn 0.967800 0.204700 0.146400
vn 0.853300 0.510000 0.108500
vn 0.829000 0.450800 -0.330900
vn 0.800000 0.595600 0.071700
vn 0.821600 0.550100 -0.149400
vn -0.014400 0.474200 0.880300
vn 0.445800 0.778600 0.441700
vn 0.606600 0.765000 -0.216100
vn -0.559000 0.286700 -0.778000
vn -0.357000 0.340100 0.870000
vn 0.106600 0.988000 0.112200
vn 0.295900 0.853400 -0.429000
vn 0.251000 0.841500 -0.478400
vn 0.176000 0.972500 0.152700
vn 0.149800 0.974400 0.167400
vn -0.104300 0.987000 -0.122100
vn -0.365500 0.918400 -0.151600
vn -0.759200 0.423900 -0.493800
vn -0.688500 0.410400 0.597900
vn -0.561400 0.773900 0.293100
vn -0.516500 0.765900 -0.383000
vn -0.633000 0.452900 -0.627900
vn -0.859800 0.466500 0.207800
vn -0.826900 0.544200 0.141700
vn -0.896700 0.442700 -0.000100
vn -0.826900 0.095600 0.554200
vn -0.988700 -0.009000 -0.149500
usemtl None.004
s off
f 27//1 3//1 2//1
f 2//2 3//2 6//2
f 3//3 7//3 6//3
f 3//4 4//4 7//4
f 1//5 2//5 6//5
f 7//6 4//6 10//6
f 4//7 8//7 10//7
f 4//8 5//8 8//8
f 1//9 6//9 9//9
f 7//10 10//10 6//10
f 5//11 11//11 8//11
f 9//12 6//12 12//12
f 6//13 10//13 12//13
f 8//14 13//14 10//14
f 8//15 11//15 13//15
f 12//16 10//16 14//16
f 10//17 13//17 14//17
f 9//18 12//18 15//18
f 12//19 16//19 15//19
f 12//20 14//20 16//20
f 13//21 11//21 17//21
f 11//22 5//22 17//22
f 14//23 13//23 18//23
f 13//24 17//24 18//24
f 14//25 19//25 16//25
f 14//26 18//26 19//26
f 15//27 16//27 20//27
f 16//28 19//28 20//28
f 19//29 18//29 21//29
f 18//30 17//30 21//30
f 9//31 15//31 22//31
f 15//32 20//32 22//32
f 21//33 17//33 23//33
f 17//34 5//34 23//34
f 9//35 22//35 1//35
f 20//36 24//36 22//36
f 20//37 19//37 24//37
f 19//38 25//38 24//38
f 19//39 26//39 25//39
f 19//40 21//40 26//40
f 21//41 23//41 26//41
f 23//42 28//42 26//42
f 23//43 5//43 28//43
f 22//44 27//44 1//44
f 22//45 24//45 27//45
f 24//46 25//46 27//46
f 25//47 3//47 27//47
f 25//48 26//48 4//48
f 25//49 4//49 3//49
f 26//50 28//50 4//50
f 1//51 27//51 2//51
f 28//52 5//52 4//52
