# Blender v2.71 (sub 0) OBJ File: ''
# www.blender.org
mtllib upperLeftLeg.mtl
o node_shape0.010
v -0.016578 0.033152 0.066541
v 0.013161 -0.040903 0.041950
v 0.075100 -0.017215 -0.054555
v 0.041015 -0.041484 -0.079412
v 0.071110 -0.001067 -0.121950
v 0.032323 -0.012775 -0.496529
v 0.041373 -0.065376 -0.028605
v 0.026532 -0.065525 -0.106899
v -0.015504 -0.072518 0.017600
v -0.031770 -0.055116 -0.058576
v -0.039634 -0.026268 -0.549555
v -0.051951 -0.009627 0.076087
v -0.071038 -0.029601 0.029591
v -0.060126 -0.018248 -0.052331
v -0.073831 0.021093 0.006671
v -0.042336 0.061965 0.021919
v -0.051718 0.035148 -0.054284
v -0.017420 0.038850 -0.524296
v -0.016508 0.058659 -0.060251
v 0.031615 0.065001 -0.120930
v 0.019236 0.064427 0.024021
v 0.050032 0.038866 -0.086582
v 0.065129 0.039628 -0.056685
vn 0.646400 -0.139500 -0.750200
vn 0.835100 -0.044800 0.548300
vn 0.827600 -0.338100 0.448200
vn 0.691300 -0.652000 -0.311500
vn 0.827100 -0.559500 0.053600
vn 0.813400 -0.578000 -0.066200
vn 0.461400 -0.764700 0.449800
vn -0.049900 -0.975900 -0.212300
vn 0.047500 -0.903800 -0.425300
vn 0.300700 -0.790800 0.533200
vn 0.271200 -0.954300 -0.125200
vn -0.218500 -0.974400 -0.053800
vn 0.080900 -0.653200 0.752800
vn -0.457900 -0.733100 0.502900
vn -0.790000 -0.612500 0.028800
vn -0.625700 -0.757000 -0.188300
vn 0.408000 -0.135900 0.902800
vn -0.794300 -0.607000 -0.022900
vn -0.981700 -0.120800 -0.147500
vn -0.934900 0.102200 0.339900
vn -0.940900 0.136800 -0.309800
vn -0.987200 0.153900 -0.043200
vn -0.504300 0.563100 0.654700
vn -0.782900 0.438800 0.441000
vn -0.761400 0.635100 -0.129800
vn -0.936400 0.344900 -0.065600
vn 0.574600 0.118100 -0.809800
vn -0.567300 0.796200 -0.210300
vn -0.559000 0.828500 -0.034300
vn -0.052200 0.824900 0.562800
vn -0.038100 0.997900 -0.052100
vn -0.181900 0.982400 -0.041600
vn 0.222600 0.961600 -0.160200
vn 0.404500 0.819200 0.406500
vn 0.251000 0.956100 -0.151100
vn 0.748500 0.649600 -0.133100
vn 0.855800 0.512700 -0.068800
vn 0.852900 0.511500 -0.104300
vn 0.736100 0.072100 0.673000
vn 0.835700 0.045000 0.547400
vn 0.878100 0.170800 0.446900
vn 0.882700 0.138000 -0.449200
usemtl None.005
s off
f 3//1 4//1 22//1
f 4//2 5//2 22//2
f 7//3 3//3 2//3
f 7//4 4//4 3//4
f 8//5 5//5 4//5
f 8//6 6//6 5//6
f 2//7 9//7 7//7
f 9//8 10//8 7//8
f 10//9 4//9 7//9
f 10//10 8//10 4//10
f 11//11 6//11 8//11
f 10//12 11//12 8//12
f 12//13 9//13 2//13
f 12//14 13//14 9//14
f 14//15 10//15 9//15
f 13//16 14//16 9//16
f 1//17 12//17 2//17
f 14//18 11//18 10//18
f 15//19 14//19 13//19
f 15//20 13//20 12//20
f 15//21 17//21 14//21
f 17//22 11//22 14//22
f 1//23 16//23 12//23
f 16//24 15//24 12//24
f 16//25 17//25 15//25
f 18//26 11//26 17//26
f 18//27 6//27 11//27
f 16//28 19//28 17//28
f 19//29 18//29 17//29
f 21//30 16//30 1//30
f 21//31 19//31 16//31
f 20//32 18//32 19//32
f 22//33 19//33 21//33
f 22//34 20//34 19//34
f 23//35 22//35 21//35
f 6//36 18//36 20//36
f 22//37 5//37 20//37
f 5//38 6//38 20//38
f 2//39 21//39 1//39
f 2//40 3//40 21//40
f 3//41 23//41 21//41
f 3//42 22//42 23//42
