# Blender v2.72 (sub 0) OBJ File: ''
# www.blender.org
mtllib cenglobing2.mtl
o cenglobing
v 1.210393 1.962575 0.593689
v 0.067883 0.919491 0.593689
v 1.210393 0.919491 0.593689
v 0.067883 1.962575 0.593689
v 1.210393 1.962575 -0.593689
v 0.067883 1.962575 0.593689
v 1.210393 1.962575 0.593689
v 0.067883 1.962575 -0.593689
v 1.210393 0.919491 -0.593689
v 0.067883 1.962575 -0.593689
v 1.210393 1.962575 -0.593689
v 0.067883 0.919491 -0.593689
v 1.210393 0.919491 0.593689
v 0.067883 0.919491 -0.593689
v 1.210393 0.919491 -0.593689
v 0.067883 0.919491 0.593689
v 1.210393 1.962575 -0.593689
v 1.210393 0.919491 0.593689
v 1.210393 0.919491 -0.593689
v 1.210393 1.962575 0.593689
v 0.067883 1.962575 0.593689
v 0.067883 0.919491 -0.593689
v 0.067883 0.919491 0.593689
v 0.067883 1.962575 -0.593689
vt 1.000000 1.000000
vt 0.000000 0.000000
vt 1.000000 0.000000
vt 0.000000 1.000000
vn 0.000000 0.000000 1.000000
vn 0.000000 1.000000 0.000000
vn 0.000000 0.000000 -1.000000
vn 0.000000 -1.000000 0.000000
vn 1.000000 0.000000 0.000000
vn -1.000000 0.000000 0.000000
usemtl Default-Diffuse.001
s off
f 1/1/1 2/2/1 3/3/1
f 2/2/1 1/1/1 4/4/1
f 5/1/2 6/2/2 7/3/2
f 8/4/2 6/2/2 5/1/2
f 9/1/3 10/2/3 11/3/3
f 12/4/3 10/2/3 9/1/3
f 13/1/4 14/2/4 15/3/4
f 16/4/4 14/2/4 13/1/4
f 17/1/5 18/2/5 19/3/5
f 20/4/5 18/2/5 17/1/5
f 21/1/6 22/2/6 23/3/6
f 24/4/6 22/2/6 21/1/6
o cenglobing.001
v 0.806796 0.848894 0.593689
v -0.335714 -0.808925 0.593689
v 0.806796 -0.808925 0.593689
v -0.335714 0.848894 0.593689
v 0.806796 0.848894 -0.593689
v -0.335714 0.848894 0.593689
v 0.806796 0.848894 0.593689
v -0.335714 0.848894 -0.593689
v 0.806796 -0.808925 -0.593689
v -0.335714 0.848894 -0.593689
v 0.806796 0.848894 -0.593689
v -0.335714 -0.808925 -0.593689
v 0.806796 -0.808925 0.593689
v -0.335714 -0.808925 -0.593689
v 0.806796 -0.808925 -0.593689
v -0.335714 -0.808925 0.593689
v 0.806796 0.848894 -0.593689
v 0.806796 -0.808925 0.593689
v 0.806796 -0.808925 -0.593689
v 0.806796 0.848894 0.593689
v -0.335714 0.848894 0.593689
v -0.335714 -0.808925 -0.593689
v -0.335714 -0.808925 0.593689
v -0.335714 0.848894 -0.593689
vt 1.000000 1.000000
vt 0.000000 0.000000
vt 1.000000 0.000000
vt 0.000000 1.000000
vn 0.000000 -0.000000 1.000000
vn 0.000000 1.000000 0.000000
vn 0.000000 0.000000 -1.000000
vn 0.000000 -1.000000 0.000000
vn 1.000000 0.000000 0.000000
vn -1.000000 -0.000000 0.000000
usemtl Default-Diffuse.002
s off
f 25/5/7 26/6/7 27/7/7
f 26/6/7 25/5/7 28/8/7
f 29/5/8 30/6/8 31/7/8
f 32/8/8 30/6/8 29/5/8
f 33/5/9 34/6/9 35/7/9
f 36/8/9 34/6/9 33/5/9
f 37/5/10 38/6/10 39/7/10
f 40/8/10 38/6/10 37/5/10
f 41/5/11 42/6/11 43/7/11
f 44/8/11 42/6/11 41/5/11
f 45/5/12 46/6/12 47/7/12
f 48/8/12 46/6/12 45/5/12
o cenglobing.002
v 1.210393 -0.841620 0.593689
v 0.067883 -1.884703 0.593689
v 1.210393 -1.884703 0.593689
v 0.067883 -0.841620 0.593689
v 1.210393 -0.841620 -0.593689
v 0.067883 -0.841620 0.593689
v 1.210393 -0.841620 0.593689
v 0.067883 -0.841620 -0.593689
v 1.210393 -1.884703 -0.593689
v 0.067883 -0.841620 -0.593689
v 1.210393 -0.841620 -0.593689
v 0.067883 -1.884703 -0.593689
v 1.210393 -1.884703 0.593689
v 0.067883 -1.884703 -0.593689
v 1.210393 -1.884703 -0.593689
v 0.067883 -1.884703 0.593689
v 1.210393 -0.841620 -0.593689
v 1.210393 -1.884703 0.593689
v 1.210393 -1.884703 -0.593689
v 1.210393 -0.841620 0.593689
v 0.067883 -0.841620 0.593689
v 0.067883 -1.884703 -0.593689
v 0.067883 -1.884703 0.593689
v 0.067883 -0.841620 -0.593689
vt 1.000000 1.000000
vt 0.000000 0.000000
vt 1.000000 0.000000
vt 0.000000 1.000000
vn 0.000000 0.000000 1.000000
vn 0.000000 1.000000 0.000000
vn 0.000000 0.000000 -1.000000
vn 0.000000 -1.000000 0.000000
vn 1.000000 0.000000 0.000000
vn -1.000000 0.000000 0.000000
usemtl Default-Diffuse.003
s off
f 49/9/13 50/10/13 51/11/13
f 50/10/13 49/9/13 52/12/13
f 53/9/14 54/10/14 55/11/14
f 56/12/14 54/10/14 53/9/14
f 57/9/15 58/10/15 59/11/15
f 60/12/15 58/10/15 57/9/15
f 61/9/16 62/10/16 63/11/16
f 64/12/16 62/10/16 61/9/16
f 65/9/17 66/10/17 67/11/17
f 68/12/17 66/10/17 65/9/17
f 69/9/18 70/10/18 71/11/18
f 72/12/18 70/10/18 69/9/18
