# Blender v2.72 (sub 0) OBJ File: ''
# www.blender.org
mtllib cenglobedd.mtl
o cenglobed.001
v 0.221501 0.922095 0.238381
v -0.221501 -0.541013 0.238381
v 0.221501 -0.541013 0.238381
v -0.221501 0.922095 0.238381
v 0.221501 0.922095 -0.238381
v -0.221501 0.922095 0.238381
v 0.221501 0.922095 0.238381
v -0.221501 0.922095 -0.238381
v 0.221501 -0.541013 -0.238381
v -0.221501 0.922095 -0.238381
v 0.221501 0.922095 -0.238381
v -0.221501 -0.541013 -0.238381
v 0.221501 -0.541013 0.238381
v -0.221501 -0.541013 -0.238381
v 0.221501 -0.541013 -0.238381
v -0.221501 -0.541013 0.238381
v 0.221501 0.922095 -0.238381
v 0.221501 -0.541013 0.238381
v 0.221501 -0.541013 -0.238381
v 0.221501 0.922095 0.238381
v -0.221501 0.922095 0.238381
v -0.221501 -0.541013 -0.238381
v -0.221501 -0.541013 0.238381
v -0.221501 0.922095 -0.238381
vt 1.000000 1.000000
vt 0.000000 0.000000
vt 1.000000 0.000000
vt 0.000000 1.000000
vn 0.000000 -0.000000 1.000000
vn 0.000000 1.000000 0.000000
vn 0.000000 0.000000 -1.000000
vn 0.000000 -1.000000 0.000000
vn 1.000000 0.000000 0.000000
vn -1.000000 0.000000 0.000000
usemtl Default-Diffuse.001
s off
f 1/1/1 2/2/1 3/3/1
f 2/2/1 1/1/1 4/4/1
f 5/1/2 6/2/2 7/3/2
f 8/4/2 6/2/2 5/1/2
f 9/1/3 10/2/3 11/3/3
f 12/4/3 10/2/3 9/1/3
f 13/1/4 14/2/4 15/3/4
f 16/4/4 14/2/4 13/1/4
f 17/1/5 18/2/5 19/3/5
f 20/4/5 18/2/5 17/1/5
f 21/1/6 22/2/6 23/3/6
f 24/4/6 22/2/6 21/1/6
