# Blender v2.69 (sub 0) OBJ File: ''
# www.blender.org
mtllib effectorroms.mtl
o foo.008
v 1.090316 0.617253 -2.686025
v 0.423252 -1.445111 -1.575248
v 0.530842 -1.123637 -0.874162
v -0.129128 -0.542077 -0.857760
v 1.591294 -0.328289 -1.577945
v -0.821014 0.292841 -2.118181
v -0.643776 0.065057 -2.760034
v 1.084765 -0.015850 -2.845459
v -0.630698 0.999688 -2.487045
v 0.241934 1.240240 -2.559365
v 0.790323 -1.137686 -2.197788
v 1.332510 0.665413 -1.852451
v 0.042869 0.002224 -3.091179
v 1.274555 -0.840054 -2.313032
vn -0.354110 -0.719196 -0.597798
vn 0.925530 -0.030693 -0.377429
vn 0.932264 0.080640 -0.352677
vn -0.597838 -0.689952 0.408114
vn -0.187707 0.413004 -0.891176
vn -0.399628 0.262154 -0.878392
vn 0.558429 0.802887 -0.208637
vn -0.810605 -0.585372 -0.016097
vn -0.390843 -0.712753 -0.582430
vn 0.136414 0.372406 -0.917990
vn 0.329293 0.330132 0.884635
vn 0.496269 -0.858200 -0.131183
vn -0.581562 0.493906 0.646407
vn 0.190356 -0.501394 -0.844020
vn 0.226936 0.235961 -0.944893
vn -0.134395 0.698771 0.702608
vn 0.674462 -0.704863 0.219702
vn 0.677226 -0.707799 0.200961
vn 0.325690 0.344772 0.880374
vn -0.821946 -0.564281 0.077407
vn -0.092819 0.697601 0.710449
vn 0.944101 0.167419 -0.283980
vn 0.142849 -0.550811 -0.822314
vn -0.949372 0.100246 -0.297731
usemtl None
s off
f 2//1 7//1 13//1
f 5//2 14//2 8//2
f 5//3 8//3 1//3
f 2//4 3//4 4//4
f 10//5 13//5 9//5
f 7//6 9//6 13//6
f 10//7 12//7 1//7
f 7//8 2//8 6//8
f 13//9 11//9 2//9
f 13//10 10//10 1//10
f 12//11 4//11 5//11
f 14//12 2//12 11//12
f 6//13 4//13 9//13
f 14//14 13//14 8//14
f 1//15 8//15 13//15
f 9//16 4//16 10//16
f 5//17 3//17 2//17
f 5//18 2//18 14//18
f 4//19 3//19 5//19
f 6//20 2//20 4//20
f 4//21 12//21 10//21
f 12//22 5//22 1//22
f 13//23 14//23 11//23
f 6//24 9//24 7//24
o foo.007
v 1.125208 -0.271734 -2.693151
v 0.732604 -1.326383 -1.948575
v -0.406475 -0.096621 -2.830812
v 1.313369 0.476134 -2.372009
v 0.253172 -1.350406 -1.412195
v -0.134173 0.756132 -2.788548
v -0.052197 -0.068426 -1.297554
v 1.391780 -0.676233 -2.021399
v 0.637254 0.128549 -2.921491
vn -0.468461 -0.758686 -0.452702
vn 0.549838 0.208934 -0.808718
vn 0.025249 -0.471939 -0.881269
vn 0.457869 0.029608 0.888526
vn 0.030502 0.875398 0.482440
vn 0.327277 0.563042 -0.758863
vn 0.623723 -0.572809 0.531846
vn -0.943712 -0.244695 0.222556
vn 0.915171 -0.059040 -0.398719
vn -0.934229 0.287883 0.210571
vn -0.103867 0.082291 -0.991181
vn 0.538009 -0.610574 -0.581159
vn 0.007168 -0.578508 -0.815645
vn 0.521910 0.280596 0.805528
usemtl None
s off
f 19//25 17//25 16//25
f 15//26 23//26 18//26
f 17//27 23//27 15//27
f 21//28 19//28 22//28
f 21//29 18//29 20//29
f 18//30 23//30 20//30
f 16//31 22//31 19//31
f 17//32 19//32 21//32
f 22//33 15//33 18//33
f 21//34 20//34 17//34
f 17//35 20//35 23//35
f 16//36 15//36 22//36
f 16//37 17//37 15//37
f 22//38 18//38 21//38
o foo.006
v -0.551784 0.820355 -1.319816
v 0.123166 1.535495 -0.560221
v -0.883166 -1.084853 0.099824
v 1.442583 -0.940091 -0.723662
v -0.980516 0.308676 1.245278
v -0.321726 -1.452179 0.958322
v 1.122049 1.518311 -0.461396
v 1.700575 0.097009 0.850090
vn -0.840631 -0.377756 0.388124
vn 0.401445 0.148752 -0.903723
vn -0.067581 -0.932499 -0.354792
vn -0.247916 -0.550753 -0.797000
vn 0.136490 -0.109387 0.984584
vn 0.574682 -0.723461 0.382550
vn 0.157680 0.703563 0.692919
vn -0.986495 0.057232 -0.153467
vn -0.733935 0.679099 0.012795
vn 0.083191 0.687616 -0.721293
vn 0.954537 0.151823 -0.256532
vn -0.039506 0.837538 0.544950
usemtl None
s off
f 26//39 29//39 28//39
f 24//40 30//40 27//40
f 29//41 26//41 27//41
f 24//42 27//42 26//42
f 31//43 28//43 29//43
f 27//44 31//44 29//44
f 30//45 28//45 31//45
f 24//46 26//46 28//46
f 28//47 25//47 24//47
f 24//48 25//48 30//48
f 31//49 27//49 30//49
f 25//50 28//50 30//50
o foo.004
v 0.198275 0.418686 -0.420947
v -2.371109 0.061230 1.116486
v -1.280417 1.157166 -1.351891
v -1.526422 -1.580833 -0.059607
v -1.799778 -1.301555 1.411864
v -0.331273 -1.342700 0.636231
v -2.742306 -0.854797 0.542416
v -1.926442 0.371157 -1.611461
v -0.094693 -0.500810 -0.790993
vn 0.440810 0.362759 0.821031
vn 0.443691 0.359355 0.820977
vn 0.576702 0.140156 -0.804842
vn -0.483291 -0.872176 0.075753
vn -0.763169 0.644166 -0.051215
vn 0.954638 -0.297277 -0.017115
vn 0.398727 -0.024977 -0.916730
vn 0.078219 -0.976689 0.199902
vn -0.707371 -0.146687 0.691454
vn 0.150883 0.877057 0.456075
vn -0.611615 -0.565343 -0.553457
vn -0.899380 0.425995 -0.098204
vn 0.060606 -0.613528 -0.787344
vn 0.403720 -0.815722 -0.414256
usemtl None
s off
f 32//51 33//51 36//51
f 32//52 36//52 37//52
f 32//53 40//53 34//53
f 38//54 35//54 36//54
f 34//55 39//55 33//55
f 32//56 37//56 40//56
f 40//57 39//57 34//57
f 36//58 35//58 37//58
f 36//59 33//59 38//59
f 33//60 32//60 34//60
f 38//61 39//61 35//61
f 38//62 33//62 39//62
f 35//63 39//63 40//63
f 40//64 37//64 35//64
