# Blender v2.72 (sub 0) OBJ File: 'rom.blend'
# www.blender.org
mtllib upper_left_arm_z_joint09.mtl
o foo.001
v -0.566212 1.059065 0.282095
v 0.857639 1.034173 -0.236806
v -0.082878 0.146725 0.400415
v -0.626483 0.505923 0.255636
v -0.647260 0.114848 -0.328131
v -0.609301 0.888576 -0.766813
v 0.325675 0.638060 -1.095731
v -0.221139 0.158297 -0.922437
v 0.131946 -0.193783 -0.277361
v 0.655654 0.159108 -0.504807
v 0.643306 0.444352 0.331111
vn 0.280500 0.610900 0.740300
vn 0.034300 0.146400 0.988600
vn -0.267700 -0.016900 0.963300
vn -0.993200 0.110100 -0.038400
vn 0.333500 -0.632600 -0.699000
vn 0.273000 -0.773700 -0.571700
vn -0.366700 -0.872800 0.322200
vn -0.768500 -0.286600 -0.572000
vn 0.367700 -0.779000 0.507900
vn -0.997400 0.066100 0.030200
vn -0.324800 0.028800 -0.945300
vn -0.333600 -0.892200 -0.304400
vn 0.962300 -0.252900 0.100500
vn 0.857800 -0.041100 -0.512300
vn 0.615100 -0.743400 0.262800
vn -0.040600 0.986500 -0.158700
vn -0.570200 -0.673000 0.471100
vn 0.076900 0.886400 -0.456400
usemtl None
s off
f 1//1 11//1 2//1
f 1//2 3//2 11//2
f 1//3 4//3 3//3
f 4//4 1//4 5//4
f 7//5 10//5 8//5
f 9//6 8//6 10//6
f 5//7 9//7 3//7
f 8//8 5//8 6//8
f 11//9 3//9 9//9
f 5//10 1//10 6//10
f 7//11 8//11 6//11
f 8//12 9//12 5//12
f 2//13 11//13 10//13
f 2//14 10//14 7//14
f 11//15 9//15 10//15
f 1//16 2//16 6//16
f 4//17 5//17 3//17
f 2//18 7//18 6//18
