# Blender v2.72 (sub 0) OBJ File: 'rom.blend'
# www.blender.org
mtllib upper_right_leg_z_joint09.mtl
o foo.004
v 0.898840 -0.202530 0.778259
v -0.483113 -0.719329 0.921834
v 0.214464 -0.829968 0.977646
v -0.211795 -0.503568 -0.955947
v -0.940403 -0.315281 -0.542540
v -0.197708 -1.209725 0.427242
v -0.149065 -1.213297 -0.245667
v -0.764758 -0.909525 -0.242923
v 0.714467 -1.036493 0.026072
v 0.613156 -0.087531 -0.836395
v 0.979415 -0.460037 -0.333598
v 0.696694 -0.903974 0.579761
v 0.408285 -0.800453 -0.724402
v 1.140852 -0.125553 -0.014458
v -1.051647 -0.257744 0.003836
vn 0.556500 -0.370800 0.743500
vn -0.683600 -0.675800 0.275600
vn -0.338600 -0.680400 -0.650000
vn -0.241400 0.798700 0.551100
vn -0.023900 0.326300 0.945000
vn 0.194700 -0.980700 0.019300
vn 0.910700 -0.332000 0.245800
vn 0.664900 -0.590800 -0.457100
vn 0.839100 0.104400 -0.533900
vn -0.924600 -0.349600 -0.151400
vn -0.835400 -0.473400 0.279300
vn 0.653500 -0.297200 -0.696200
vn -0.231800 0.663900 -0.710900
vn -0.169000 0.976000 -0.137200
vn -0.059300 0.994700 0.084100
vn -0.169900 -0.747100 0.642700
vn -0.077400 -0.708700 -0.701300
vn 0.302200 -0.867100 -0.396000
vn 0.900400 -0.415700 0.128400
vn 0.905400 -0.424400 -0.013200
vn 0.279000 -0.931900 0.232000
vn -0.521300 -0.502000 -0.690100
vn -0.059300 0.995100 0.078500
vn 0.224300 -0.872500 0.434100
vn -0.442400 -0.896400 -0.027200
vn 0.247400 -0.219300 -0.943800
usemtl None
s off
f 1//1 3//1 12//1
f 8//2 6//2 2//2
f 7//3 8//3 4//3
f 1//4 15//4 2//4
f 1//5 2//5 3//5
f 6//6 7//6 9//6
f 12//7 14//7 1//7
f 13//8 11//8 9//8
f 10//9 14//9 11//9
f 8//10 15//10 5//10
f 8//11 2//11 15//11
f 13//12 10//12 11//12
f 10//13 4//13 5//13
f 10//14 5//14 15//14
f 10//15 15//15 14//15
f 3//16 2//16 6//16
f 13//17 7//17 4//17
f 7//18 13//18 9//18
f 12//19 9//19 14//19
f 11//20 14//20 9//20
f 12//21 6//21 9//21
f 4//22 8//22 5//22
f 15//23 1//23 14//23
f 12//24 3//24 6//24
f 8//25 7//25 6//25
f 13//26 4//26 10//26
