# Blender v2.69 (sub 0) OBJ File: ''
# www.blender.org
mtllib across.mtl
o Cube_Cube.002
v 0.681075 1.423157 5.222672
v 0.681075 1.423159 -4.777328
v 0.681075 0.015157 5.222672
v 0.881075 1.423159 -4.777328
v 0.681075 0.015159 -4.777328
v 0.881075 1.423157 5.222672
v 0.881075 0.015159 -4.777328
v 0.881075 0.015157 5.222672
vt -0.000000 1.000000
vn -1.000000 0.000000 0.000000
vn 0.000000 0.000000 -1.000000
vn 1.000000 0.000000 0.000000
vn 0.000000 0.000000 1.000000
vn 0.000000 -1.000000 -0.000000
vn 0.000000 1.000000 0.000000
usemtl None
s off
f 1/1/1 2/1/1 3/1/1
f 2/1/2 4/1/2 5/1/2
f 4/1/3 6/1/3 7/1/3
f 6/1/4 1/1/4 8/1/4
f 3/1/5 5/1/5 8/1/5
f 4/1/6 1/1/6 6/1/6
f 2/1/1 5/1/1 3/1/1
f 4/1/2 7/1/2 5/1/2
f 6/1/3 8/1/3 7/1/3
f 1/1/4 3/1/4 8/1/4
f 5/1/5 7/1/5 8/1/5
f 2/1/6 1/1/6 4/1/6
o Plane
v -1.266018 0.000002 -4.789259
v -1.266018 -0.000002 5.210741
v 8.733983 0.000002 -4.789258
v 8.733982 -0.000002 5.210742
vt -0.000000 1.000000
vt 0.000000 0.000000
vt 1.000000 1.000000
vt 1.000000 0.000000
vn -0.000000 1.000000 0.000000
usemtl Default-Diffuse
s off
f 9/2/7 10/3/7 11/4/7
f 11/4/7 10/3/7 12/5/7
