# Blender v2.71 (sub 0) OBJ File: ''
# www.blender.org
mtllib appartzombi.mtl
o Cube.003
v 0.615151 -0.513347 -0.711249
v 0.615151 -0.513347 0.617503
v -0.170720 -0.513347 0.617503
v -0.170719 -0.513347 -0.711250
v 0.615151 1.038369 -0.711249
v 0.615151 1.038369 0.617504
v -0.170720 1.038369 0.617503
v -0.170720 1.038369 -0.711249
vn 0.000000 -1.000000 0.000000
vn 0.000000 1.000000 0.000000
vn 1.000000 -0.000000 0.000000
vn -0.000000 0.000000 1.000000
vn -1.000000 -0.000000 -0.000000
vn 0.000000 0.000000 -1.000000
usemtl Material.003
s off
f 2//1 3//1 4//1
f 8//2 7//2 6//2
f 1//3 5//3 6//3
f 6//4 7//4 3//4
f 7//5 8//5 4//5
f 1//6 4//6 8//6
f 1//1 2//1 4//1
f 5//2 8//2 6//2
f 2//3 1//3 6//3
f 2//4 6//4 3//4
f 3//5 7//5 4//5
f 5//6 1//6 8//6
o Cube.000_Cube.007
v 0.615151 -1.528850 -0.660559
v 0.615151 -1.528850 0.573494
v -0.170720 -1.528850 0.573494
v -0.170719 -1.528850 -0.660559
v 0.615151 -0.469061 -0.660558
v 0.615151 -0.469061 0.573494
v -0.170720 -0.469061 0.573494
v -0.170720 -0.469061 -0.660559
vn 0.000000 -1.000000 0.000000
vn 0.000000 1.000000 0.000000
vn 1.000000 -0.000000 0.000000
vn -0.000000 -0.000000 1.000000
vn -1.000000 -0.000000 -0.000000
vn 0.000000 0.000000 -1.000000
usemtl Material.007
s off
f 10//7 11//7 12//7
f 16//8 15//8 14//8
f 9//9 13//9 14//9
f 10//10 14//10 15//10
f 15//11 16//11 12//11
f 9//12 12//12 16//12
f 9//7 10//7 12//7
f 13//8 16//8 14//8
f 10//9 9//9 14//9
f 11//10 10//10 15//10
f 11//11 15//11 12//11
f 13//12 9//12 16//12
