mtllib ./chairlateral.unity_8.mtl
c 1 0.9 0.8 1
g dossier
v 0.6 0.7 -0.2102711
v 0.6 0.7 -0.2897296
v 0.6 1.75 -0.2102711
v 0.6 1.75 -0.2897296
v -0.6000002 1.75 -0.2102709
v -0.6000002 1.75 -0.2897294
v -0.6000002 0.7 -0.2102709
v -0.6000002 0.7 -0.2897294
v 0.6 1.75 -0.2102711
v 0.6 1.75 -0.2897296
v -0.6000002 1.75 -0.2102709
v -0.6000002 1.75 -0.2897294
v -0.6000002 0.7 -0.2102709
v 0.6 0.7 -0.2897296
v -0.6000002 0.7 -0.2897294
v 0.6 0.7 -0.2102711
v 0.6 0.7 -0.2897296
v -0.6000002 1.75 -0.2897294
v -0.6000002 0.7 -0.2897294
v 0.6 1.75 -0.2897296
v -0.6000002 0.7 -0.2102709
v 0.6 1.75 -0.2102711
v 0.6 0.7 -0.2102711
v -0.6000002 1.75 -0.2102709

vn 1 0 -1.192093E-07
vn 1 0 -1.192093E-07
vn 1 0 -1.192093E-07
vn 1 0 -1.192093E-07
vn 0 1 0
vn 0 1 0
vn -1 0 1.192093E-07
vn -1 0 1.192093E-07
vn 0 1 0
vn 0 1 0
vn -1 0 1.192093E-07
vn -1 0 1.192093E-07
vn 0 -1 0
vn 0 -1 0
vn 0 -1 0
vn 0 -1 0
vn -1.192093E-07 0 -1
vn -1.192093E-07 0 -1
vn -1.192093E-07 0 -1
vn -1.192093E-07 0 -1
vn 1.192093E-07 0 1
vn 1.192093E-07 0 1
vn 1.192093E-07 0 1
vn 1.192093E-07 0 1

vt 0 0
vt 1 0
vt 0 1
vt 1 1
vt 0 1
vt 1 1
vt 0 1
vt 1 1
vt 0 0
vt 1 0
vt 0 0
vt 1 0
vt 0 0
vt 1 1
vt 1 0
vt 0 1
vt 0 0
vt 1 1
vt 1 0
vt 0 1
vt 0 0
vt 1 1
vt 1 0
vt 0 1

usemtl Default-Diffuse
usemap Default-Diffuse
f 4/4/4 1/1/1 2/2/2
f 3/3/3 1/1/1 4/4/4
f 6/6/6 9/9/9 10/10/10
f 5/5/5 9/9/9 6/6/6
f 8/8/8 11/11/11 12/12/12
f 7/7/7 11/11/11 8/8/8
f 14/14/14 13/13/13 15/15/15
f 16/16/16 13/13/13 14/14/14
f 18/18/18 17/17/17 19/19/19
f 20/20/20 17/17/17 18/18/18
f 22/22/22 21/21/21 23/23/23
f 24/24/24 21/21/21 22/22/22
g pied
v 0.5625001 -0.5000739 -0.2125008
v 0.5625001 -0.5000739 -0.2875008
v 0.5625001 0.6999262 -0.2125008
v 0.5625001 0.6999262 -0.2875008
v 0.4875 0.6999262 -0.2125008
v 0.4875 0.6999262 -0.2875008
v 0.4875 -0.5000739 -0.2125008
v 0.4875 -0.5000739 -0.2875008
v 0.5625001 0.6999262 -0.2125008
v 0.5625001 0.6999262 -0.2875008
v 0.4875 0.6999262 -0.2125008
v 0.4875 0.6999262 -0.2875008
v 0.4875 -0.5000739 -0.2125008
v 0.5625001 -0.5000739 -0.2875008
v 0.4875 -0.5000739 -0.2875008
v 0.5625001 -0.5000739 -0.2125008
v 0.5625001 -0.5000739 -0.2875008
v 0.4875 0.6999262 -0.2875008
v 0.4875 -0.5000739 -0.2875008
v 0.5625001 0.6999262 -0.2875008
v 0.4875 -0.5000739 -0.2125008
v 0.5625001 0.6999262 -0.2125008
v 0.5625001 -0.5000739 -0.2125008
v 0.4875 0.6999262 -0.2125008

vn 1 0 -1.192093E-07
vn 1 0 -1.192093E-07
vn 1 0 -1.192093E-07
vn 1 0 -1.192093E-07
vn 0 1 0
vn 0 1 0
vn -1 0 1.192093E-07
vn -1 0 1.192093E-07
vn 0 1 0
vn 0 1 0
vn -1 0 1.192093E-07
vn -1 0 1.192093E-07
vn 0 -1 0
vn 0 -1 0
vn 0 -1 0
vn 0 -1 0
vn -1.192093E-07 0 -1
vn -1.192093E-07 0 -1
vn -1.192093E-07 0 -1
vn -1.192093E-07 0 -1
vn 1.192093E-07 0 1
vn 1.192093E-07 0 1
vn 1.192093E-07 0 1
vn 1.192093E-07 0 1

vt 0 0
vt 1 0
vt 0 1
vt 1 1
vt 0 1
vt 1 1
vt 0 1
vt 1 1
vt 0 0
vt 1 0
vt 0 0
vt 1 0
vt 0 0
vt 1 1
vt 1 0
vt 0 1
vt 0 0
vt 1 1
vt 1 0
vt 0 1
vt 0 0
vt 1 1
vt 1 0
vt 0 1

usemtl Default-Diffuse
usemap Default-Diffuse
f 28/28/28 25/25/25 26/26/26
f 27/27/27 25/25/25 28/28/28
f 30/30/30 33/33/33 34/34/34
f 29/29/29 33/33/33 30/30/30
f 32/32/32 35/35/35 36/36/36
f 31/31/31 35/35/35 32/32/32
f 38/38/38 37/37/37 39/39/39
f 40/40/40 37/37/37 38/38/38
f 42/42/42 41/41/41 43/43/43
f 44/44/44 41/41/41 42/42/42
f 46/46/46 45/45/45 47/47/47
f 48/48/48 45/45/45 46/46/46
g pied
v 0.562507 -0.5000735 0.6719096
v 0.562507 -0.5000735 0.5969096
v 0.562507 0.6999265 0.6719096
v 0.562507 0.6999265 0.5969096
v 0.487507 0.6999265 0.6719096
v 0.487507 0.6999265 0.5969096
v 0.487507 -0.5000735 0.6719096
v 0.487507 -0.5000735 0.5969096
v 0.562507 0.6999265 0.6719096
v 0.562507 0.6999265 0.5969096
v 0.487507 0.6999265 0.6719096
v 0.487507 0.6999265 0.5969096
v 0.487507 -0.5000735 0.6719096
v 0.562507 -0.5000735 0.5969096
v 0.487507 -0.5000735 0.5969096
v 0.562507 -0.5000735 0.6719096
v 0.562507 -0.5000735 0.5969096
v 0.487507 0.6999265 0.5969096
v 0.487507 -0.5000735 0.5969096
v 0.562507 0.6999265 0.5969096
v 0.487507 -0.5000735 0.6719096
v 0.562507 0.6999265 0.6719096
v 0.562507 -0.5000735 0.6719096
v 0.487507 0.6999265 0.6719096

vn 1 0 -1.192093E-07
vn 1 0 -1.192093E-07
vn 1 0 -1.192093E-07
vn 1 0 -1.192093E-07
vn 0 1 0
vn 0 1 0
vn -1 0 1.192093E-07
vn -1 0 1.192093E-07
vn 0 1 0
vn 0 1 0
vn -1 0 1.192093E-07
vn -1 0 1.192093E-07
vn 0 -1 0
vn 0 -1 0
vn 0 -1 0
vn 0 -1 0
vn -1.192093E-07 0 -1
vn -1.192093E-07 0 -1
vn -1.192093E-07 0 -1
vn -1.192093E-07 0 -1
vn 1.192093E-07 0 1
vn 1.192093E-07 0 1
vn 1.192093E-07 0 1
vn 1.192093E-07 0 1

vt 0 0
vt 1 0
vt 0 1
vt 1 1
vt 0 1
vt 1 1
vt 0 1
vt 1 1
vt 0 0
vt 1 0
vt 0 0
vt 1 0
vt 0 0
vt 1 1
vt 1 0
vt 0 1
vt 0 0
vt 1 1
vt 1 0
vt 0 1
vt 0 0
vt 1 1
vt 1 0
vt 0 1

usemtl Default-Diffuse
usemap Default-Diffuse
f 52/52/52 49/49/49 50/50/50
f 51/51/51 49/49/49 52/52/52
f 54/54/54 57/57/57 58/58/58
f 53/53/53 57/57/57 54/54/54
f 56/56/56 59/59/59 60/60/60
f 55/55/55 59/59/59 56/56/56
f 62/62/62 61/61/61 63/63/63
f 64/64/64 61/61/61 62/62/62
f 66/66/66 65/65/65 67/67/67
f 68/68/68 65/65/65 66/66/66
f 70/70/70 69/69/69 71/71/71
f 72/72/72 69/69/69 70/70/70
g pied
v -0.4694136 -0.5000735 0.6719205
v -0.4694136 -0.5000735 0.5969205
v -0.4694136 0.6999265 0.6719205
v -0.4694136 0.6999265 0.5969205
v -0.5444136 0.6999265 0.6719205
v -0.5444136 0.6999265 0.5969205
v -0.5444136 -0.5000735 0.6719205
v -0.5444136 -0.5000735 0.5969205
v -0.4694136 0.6999265 0.6719205
v -0.4694136 0.6999265 0.5969205
v -0.5444136 0.6999265 0.6719205
v -0.5444136 0.6999265 0.5969205
v -0.5444136 -0.5000735 0.6719205
v -0.4694136 -0.5000735 0.5969205
v -0.5444136 -0.5000735 0.5969205
v -0.4694136 -0.5000735 0.6719205
v -0.4694136 -0.5000735 0.5969205
v -0.5444136 0.6999265 0.5969205
v -0.5444136 -0.5000735 0.5969205
v -0.4694136 0.6999265 0.5969205
v -0.5444136 -0.5000735 0.6719205
v -0.4694136 0.6999265 0.6719205
v -0.4694136 -0.5000735 0.6719205
v -0.5444136 0.6999265 0.6719205

vn 1 0 -1.192093E-07
vn 1 0 -1.192093E-07
vn 1 0 -1.192093E-07
vn 1 0 -1.192093E-07
vn 0 1 0
vn 0 1 0
vn -1 0 1.192093E-07
vn -1 0 1.192093E-07
vn 0 1 0
vn 0 1 0
vn -1 0 1.192093E-07
vn -1 0 1.192093E-07
vn 0 -1 0
vn 0 -1 0
vn 0 -1 0
vn 0 -1 0
vn -1.192093E-07 0 -1
vn -1.192093E-07 0 -1
vn -1.192093E-07 0 -1
vn -1.192093E-07 0 -1
vn 1.192093E-07 0 1
vn 1.192093E-07 0 1
vn 1.192093E-07 0 1
vn 1.192093E-07 0 1

vt 0 0
vt 1 0
vt 0 1
vt 1 1
vt 0 1
vt 1 1
vt 0 1
vt 1 1
vt 0 0
vt 1 0
vt 0 0
vt 1 0
vt 0 0
vt 1 1
vt 1 0
vt 0 1
vt 0 0
vt 1 1
vt 1 0
vt 0 1
vt 0 0
vt 1 1
vt 1 0
vt 0 1

usemtl Default-Diffuse
usemap Default-Diffuse
f 76/76/76 73/73/73 74/74/74
f 75/75/75 73/73/73 76/76/76
f 78/78/78 81/81/81 82/82/82
f 77/77/77 81/81/81 78/78/78
f 80/80/80 83/83/83 84/84/84
f 79/79/79 83/83/83 80/80/80
f 86/86/86 85/85/85 87/87/87
f 88/88/88 85/85/85 86/86/86
f 90/90/90 89/89/89 91/91/91
f 92/92/92 89/89/89 90/90/90
f 94/94/94 93/93/93 95/95/95
f 96/96/96 93/93/93 94/94/94
g pied
v -0.469407 -0.5000735 -0.2125112
v -0.469407 -0.5000735 -0.2875113
v -0.469407 0.6999265 -0.2125112
v -0.469407 0.6999265 -0.2875113
v -0.544407 0.6999265 -0.2125112
v -0.544407 0.6999265 -0.2875112
v -0.544407 -0.5000735 -0.2125112
v -0.544407 -0.5000735 -0.2875112
v -0.469407 0.6999265 -0.2125112
v -0.469407 0.6999265 -0.2875113
v -0.544407 0.6999265 -0.2125112
v -0.544407 0.6999265 -0.2875112
v -0.544407 -0.5000735 -0.2125112
v -0.469407 -0.5000735 -0.2875113
v -0.544407 -0.5000735 -0.2875112
v -0.469407 -0.5000735 -0.2125112
v -0.469407 -0.5000735 -0.2875113
v -0.544407 0.6999265 -0.2875112
v -0.544407 -0.5000735 -0.2875112
v -0.469407 0.6999265 -0.2875113
v -0.544407 -0.5000735 -0.2125112
v -0.469407 0.6999265 -0.2125112
v -0.469407 -0.5000735 -0.2125112
v -0.544407 0.6999265 -0.2125112

vn 1 0 -1.192093E-07
vn 1 0 -1.192093E-07
vn 1 0 -1.192093E-07
vn 1 0 -1.192093E-07
vn 0 1 0
vn 0 1 0
vn -1 0 1.192093E-07
vn -1 0 1.192093E-07
vn 0 1 0
vn 0 1 0
vn -1 0 1.192093E-07
vn -1 0 1.192093E-07
vn 0 -1 0
vn 0 -1 0
vn 0 -1 0
vn 0 -1 0
vn -1.192093E-07 0 -1
vn -1.192093E-07 0 -1
vn -1.192093E-07 0 -1
vn -1.192093E-07 0 -1
vn 1.192093E-07 0 1
vn 1.192093E-07 0 1
vn 1.192093E-07 0 1
vn 1.192093E-07 0 1

vt 0 0
vt 1 0
vt 0 1
vt 1 1
vt 0 1
vt 1 1
vt 0 1
vt 1 1
vt 0 0
vt 1 0
vt 0 0
vt 1 0
vt 0 0
vt 1 1
vt 1 0
vt 0 1
vt 0 0
vt 1 1
vt 1 0
vt 0 1
vt 0 0
vt 1 1
vt 1 0
vt 0 1

usemtl Default-Diffuse
usemap Default-Diffuse
f 100/100/100 97/97/97 98/98/98
f 99/99/99 97/97/97 100/100/100
f 102/102/102 105/105/105 106/106/106
f 101/101/101 105/105/105 102/102/102
f 104/104/104 107/107/107 108/108/108
f 103/103/103 107/107/107 104/104/104
f 110/110/110 109/109/109 111/111/111
f 112/112/112 109/109/109 110/110/110
f 114/114/114 113/113/113 115/115/115
f 116/116/116 113/113/113 114/114/114
f 118/118/118 117/117/117 119/119/119
f 120/120/120 117/117/117 118/118/118
g siege
v 0.6000001 0.7 0.682292
v 0.6 0.7 -0.2177081
v 0.6000001 0.85 0.682292
v 0.6 0.85 -0.2177081
v -0.6000001 0.85 0.6822922
v -0.6000002 0.85 -0.2177079
v -0.6000001 0.7 0.6822922
v -0.6000002 0.7 -0.2177079
v 0.6000001 0.85 0.682292
v 0.6 0.85 -0.2177081
v -0.6000001 0.85 0.6822922
v -0.6000002 0.85 -0.2177079
v -0.6000001 0.7 0.6822922
v 0.6 0.7 -0.2177081
v -0.6000002 0.7 -0.2177079
v 0.6000001 0.7 0.682292
v 0.6 0.7 -0.2177081
v -0.6000002 0.85 -0.2177079
v -0.6000002 0.7 -0.2177079
v 0.6 0.85 -0.2177081
v -0.6000001 0.7 0.6822922
v 0.6000001 0.85 0.682292
v 0.6000001 0.7 0.682292
v -0.6000001 0.85 0.6822922

vn 1 0 -1.192093E-07
vn 1 0 -1.192093E-07
vn 1 0 -1.192093E-07
vn 1 0 -1.192093E-07
vn 0 1 0
vn 0 1 0
vn -1 0 1.192093E-07
vn -1 0 1.192093E-07
vn 0 1 0
vn 0 1 0
vn -1 0 1.192093E-07
vn -1 0 1.192093E-07
vn 0 -1 0
vn 0 -1 0
vn 0 -1 0
vn 0 -1 0
vn -1.192093E-07 0 -1
vn -1.192093E-07 0 -1
vn -1.192093E-07 0 -1
vn -1.192093E-07 0 -1
vn 1.192093E-07 0 1
vn 1.192093E-07 0 1
vn 1.192093E-07 0 1
vn 1.192093E-07 0 1

vt 0 0
vt 1 0
vt 0 1
vt 1 1
vt 0 1
vt 1 1
vt 0 1
vt 1 1
vt 0 0
vt 1 0
vt 0 0
vt 1 0
vt 0 0
vt 1 1
vt 1 0
vt 0 1
vt 0 0
vt 1 1
vt 1 0
vt 0 1
vt 0 0
vt 1 1
vt 1 0
vt 0 1

usemtl Default-Diffuse
usemap Default-Diffuse
f 124/124/124 121/121/121 122/122/122
f 123/123/123 121/121/121 124/124/124
f 126/126/126 129/129/129 130/130/130
f 125/125/125 129/129/129 126/126/126
f 128/128/128 131/131/131 132/132/132
f 127/127/127 131/131/131 128/128/128
f 134/134/134 133/133/133 135/135/135
f 136/136/136 133/133/133 134/134/134
f 138/138/138 137/137/137 139/139/139
f 140/140/140 137/137/137 138/138/138
f 142/142/142 141/141/141 143/143/143
f 144/144/144 141/141/141 142/142/142
c 1 0.9 0.6 1
g table
v -3 1.2 7.2
v 3 1.2 7.2
v -3 1.3 7.2
v 3 1.3 7.2
v -3 1.3 1.2
v 3 1.3 1.2
v -3 1.2 1.2
v 3 1.2 1.2
v -3 1.3 7.2
v 3 1.3 7.2
v -3 1.3 1.2
v 3 1.3 1.2
v -3 1.2 1.2
v 3 1.2 7.2
v 3 1.2 1.2
v -3 1.2 7.2
v 3 1.2 7.2
v 3 1.3 1.2
v 3 1.2 1.2
v 3 1.3 7.2
v -3 1.2 1.2
v -3 1.3 7.2
v -3 1.2 7.2
v -3 1.3 1.2

vn 0 0 1
vn 0 0 1
vn 0 0 1
vn 0 0 1
vn 0 1 0
vn 0 1 0
vn 0 0 -1
vn 0 0 -1
vn 0 1 0
vn 0 1 0
vn 0 0 -1
vn 0 0 -1
vn 0 -1 0
vn 0 -1 0
vn 0 -1 0
vn 0 -1 0
vn 1 0 0
vn 1 0 0
vn 1 0 0
vn 1 0 0
vn -1 0 0
vn -1 0 0
vn -1 0 0
vn -1 0 0

vt 0 0
vt 1 0
vt 0 1
vt 1 1
vt 0 1
vt 1 1
vt 0 1
vt 1 1
vt 0 0
vt 1 0
vt 0 0
vt 1 0
vt 0 0
vt 1 1
vt 1 0
vt 0 1
vt 0 0
vt 1 1
vt 1 0
vt 0 1
vt 0 0
vt 1 1
vt 1 0
vt 0 1

usemtl Default-Diffuse
usemap Default-Diffuse
f 148/148/148 145/145/145 146/146/146
f 147/147/147 145/145/145 148/148/148
f 150/150/150 153/153/153 154/154/154
f 149/149/149 153/153/153 150/150/150
f 152/152/152 155/155/155 156/156/156
f 151/151/151 155/155/155 152/152/152
f 158/158/158 157/157/157 159/159/159
f 160/160/160 157/157/157 158/158/158
f 162/162/162 161/161/161 163/163/163
f 164/164/164 161/161/161 162/162/162
f 166/166/166 165/165/165 167/167/167
f 168/168/168 165/165/165 166/166/166
c 0.8 0.8 1 1
g sol
v -10 -1.5 10
v 10 -1.5 10
v -10 -0.5 10
v 10 -0.5 10
v -10 -0.5 -10
v 10 -0.5 -10
v -10 -1.5 -10
v 10 -1.5 -10
v -10 -0.5 10
v 10 -0.5 10
v -10 -0.5 -10
v 10 -0.5 -10
v -10 -1.5 -10
v 10 -1.5 10
v 10 -1.5 -10
v -10 -1.5 10
v 10 -1.5 10
v 10 -0.5 -10
v 10 -1.5 -10
v 10 -0.5 10
v -10 -1.5 -10
v -10 -0.5 10
v -10 -1.5 10
v -10 -0.5 -10

vn 0 0 1
vn 0 0 1
vn 0 0 1
vn 0 0 1
vn 0 1 0
vn 0 1 0
vn 0 0 -1
vn 0 0 -1
vn 0 1 0
vn 0 1 0
vn 0 0 -1
vn 0 0 -1
vn 0 -1 0
vn 0 -1 0
vn 0 -1 0
vn 0 -1 0
vn 1 0 0
vn 1 0 0
vn 1 0 0
vn 1 0 0
vn -1 0 0
vn -1 0 0
vn -1 0 0
vn -1 0 0

vt 0 0
vt 1 0
vt 0 1
vt 1 1
vt 0 1
vt 1 1
vt 0 1
vt 1 1
vt 0 0
vt 1 0
vt 0 0
vt 1 0
vt 0 0
vt 1 1
vt 1 0
vt 0 1
vt 0 0
vt 1 1
vt 1 0
vt 0 1
vt 0 0
vt 1 1
vt 1 0
vt 0 1

usemtl Default-Diffuse
usemap Default-Diffuse
f 172/172/172 169/169/169 170/170/170
f 171/171/171 169/169/169 172/172/172
f 174/174/174 177/177/177 178/178/178
f 173/173/173 177/177/177 174/174/174
f 176/176/176 179/179/179 180/180/180
f 175/175/175 179/179/179 176/176/176
f 182/182/182 181/181/181 183/183/183
f 184/184/184 181/181/181 182/182/182
f 186/186/186 185/185/185 187/187/187
f 188/188/188 185/185/185 186/186/186
f 190/190/190 189/189/189 191/191/191
f 192/192/192 189/189/189 190/190/190
