# Blender v2.69 (sub 0) OBJ File: ''
# www.blender.org
mtllib crouch.mtl
o Plane.002
v 0.647631 3.369975 -4.789258
v 0.647630 3.369973 5.210742
v 0.647631 1.369975 -4.789258
v 0.647630 1.369973 5.210742
vt -0.000000 1.000000
vt 0.000000 0.000000
vt 1.000000 1.000000
vt 1.000000 0.000000
vn 1.000000 0.000000 0.000000
usemtl Default-Diffuse.002
s off
f 1/1/1 2/2/1 3/3/1
f 3/3/1 2/2/1 4/4/1
o Plane
v -1.266018 0.000002 -4.789259
v -1.266018 -0.000002 5.210741
v 8.733983 0.000002 -4.789258
v 8.733982 -0.000002 5.210742
vt -0.000000 1.000000
vt 0.000000 0.000000
vt 1.000000 1.000000
vt 1.000000 0.000000
vn -0.000000 1.000000 0.000000
usemtl Default-Diffuse
s off
f 5/5/2 6/6/2 7/7/2
f 7/7/2 6/6/2 8/8/2
o Plane.001
v 0.647630 1.377839 -4.789259
v 0.647631 1.377837 5.210741
v 0.647630 3.377839 -4.789258
v 0.647631 3.377837 5.210742
vt -0.000000 1.000000
vt 0.000000 0.000000
vt 1.000000 1.000000
vt 1.000000 0.000000
vn -1.000000 -0.000000 0.000000
usemtl Default-Diffuse.001
s off
f 9/9/3 10/10/3 11/11/3
f 11/11/3 10/10/3 12/12/3
