# Blender v2.69 (sub 0) OBJ File: ''
# www.blender.org
mtllib cube07.mtl
o Cube.002
v 0.227026 -0.498716 -0.189410
v 0.227026 -0.498716 0.189410
v -0.227026 -0.498716 0.189410
v -0.227026 -0.498716 -0.189410
v 0.227026 0.498716 -0.189410
v -0.227026 0.498716 -0.189410
v -0.227026 0.498716 0.189410
v 0.227026 0.498716 0.189410
vn 0.000000 -1.000000 -0.000000
vn -0.000000 1.000000 0.000000
vn 1.000000 -0.000000 0.000002
vn 1.000000 0.000001 0.000000
vn 0.000000 -0.000000 1.000000
vn -1.000000 0.000000 0.000000
vn 0.000000 0.000001 -1.000000
vn 0.000002 0.000000 -1.000000
usemtl Material.002
s off
f 1//1 2//1 3//1
f 1//1 3//1 4//1
f 5//2 6//2 7//2
f 5//2 7//2 8//2
f 1//3 5//3 8//3
f 1//4 8//4 2//4
f 2//5 8//5 7//5
f 2//5 7//5 3//5
f 3//6 7//6 6//6
f 3//6 6//6 4//6
f 5//7 1//7 4//7
f 5//8 4//8 6//8
