# Blender v2.69 (sub 0) OBJ File: ''
# www.blender.org
mtllib cubeenglob.mtl
o Cube.003
v 0.643781 -1.189566 -0.821810
v 0.643781 -1.189567 0.382330
v -0.643781 -1.189567 0.382330
v -0.643781 -1.189566 -0.821810
v 0.643781 1.189567 -0.821808
v -0.643781 1.189567 -0.821810
v -0.643781 1.189566 0.382332
v 0.643780 1.189566 0.382332
vn 0.000000 -1.000000 -0.000001
vn -0.000000 1.000000 0.000001
vn 1.000000 -0.000000 0.000001
vn 1.000000 0.000000 0.000000
vn 0.000000 -0.000001 1.000000
vn -1.000000 0.000000 0.000000
vn 0.000000 0.000001 -1.000000
vn 0.000001 0.000000 -1.000000
usemtl Material.003
s off
f 1//1 2//1 3//1
f 1//1 3//1 4//1
f 5//2 6//2 7//2
f 5//2 7//2 8//2
f 1//3 5//3 8//3
f 1//4 8//4 2//4
f 2//5 8//5 7//5
f 2//5 7//5 3//5
f 3//6 7//6 6//6
f 3//6 6//6 4//6
f 5//7 1//7 4//7
f 5//8 4//8 6//8
