# Blender v2.71 (sub 0) OBJ File: ''
# www.blender.org
mtllib kitchen.mtl
o Cube.001
v -1.000000 0.028754 1.000000
v -1.000000 0.028754 -1.000000
v 1.000000 0.028754 -1.000000
v 1.000000 0.028754 1.000000
v -1.000000 0.662854 1.000000
v -1.000000 0.662854 -1.000000
v 1.000000 0.662854 -1.000000
v 1.000000 0.662854 1.000000
vn -1.000000 0.000000 0.000000
vn 0.000000 0.000000 -1.000000
vn 1.000000 0.000000 0.000000
vn 0.000000 0.000000 1.000000
vn 0.000000 -1.000000 0.000000
vn 0.000000 1.000000 0.000000
usemtl None
s off
f 6//1 2//1 1//1
f 7//2 3//2 2//2
f 8//3 4//3 3//3
f 5//4 1//4 4//4
f 2//5 3//5 4//5
f 7//6 6//6 5//6
f 5//1 6//1 1//1
f 6//2 7//2 2//2
f 7//3 8//3 3//3
f 8//4 5//4 4//4
f 1//5 2//5 4//5
f 8//6 7//6 5//6
o Cube
v 11.191306 -0.278264 -11.191493
v 11.191306 -0.278264 11.191494
v -11.191307 -0.278264 11.191492
v -11.191302 -0.278264 -11.191498
v 11.191312 0.035007 -11.191488
v 11.191298 0.035007 11.191501
v -11.191310 0.035007 11.191490
v -11.191305 0.035007 -11.191494
vn 0.000000 -1.000000 0.000000
vn 0.000000 1.000000 -0.000000
vn 1.000000 -0.000000 0.000000
vn -0.000000 -0.000000 1.000000
vn -1.000000 -0.000000 -0.000000
vn 0.000000 0.000000 -1.000000
usemtl Material
s off
f 9//7 10//7 11//7
f 16//8 15//8 14//8
f 9//9 13//9 14//9
f 10//10 14//10 15//10
f 15//11 16//11 12//11
f 13//12 9//12 12//12
f 12//7 9//7 11//7
f 13//8 16//8 14//8
f 10//9 9//9 14//9
f 11//10 10//10 15//10
f 11//11 15//11 12//11
f 16//12 13//12 12//12
o Cube.002
v -3.057735 -0.017693 1.000000
v -3.057735 -0.017693 -1.000000
v -1.057735 -0.017693 -1.000000
v -1.057735 -0.017693 1.000000
v -3.057735 3.111329 1.000000
v -3.057735 3.111329 -1.000000
v -1.057735 3.111329 -1.000000
v -1.057735 3.111329 1.000000
vn -1.000000 0.000000 0.000000
vn 0.000000 0.000000 -1.000000
vn 1.000000 0.000000 0.000000
vn 0.000000 0.000000 1.000000
vn 0.000000 -1.000000 0.000000
vn 0.000000 1.000000 0.000000
usemtl None
s off
f 22//13 18//13 17//13
f 23//14 19//14 18//14
f 24//15 20//15 19//15
f 21//16 17//16 20//16
f 18//17 19//17 20//17
f 23//18 22//18 21//18
f 21//13 22//13 17//13
f 22//14 23//14 18//14
f 23//15 24//15 19//15
f 24//16 21//16 20//16
f 17//17 18//17 20//17
f 24//18 23//18 21//18
o Cube.003
v -1.110182 0.054602 -3.117167
v -1.110182 0.054602 -5.117167
v 0.889818 0.054602 -5.117167
v 0.889818 0.054602 -3.117167
v -1.110182 2.303598 -3.117167
v -1.110182 2.303598 -5.117167
v 0.889818 2.303598 -5.117167
v 0.889818 2.303598 -3.117167
vn -1.000000 0.000000 0.000000
vn 0.000000 0.000000 -1.000000
vn 1.000000 0.000000 0.000000
vn 0.000000 0.000000 1.000000
vn 0.000000 -1.000000 0.000000
vn 0.000000 1.000000 0.000000
usemtl None
s off
f 30//19 26//19 25//19
f 31//20 27//20 26//20
f 32//21 28//21 27//21
f 29//22 25//22 28//22
f 26//23 27//23 28//23
f 31//24 30//24 29//24
f 29//19 30//19 25//19
f 30//20 31//20 26//20
f 31//21 32//21 27//21
f 32//22 29//22 28//22
f 25//23 26//23 28//23
f 32//24 31//24 29//24
o Cube.004
v -0.982805 4.877176 -1.068039
v -0.982805 4.877176 -3.068039
v 1.017195 4.877176 -3.068039
v 1.017195 4.877176 -1.068039
v -0.982805 -3.694769 -1.068039
v -0.982805 -3.694769 -3.068039
v 1.017195 -3.694769 -3.068039
v 1.017195 -3.694769 -1.068039
vn 1.000000 0.000000 0.000000
vn 0.000000 0.000000 1.000000
vn -1.000000 0.000000 0.000000
vn 0.000000 0.000000 -1.000000
vn 0.000000 -1.000000 0.000000
vn 0.000000 1.000000 0.000000
usemtl None
s off
f 38//25 34//25 33//25
f 39//26 35//26 34//26
f 40//27 36//27 35//27
f 37//28 33//28 36//28
f 34//29 35//29 36//29
f 39//30 38//30 37//30
f 37//25 38//25 33//25
f 38//26 39//26 34//26
f 39//27 40//27 35//27
f 40//28 37//28 36//28
f 33//29 34//29 36//29
f 40//30 39//30 37//30
o Cube.005
v 1.010356 -1.179066 -1.068039
v 1.010356 -1.179066 -3.068039
v 3.010356 -1.179066 -3.068039
v 3.010356 -1.179066 -1.068039
v 1.010356 2.361473 -1.068039
v 1.010356 2.361473 -3.068039
v 3.010356 2.361473 -3.068039
v 3.010356 2.361473 -1.068039
vn -1.000000 0.000000 0.000000
vn 0.000000 0.000000 -1.000000
vn 1.000000 0.000000 0.000000
vn 0.000000 0.000000 1.000000
vn 0.000000 -1.000000 0.000000
vn 0.000000 1.000000 0.000000
usemtl None
s off
f 46//31 42//31 41//31
f 47//32 43//32 42//32
f 48//33 44//33 43//33
f 45//34 41//34 44//34
f 42//35 43//35 44//35
f 47//36 46//36 45//36
f 45//31 46//31 41//31
f 46//32 47//32 42//32
f 47//33 48//33 43//33
f 48//34 45//34 44//34
f 41//35 42//35 44//35
f 48//36 47//36 45//36
o Cube.006
v 1.010356 -2.501823 -3.048512
v 1.010356 -2.501823 -5.048512
v 3.010356 -2.501823 -5.048512
v 3.010356 -2.501823 -3.048512
v 1.010356 3.684230 -3.048512
v 1.010356 3.684230 -5.048512
v 3.010356 3.684230 -5.048512
v 3.010356 3.684230 -3.048512
vn -1.000000 0.000000 0.000000
vn 0.000000 0.000000 -1.000000
vn 1.000000 0.000000 0.000000
vn 0.000000 0.000000 1.000000
vn 0.000000 -1.000000 0.000000
vn 0.000000 1.000000 0.000000
usemtl None
s off
f 54//37 50//37 49//37
f 55//38 51//38 50//38
f 56//39 52//39 51//39
f 53//40 49//40 52//40
f 50//41 51//41 52//41
f 55//42 54//42 53//42
f 53//37 54//37 49//37
f 54//38 55//38 50//38
f 55//39 56//39 51//39
f 56//40 53//40 52//40
f 49//41 50//41 52//41
f 56//42 55//42 53//42
o Cube.007
v 1.010356 1.468112 0.944553
v 1.010356 1.468112 -1.055447
v 3.010356 1.468112 -1.055447
v 3.010356 1.468112 0.944553
v 1.010356 -0.285705 0.944553
v 1.010356 -0.285705 -1.055447
v 3.010356 -0.285705 -1.055447
v 3.010356 -0.285705 0.944553
vn 1.000000 0.000000 0.000000
vn 0.000000 0.000000 1.000000
vn -1.000000 0.000000 0.000000
vn 0.000000 0.000000 -1.000000
vn 0.000000 -1.000000 0.000000
vn 0.000000 1.000000 0.000000
usemtl None
s off
f 62//43 58//43 57//43
f 63//44 59//44 58//44
f 64//45 60//45 59//45
f 61//46 57//46 60//46
f 58//47 59//47 60//47
f 63//48 62//48 61//48
f 61//43 62//43 57//43
f 62//44 63//44 58//44
f 63//45 64//45 59//45
f 64//46 61//46 60//46
f 57//47 58//47 60//47
f 64//48 63//48 61//48
o Cube.008
v 0.969764 6.514745 -5.016039
v 0.969764 6.514745 -7.016039
v 2.969764 6.514745 -7.016039
v 2.969764 6.514745 -5.016039
v 0.969764 -5.332337 -5.016039
v 0.969764 -5.332337 -7.016039
v 2.969764 -5.332337 -7.016039
v 2.969764 -5.332337 -5.016039
vn 1.000000 0.000000 0.000000
vn 0.000000 0.000000 1.000000
vn -1.000000 0.000000 0.000000
vn 0.000000 0.000000 -1.000000
vn 0.000000 -1.000000 0.000000
vn 0.000000 1.000000 0.000000
usemtl None
s off
f 70//49 66//49 65//49
f 71//50 67//50 66//50
f 72//51 68//51 67//51
f 69//52 65//52 68//52
f 66//53 67//53 68//53
f 71//54 70//54 69//54
f 69//49 70//49 65//49
f 70//50 71//50 66//50
f 71//51 72//51 67//51
f 72//52 69//52 68//52
f 65//53 66//53 68//53
f 72//54 71//54 69//54
o Cube.009
v -3.068254 0.054602 -1.026228
v -3.068254 0.054602 -3.026228
v -1.068254 0.054602 -3.026228
v -1.068254 0.054602 -1.026228
v -3.068254 2.303598 -1.026228
v -3.068254 2.303598 -3.026228
v -1.068254 2.303598 -3.026228
v -1.068254 2.303598 -1.026228
vn -1.000000 0.000000 0.000000
vn 0.000000 0.000000 -1.000000
vn 1.000000 0.000000 0.000000
vn 0.000000 0.000000 1.000000
vn 0.000000 -1.000000 0.000000
vn 0.000000 1.000000 0.000000
usemtl None
s off
f 78//55 74//55 73//55
f 79//56 75//56 74//56
f 80//57 76//57 75//57
f 77//58 73//58 76//58
f 74//59 75//59 76//59
f 79//60 78//60 77//60
f 77//55 78//55 73//55
f 78//56 79//56 74//56
f 79//57 80//57 75//57
f 80//58 77//58 76//58
f 73//59 74//59 76//59
f 80//60 79//60 77//60
o Cube.010
v -3.068254 -3.257095 -3.020454
v -3.068254 -3.257095 -5.020454
v -1.068254 -3.257095 -5.020454
v -1.068254 -3.257095 -3.020454
v -3.068254 5.615294 -3.020454
v -3.068254 5.615294 -5.020454
v -1.068254 5.615294 -5.020454
v -1.068254 5.615294 -3.020454
vn -1.000000 0.000000 0.000000
vn 0.000000 0.000000 -1.000000
vn 1.000000 0.000000 0.000000
vn 0.000000 0.000000 1.000000
vn 0.000000 -1.000000 0.000000
vn 0.000000 1.000000 0.000000
usemtl None
s off
f 86//61 82//61 81//61
f 87//62 83//62 82//62
f 88//63 84//63 83//63
f 85//64 81//64 84//64
f 82//65 83//65 84//65
f 87//66 86//66 85//66
f 85//61 86//61 81//61
f 86//62 87//62 82//62
f 87//63 88//63 83//63
f 88//64 85//64 84//64
f 81//65 82//65 84//65
f 88//66 87//66 85//66
