# Blender v2.72 (sub 0) OBJ File: 'race_climb.blend'
# www.blender.org
mtllib race_climb.mtl
o Cube.012_Cube.014
v 0.187542 -0.847251 -0.083375
v 0.187542 -0.847251 -0.383375
v 0.487542 -0.847251 -0.383375
v 0.487542 -0.847251 -0.083375
v 0.187542 0.152749 -0.083375
v 0.187542 0.152749 -0.383375
v 0.487542 0.152749 -0.383375
v 0.487542 0.152749 -0.083375
vn -1.000000 0.000000 0.000000
vn 0.000000 0.000000 -1.000000
vn 1.000000 0.000000 0.000000
vn 0.000000 0.000000 1.000000
vn 0.000000 -1.000000 0.000000
vn 0.000000 1.000000 0.000000
usemtl None
s off
f 6//1 2//1 1//1
f 7//2 3//2 2//2
f 8//3 4//3 3//3
f 5//4 1//4 4//4
f 2//5 3//5 4//5
f 7//6 6//6 5//6
f 5//1 6//1 1//1
f 6//2 7//2 2//2
f 7//3 8//3 3//3
f 8//4 5//4 4//4
f 1//5 2//5 4//5
f 8//6 7//6 5//6
o Cube.013_Cube.015
v 0.221636 -0.501590 0.504540
v 0.221636 -0.501590 0.204540
v 0.521636 -0.501590 0.204540
v 0.521636 -0.501590 0.504540
v 0.221636 0.498410 0.504540
v 0.221636 0.498410 0.204540
v 0.521636 0.498410 0.204540
v 0.521636 0.498410 0.504540
vn -1.000000 0.000000 0.000000
vn 0.000000 0.000000 -1.000000
vn 1.000000 0.000000 0.000000
vn 0.000000 0.000000 1.000000
vn 0.000000 -1.000000 0.000000
vn 0.000000 1.000000 0.000000
usemtl None
s off
f 14//7 10//7 9//7
f 15//8 11//8 10//8
f 16//9 12//9 11//9
f 13//10 9//10 12//10
f 10//11 11//11 12//11
f 15//12 14//12 13//12
f 13//7 14//7 9//7
f 14//8 15//8 10//8
f 15//9 16//9 11//9
f 16//10 13//10 12//10
f 9//11 10//11 12//11
f 16//12 15//12 13//12
o Cube.014_Cube.016
v 0.406863 1.063973 -0.491283
v 0.406863 1.063973 -0.691283
v 0.506863 1.063973 -0.691283
v 0.506863 1.063973 -0.491283
v 0.406863 1.263973 -0.491283
v 0.406863 1.263973 -0.691283
v 0.506863 1.263973 -0.691283
v 0.506863 1.263973 -0.491283
vn -1.000000 0.000000 0.000000
vn 0.000000 0.000000 -1.000000
vn 1.000000 0.000000 0.000000
vn 0.000000 0.000000 1.000000
vn 0.000000 -1.000000 0.000000
vn 0.000000 1.000000 0.000000
usemtl None
s off
f 22//13 18//13 17//13
f 23//14 19//14 18//14
f 24//15 20//15 19//15
f 21//16 17//16 20//16
f 18//17 19//17 20//17
f 23//18 22//18 21//18
f 21//13 22//13 17//13
f 22//14 23//14 18//14
f 23//15 24//15 19//15
f 24//16 21//16 20//16
f 17//17 18//17 20//17
f 24//18 23//18 21//18
o Cube.015_Cube.017
v 0.406863 0.598643 -0.497648
v 0.406863 0.598643 -0.697648
v 0.506863 0.598643 -0.697648
v 0.506863 0.598643 -0.497648
v 0.406863 0.798643 -0.497648
v 0.406863 0.798643 -0.697648
v 0.506863 0.798643 -0.697648
v 0.506863 0.798643 -0.497648
vn -1.000000 0.000000 0.000000
vn 0.000000 0.000000 -1.000000
vn 1.000000 0.000000 0.000000
vn 0.000000 0.000000 1.000000
vn 0.000000 -1.000000 0.000000
vn 0.000000 1.000000 0.000000
usemtl None
s off
f 30//19 26//19 25//19
f 31//20 27//20 26//20
f 32//21 28//21 27//21
f 29//22 25//22 28//22
f 26//23 27//23 28//23
f 31//24 30//24 29//24
f 29//19 30//19 25//19
f 30//20 31//20 26//20
f 31//21 32//21 27//21
f 32//22 29//22 28//22
f 25//23 26//23 28//23
f 32//24 31//24 29//24
o Cube.016_Cube.018
v 0.406863 1.187426 0.305233
v 0.406863 1.187426 0.105233
v 0.506863 1.187426 0.105233
v 0.506863 1.187426 0.305233
v 0.406863 1.387426 0.305233
v 0.406863 1.387426 0.105233
v 0.506863 1.387426 0.105233
v 0.506863 1.387426 0.305233
vn -1.000000 0.000000 0.000000
vn 0.000000 0.000000 -1.000000
vn 1.000000 0.000000 0.000000
vn 0.000000 0.000000 1.000000
vn 0.000000 -1.000000 0.000000
vn 0.000000 1.000000 0.000000
usemtl None
s off
f 38//25 34//25 33//25
f 39//26 35//26 34//26
f 40//27 36//27 35//27
f 37//28 33//28 36//28
f 34//29 35//29 36//29
f 39//30 38//30 37//30
f 37//25 38//25 33//25
f 38//26 39//26 34//26
f 39//27 40//27 35//27
f 40//28 37//28 36//28
f 33//29 34//29 36//29
f 40//30 39//30 37//30
o Cube.017_Cube.019
v 0.406863 0.806676 0.727529
v 0.406863 0.806676 0.527529
v 0.506863 0.806676 0.527529
v 0.506863 0.806676 0.727529
v 0.406863 1.006676 0.727529
v 0.406863 1.006676 0.527529
v 0.506863 1.006676 0.527529
v 0.506863 1.006676 0.727529
vn -1.000000 0.000000 0.000000
vn 0.000000 0.000000 -1.000000
vn 1.000000 0.000000 0.000000
vn 0.000000 0.000000 1.000000
vn 0.000000 -1.000000 0.000000
vn 0.000000 1.000000 0.000000
usemtl None
s off
f 46//31 42//31 41//31
f 47//32 43//32 42//32
f 48//33 44//33 43//33
f 45//34 41//34 44//34
f 42//35 43//35 44//35
f 47//36 46//36 45//36
f 45//31 46//31 41//31
f 46//32 47//32 42//32
f 47//33 48//33 43//33
f 48//34 45//34 44//34
f 41//35 42//35 44//35
f 48//36 47//36 45//36
o Cube.018_Cube.020
v 0.406863 1.820750 0.873235
v 0.406863 1.820750 0.673235
v 0.506863 1.820750 0.673235
v 0.506863 1.820750 0.873235
v 0.406863 2.020750 0.873235
v 0.406863 2.020750 0.673235
v 0.506863 2.020750 0.673235
v 0.506863 2.020750 0.873235
vn -1.000000 0.000000 0.000000
vn 0.000000 0.000000 -1.000000
vn 1.000000 0.000000 0.000000
vn 0.000000 0.000000 1.000000
vn 0.000000 -1.000000 0.000000
vn 0.000000 1.000000 0.000000
usemtl None
s off
f 54//37 50//37 49//37
f 55//38 51//38 50//38
f 56//39 52//39 51//39
f 53//40 49//40 52//40
f 50//41 51//41 52//41
f 55//42 54//42 53//42
f 53//37 54//37 49//37
f 54//38 55//38 50//38
f 55//39 56//39 51//39
f 56//40 53//40 52//40
f 49//41 50//41 52//41
f 56//42 55//42 53//42
o Cube.019_Cube.021
v 0.406863 1.372883 -0.147878
v 0.406863 1.372883 -0.347878
v 0.506863 1.372883 -0.347878
v 0.506863 1.372883 -0.147878
v 0.406863 1.572883 -0.147878
v 0.406863 1.572883 -0.347878
v 0.506863 1.572883 -0.347878
v 0.506863 1.572883 -0.147878
vn -1.000000 0.000000 0.000000
vn 0.000000 0.000000 -1.000000
vn 1.000000 0.000000 0.000000
vn 0.000000 0.000000 1.000000
vn 0.000000 -1.000000 0.000000
vn 0.000000 1.000000 0.000000
usemtl None
s off
f 62//43 58//43 57//43
f 63//44 59//44 58//44
f 64//45 60//45 59//45
f 61//46 57//46 60//46
f 58//47 59//47 60//47
f 63//48 62//48 61//48
f 61//43 62//43 57//43
f 62//44 63//44 58//44
f 63//45 64//45 59//45
f 64//46 61//46 60//46
f 57//47 58//47 60//47
f 64//48 63//48 61//48
o Cube.020_Cube.022
v 0.406863 2.518131 -0.524420
v 0.406863 2.518131 -0.724420
v 0.506863 2.518131 -0.724420
v 0.506863 2.518131 -0.524420
v 0.406863 2.718131 -0.524420
v 0.406863 2.718131 -0.724420
v 0.506863 2.718131 -0.724420
v 0.506863 2.718131 -0.524420
vn -1.000000 0.000000 0.000000
vn 0.000000 0.000000 -1.000000
vn 1.000000 0.000000 0.000000
vn 0.000000 0.000000 1.000000
vn 0.000000 -1.000000 0.000000
vn 0.000000 1.000000 0.000000
usemtl None
s off
f 70//49 66//49 65//49
f 71//50 67//50 66//50
f 72//51 68//51 67//51
f 69//52 65//52 68//52
f 66//53 67//53 68//53
f 71//54 70//54 69//54
f 69//49 70//49 65//49
f 70//50 71//50 66//50
f 71//51 72//51 67//51
f 72//52 69//52 68//52
f 65//53 66//53 68//53
f 72//54 71//54 69//54
o Cube.021_Cube.023
v 0.406863 1.990087 0.016001
v 0.406863 1.990087 -0.183999
v 0.506863 1.990087 -0.183999
v 0.506863 1.990087 0.016001
v 0.406863 2.190087 0.016001
v 0.406863 2.190087 -0.183999
v 0.506863 2.190087 -0.183999
v 0.506863 2.190087 0.016001
vn -1.000000 0.000000 0.000000
vn 0.000000 0.000000 -1.000000
vn 1.000000 0.000000 0.000000
vn 0.000000 0.000000 1.000000
vn 0.000000 -1.000000 0.000000
vn 0.000000 1.000000 0.000000
usemtl None
s off
f 78//55 74//55 73//55
f 79//56 75//56 74//56
f 80//57 76//57 75//57
f 77//58 73//58 76//58
f 74//59 75//59 76//59
f 79//60 78//60 77//60
f 77//55 78//55 73//55
f 78//56 79//56 74//56
f 79//57 80//57 75//57
f 80//58 77//58 76//58
f 73//59 74//59 76//59
f 80//60 79//60 77//60
o Cube.023_Cube.025
v 0.406863 2.877406 0.612748
v 0.406863 2.877406 0.412748
v 0.506863 2.877406 0.412748
v 0.506863 2.877406 0.612748
v 0.406863 3.077406 0.612748
v 0.406863 3.077406 0.412748
v 0.506863 3.077406 0.412748
v 0.506863 3.077406 0.612748
vn -1.000000 0.000000 0.000000
vn 0.000000 0.000000 -1.000000
vn 1.000000 0.000000 0.000000
vn 0.000000 0.000000 1.000000
vn 0.000000 -1.000000 0.000000
vn 0.000000 1.000000 0.000000
usemtl None
s off
f 86//61 82//61 81//61
f 87//62 83//62 82//62
f 88//63 84//63 83//63
f 85//64 81//64 84//64
f 82//65 83//65 84//65
f 87//66 86//66 85//66
f 85//61 86//61 81//61
f 86//62 87//62 82//62
f 87//63 88//63 83//63
f 88//64 85//64 84//64
f 81//65 82//65 84//65
f 88//66 87//66 85//66
o Cube.024_Cube.026
v 0.406863 2.812006 0.197412
v 0.406863 2.812006 -0.002588
v 0.506863 2.812006 -0.002588
v 0.506863 2.812006 0.197412
v 0.406863 3.012006 0.197412
v 0.406863 3.012006 -0.002588
v 0.506863 3.012006 -0.002588
v 0.506863 3.012006 0.197412
vn -1.000000 0.000000 0.000000
vn 0.000000 0.000000 -1.000000
vn 1.000000 0.000000 0.000000
vn 0.000000 0.000000 1.000000
vn 0.000000 -1.000000 0.000000
vn 0.000000 1.000000 0.000000
usemtl None
s off
f 94//67 90//67 89//67
f 95//68 91//68 90//68
f 96//69 92//69 91//69
f 93//70 89//70 92//70
f 90//71 91//71 92//71
f 95//72 94//72 93//72
f 93//67 94//67 89//67
f 94//68 95//68 90//68
f 95//69 96//69 91//69
f 96//70 93//70 92//70
f 89//71 90//71 92//71
f 96//72 95//72 93//72
o Cube.025_Cube.027
v 0.406863 3.599615 -0.451413
v 0.406863 3.599615 -0.651413
v 0.506863 3.599615 -0.651413
v 0.506863 3.599615 -0.451413
v 0.406863 3.799615 -0.451413
v 0.406863 3.799615 -0.651413
v 0.506863 3.799615 -0.651413
v 0.506863 3.799615 -0.451413
vn -1.000000 0.000000 0.000000
vn 0.000000 0.000000 -1.000000
vn 1.000000 0.000000 0.000000
vn 0.000000 0.000000 1.000000
vn 0.000000 -1.000000 0.000000
vn 0.000000 1.000000 0.000000
usemtl None
s off
f 102//73 98//73 97//73
f 103//74 99//74 98//74
f 104//75 100//75 99//75
f 101//76 97//76 100//76
f 98//77 99//77 100//77
f 103//78 102//78 101//78
f 101//73 102//73 97//73
f 102//74 103//74 98//74
f 103//75 104//75 99//75
f 104//76 101//76 100//76
f 97//77 98//77 100//77
f 104//78 103//78 101//78
o Cube.026_Cube.028
v 0.406863 3.879822 0.475291
v 0.406863 3.879822 0.275291
v 0.506863 3.879822 0.275291
v 0.506863 3.879822 0.475291
v 0.406863 4.079822 0.475291
v 0.406863 4.079822 0.275291
v 0.506863 4.079822 0.275291
v 0.506863 4.079822 0.475291
vn -1.000000 0.000000 0.000000
vn 0.000000 0.000000 -1.000000
vn 1.000000 0.000000 0.000000
vn 0.000000 0.000000 1.000000
vn 0.000000 -1.000000 0.000000
vn 0.000000 1.000000 0.000000
usemtl None
s off
f 110//79 106//79 105//79
f 111//80 107//80 106//80
f 112//81 108//81 107//81
f 109//82 105//82 108//82
f 106//83 107//83 108//83
f 111//84 110//84 109//84
f 109//79 110//79 105//79
f 110//80 111//80 106//80
f 111//81 112//81 107//81
f 112//82 109//82 108//82
f 105//83 106//83 108//83
f 112//84 111//84 109//84
o Plane.002
v 0.505341 4.648108 -2.558871
v 0.505341 4.648108 2.441129
v 5.505341 4.648108 -2.558870
v 5.505341 4.648108 2.441130
vt -0.000000 1.000000
vt 0.000000 0.000000
vt 1.000000 1.000000
vt 1.000000 0.000000
vn 0.000000 1.000000 0.000000
usemtl Default-Diffuse.002
s off
f 113/1/85 114/2/85 115/3/85
f 115/3/85 114/2/85 116/4/85
o Cube.001_Cube.003
v 0.406863 2.368062 0.732551
v 0.406863 2.368062 0.532551
v 0.506863 2.368062 0.532551
v 0.506863 2.368062 0.732551
v 0.406863 2.568062 0.732551
v 0.406863 2.568062 0.532551
v 0.506863 2.568062 0.532551
v 0.506863 2.568062 0.732551
vn -1.000000 0.000000 0.000000
vn 0.000000 0.000000 -1.000000
vn 1.000000 0.000000 0.000000
vn 0.000000 0.000000 1.000000
vn 0.000000 -1.000000 0.000000
vn 0.000000 1.000000 0.000000
usemtl None
s off
f 122//86 118//86 117//86
f 123//87 119//87 118//87
f 124//88 120//88 119//88
f 121//89 117//89 120//89
f 118//90 119//90 120//90
f 123//91 122//91 121//91
f 121//86 122//86 117//86
f 122//87 123//87 118//87
f 123//88 124//88 119//88
f 124//89 121//89 120//89
f 117//90 118//90 120//90
f 124//91 123//91 121//91
o Cube.002_Cube.004
v 0.406863 3.298226 0.757101
v 0.406863 3.298226 0.557101
v 0.506863 3.298226 0.557101
v 0.506863 3.298226 0.757101
v 0.406863 3.498225 0.757101
v 0.406863 3.498225 0.557101
v 0.506863 3.498225 0.557101
v 0.506863 3.498225 0.757101
vn -1.000000 0.000000 0.000000
vn 0.000000 0.000000 -1.000000
vn 1.000000 0.000000 0.000000
vn 0.000000 0.000000 1.000000
vn 0.000000 -1.000000 0.000000
vn 0.000000 1.000000 0.000000
usemtl None
s off
f 130//92 126//92 125//92
f 131//93 127//93 126//93
f 132//94 128//94 127//94
f 129//95 125//95 128//95
f 126//96 127//96 128//96
f 131//97 130//97 129//97
f 129//92 130//92 125//92
f 130//93 131//93 126//93
f 131//94 132//94 127//94
f 132//95 129//95 128//95
f 125//96 126//96 128//96
f 132//97 131//97 129//97
o Cube.003_Cube.005
v 0.406863 1.844608 -0.610411
v 0.406863 1.844608 -0.810411
v 0.506863 1.844608 -0.810411
v 0.506863 1.844608 -0.610411
v 0.406863 2.044608 -0.610411
v 0.406863 2.044608 -0.810411
v 0.506863 2.044608 -0.810411
v 0.506863 2.044608 -0.610411
vn -1.000000 0.000000 0.000000
vn 0.000000 0.000000 -1.000000
vn 1.000000 0.000000 0.000000
vn 0.000000 0.000000 1.000000
vn 0.000000 -1.000000 0.000000
vn 0.000000 1.000000 0.000000
usemtl None
s off
f 138//98 134//98 133//98
f 139//99 135//99 134//99
f 140//100 136//100 135//100
f 137//101 133//101 136//101
f 134//102 135//102 136//102
f 139//103 138//103 137//103
f 137//98 138//98 133//98
f 138//99 139//99 134//99
f 139//100 140//100 135//100
f 140//101 137//101 136//101
f 133//102 134//102 136//102
f 140//103 139//103 137//103
o Cube.004_Cube.006
v 0.406863 2.256827 -0.320346
v 0.406863 2.256827 -0.520346
v 0.506863 2.256827 -0.520346
v 0.506863 2.256827 -0.320346
v 0.406863 2.456827 -0.320346
v 0.406863 2.456827 -0.520346
v 0.506863 2.456827 -0.520346
v 0.506863 2.456827 -0.320346
vn -1.000000 0.000000 0.000000
vn 0.000000 0.000000 -1.000000
vn 1.000000 0.000000 0.000000
vn 0.000000 0.000000 1.000000
vn 0.000000 -1.000000 0.000000
vn 0.000000 1.000000 0.000000
usemtl None
s off
f 146//104 142//104 141//104
f 147//105 143//105 142//105
f 148//106 144//106 143//106
f 145//107 141//107 144//107
f 142//108 143//108 144//108
f 147//109 146//109 145//109
f 145//104 146//104 141//104
f 146//105 147//105 142//105
f 147//106 148//106 143//106
f 148//107 145//107 144//107
f 141//108 142//108 144//108
f 148//109 147//109 145//109
o Cube.005_Cube.007
v 0.406863 3.566163 0.232628
v 0.406863 3.566163 0.032628
v 0.506863 3.566163 0.032628
v 0.506863 3.566163 0.232628
v 0.406863 3.766162 0.232628
v 0.406863 3.766162 0.032628
v 0.506863 3.766162 0.032628
v 0.506863 3.766162 0.232628
vn -1.000000 0.000000 0.000000
vn 0.000000 0.000000 -1.000000
vn 1.000000 0.000000 0.000000
vn 0.000000 0.000000 1.000000
vn 0.000000 -1.000000 0.000000
vn 0.000000 1.000000 0.000000
usemtl None
s off
f 154//110 150//110 149//110
f 155//111 151//111 150//111
f 156//112 152//112 151//112
f 153//113 149//113 152//113
f 150//114 151//114 152//114
f 155//115 154//115 153//115
f 153//110 154//110 149//110
f 154//111 155//111 150//111
f 155//112 156//112 151//112
f 156//113 153//113 152//113
f 149//114 150//114 152//114
f 156//115 155//115 153//115
o Cube.006_Cube.008
v 0.406863 4.023074 -0.003671
v 0.406863 4.023074 -0.203671
v 0.506863 4.023074 -0.203671
v 0.506863 4.023074 -0.003671
v 0.406863 4.223073 -0.003671
v 0.406863 4.223073 -0.203671
v 0.506863 4.223073 -0.203671
v 0.506863 4.223073 -0.003671
vn -1.000000 0.000000 0.000000
vn 0.000000 0.000000 -1.000000
vn 1.000000 0.000000 0.000000
vn 0.000000 0.000000 1.000000
vn 0.000000 -1.000000 0.000000
vn 0.000000 1.000000 0.000000
usemtl None
s off
f 162//116 158//116 157//116
f 163//117 159//117 158//117
f 164//118 160//118 159//118
f 161//119 157//119 160//119
f 158//120 159//120 160//120
f 163//121 162//121 161//121
f 161//116 162//116 157//116
f 162//117 163//117 158//117
f 163//118 164//118 159//118
f 164//119 161//119 160//119
f 157//120 158//120 160//120
f 164//121 163//121 161//121
o Cube.007_Cube.009
v 0.406863 3.000447 -0.260402
v 0.406863 3.000447 -0.460402
v 0.506863 3.000447 -0.460402
v 0.506863 3.000447 -0.260402
v 0.406863 3.200447 -0.260402
v 0.406863 3.200447 -0.460402
v 0.506863 3.200447 -0.460402
v 0.506863 3.200447 -0.260402
vn -1.000000 0.000000 0.000000
vn 0.000000 0.000000 -1.000000
vn 1.000000 0.000000 0.000000
vn 0.000000 0.000000 1.000000
vn 0.000000 -1.000000 0.000000
vn 0.000000 1.000000 0.000000
usemtl None
s off
f 170//122 166//122 165//122
f 171//123 167//123 166//123
f 172//124 168//124 167//124
f 169//125 165//125 168//125
f 166//126 167//126 168//126
f 171//127 170//127 169//127
f 169//122 170//122 165//122
f 170//123 171//123 166//123
f 171//124 172//124 167//124
f 172//125 169//125 168//125
f 165//126 166//126 168//126
f 172//127 171//127 169//127
