# Blender v2.72 (sub 0) OBJ File: 'demo.blend'
# www.blender.org
mtllib race_1.mtl
o Cube.034_Cube
v 5.265904 -9.878014 1.895007
v 5.265904 -9.878014 -2.536531
v 9.697443 -9.878014 -2.536531
v 9.697443 -9.878014 1.895007
v 5.265904 5.845544 1.895007
v 5.265904 5.845544 -2.536531
v 9.697443 5.845544 -2.536531
v 9.697443 5.845544 1.895007
vn -1.000000 0.000000 0.000000
vn 0.000000 0.000000 -1.000000
vn 1.000000 0.000000 0.000000
vn 0.000000 0.000000 1.000000
vn 0.000000 -1.000000 0.000000
vn 0.000000 1.000000 0.000000
usemtl None
s off
f 6//1 2//1 1//1
f 7//2 3//2 2//2
f 8//3 4//3 3//3
f 5//4 1//4 4//4
f 2//5 3//5 4//5
f 7//6 6//6 5//6
f 5//1 6//1 1//1
f 6//2 7//2 2//2
f 7//3 8//3 3//3
f 8//4 5//4 4//4
f 1//5 2//5 4//5
f 8//6 7//6 5//6
o Plane
v -1.113826 0.000000 -4.789259
v -1.113826 -0.000000 5.210741
v 1.886174 0.000000 -4.789258
v 1.886174 -0.000000 5.210742
vt -0.000000 1.000000
vt 0.000000 0.000000
vt 1.000000 1.000000
vt 1.000000 0.000000
vn 0.000000 1.000000 0.000000
usemtl Default-Diffuse
s off
f 9/1/7 10/2/7 11/3/7
f 11/3/7 10/2/7 12/4/7
o Cube_Cube.002
v 2.292195 -0.315182 0.012064
v 2.292195 -0.315182 -0.287936
v 2.592195 -0.315182 -0.287936
v 2.592195 -0.315182 0.012064
v 2.292195 0.684818 0.012064
v 2.292195 0.684818 -0.287936
v 2.592195 0.684818 -0.287936
v 2.592195 0.684818 0.012064
vn -1.000000 0.000000 0.000000
vn 0.000000 0.000000 -1.000000
vn 1.000000 0.000000 0.000000
vn 0.000000 0.000000 1.000000
vn 0.000000 -1.000000 0.000000
vn 0.000000 1.000000 0.000000
usemtl None
s off
f 18//8 14//8 13//8
f 19//9 15//9 14//9
f 20//10 16//10 15//10
f 17//11 13//11 16//11
f 14//12 15//12 16//12
f 19//13 18//13 17//13
f 17//8 18//8 13//8
f 18//9 19//9 14//9
f 19//10 20//10 15//10
f 20//11 17//11 16//11
f 13//12 14//12 16//12
f 20//13 19//13 17//13
o Cube.001_Cube.003
v 2.292195 -0.527569 0.551080
v 2.292195 -0.527569 0.251080
v 2.592195 -0.527569 0.251080
v 2.592195 -0.527569 0.551080
v 2.292195 0.472431 0.551080
v 2.292195 0.472431 0.251080
v 2.592195 0.472431 0.251080
v 2.592195 0.472431 0.551080
vn -1.000000 0.000000 0.000000
vn 0.000000 0.000000 -1.000000
vn 1.000000 0.000000 0.000000
vn 0.000000 0.000000 1.000000
vn 0.000000 -1.000000 0.000000
vn 0.000000 1.000000 0.000000
usemtl None
s off
f 26//14 22//14 21//14
f 27//15 23//15 22//15
f 28//16 24//16 23//16
f 25//17 21//17 24//17
f 22//18 23//18 24//18
f 27//19 26//19 25//19
f 25//14 26//14 21//14
f 26//15 27//15 22//15
f 27//16 28//16 23//16
f 28//17 25//17 24//17
f 21//18 22//18 24//18
f 28//19 27//19 25//19
o Cube.002_Cube.004
v 2.956425 -0.527569 0.792637
v 2.956425 -0.527569 0.492637
v 3.256425 -0.527569 0.492637
v 3.256425 -0.527569 0.792637
v 2.956425 0.472431 0.792637
v 2.956425 0.472431 0.492637
v 3.256425 0.472431 0.492637
v 3.256425 0.472431 0.792637
vn -1.000000 0.000000 0.000000
vn 0.000000 0.000000 -1.000000
vn 1.000000 0.000000 0.000000
vn 0.000000 0.000000 1.000000
vn 0.000000 -1.000000 0.000000
vn 0.000000 1.000000 0.000000
usemtl None
s off
f 34//20 30//20 29//20
f 35//21 31//21 30//21
f 36//22 32//22 31//22
f 33//23 29//23 32//23
f 30//24 31//24 32//24
f 35//25 34//25 33//25
f 33//20 34//20 29//20
f 34//21 35//21 30//21
f 35//22 36//22 31//22
f 36//23 33//23 32//23
f 29//24 30//24 32//24
f 36//25 35//25 33//25
o Cube.003_Cube.005
v 2.565244 -0.315182 -0.447194
v 2.565244 -0.315182 -0.747194
v 2.865244 -0.315182 -0.747194
v 2.865244 -0.315182 -0.447194
v 2.565244 0.684818 -0.447194
v 2.565244 0.684818 -0.747194
v 2.865244 0.684818 -0.747194
v 2.865244 0.684818 -0.447194
vn -1.000000 0.000000 0.000000
vn 0.000000 0.000000 -1.000000
vn 1.000000 0.000000 0.000000
vn 0.000000 0.000000 1.000000
vn 0.000000 -1.000000 0.000000
vn 0.000000 1.000000 0.000000
usemtl None
s off
f 42//26 38//26 37//26
f 43//27 39//27 38//27
f 44//28 40//28 39//28
f 41//29 37//29 40//29
f 38//30 39//30 40//30
f 43//31 42//31 41//31
f 41//26 42//26 37//26
f 42//27 43//27 38//27
f 43//28 44//28 39//28
f 44//29 41//29 40//29
f 37//30 38//30 40//30
f 44//31 43//31 41//31
o Cube.004_Cube.006
v 2.993807 -0.364144 0.012064
v 2.993807 -0.364144 -0.287936
v 3.293808 -0.364144 -0.287936
v 3.293808 -0.364144 0.012064
v 2.993807 0.635856 0.012064
v 2.993807 0.635856 -0.287936
v 3.293808 0.635856 -0.287936
v 3.293808 0.635856 0.012064
vn -1.000000 0.000000 0.000000
vn 0.000000 0.000000 -1.000000
vn 1.000000 0.000000 0.000000
vn 0.000000 0.000000 1.000000
vn 0.000000 -1.000000 0.000000
vn 0.000000 1.000000 0.000000
usemtl None
s off
f 50//32 46//32 45//32
f 51//33 47//33 46//33
f 52//34 48//34 47//34
f 49//35 45//35 48//35
f 46//36 47//36 48//36
f 51//37 50//37 49//37
f 49//32 50//32 45//32
f 50//33 51//33 46//33
f 51//34 52//34 47//34
f 52//35 49//35 48//35
f 45//36 46//36 48//36
f 52//37 51//37 49//37
o Cube.005_Cube.007
v 3.439100 -0.316418 0.792637
v 3.439100 -0.316418 0.492637
v 3.739100 -0.316418 0.492637
v 3.739100 -0.316418 0.792637
v 3.439100 0.683582 0.792637
v 3.439100 0.683582 0.492637
v 3.739100 0.683582 0.492637
v 3.739100 0.683582 0.792637
vn -1.000000 0.000000 0.000000
vn 0.000000 0.000000 -1.000000
vn 1.000000 0.000000 0.000000
vn 0.000000 0.000000 1.000000
vn 0.000000 -1.000000 0.000000
vn 0.000000 1.000000 0.000000
usemtl None
s off
f 58//38 54//38 53//38
f 59//39 55//39 54//39
f 60//40 56//40 55//40
f 57//41 53//41 56//41
f 54//42 55//42 56//42
f 59//43 58//43 57//43
f 57//38 58//38 53//38
f 58//39 59//39 54//39
f 59//40 60//40 55//40
f 60//41 57//41 56//41
f 53//42 54//42 56//42
f 60//43 59//43 57//43
o Cube.006_Cube.008
v 3.439100 -0.271045 -0.013592
v 3.439100 -0.271045 -0.313592
v 3.739100 -0.271045 -0.313592
v 3.739100 -0.271045 -0.013592
v 3.439100 0.728955 -0.013592
v 3.439100 0.728955 -0.313592
v 3.739100 0.728955 -0.313592
v 3.739100 0.728955 -0.013592
vn -1.000000 0.000000 0.000000
vn 0.000000 0.000000 -1.000000
vn 1.000000 0.000000 0.000000
vn 0.000000 0.000000 1.000000
vn 0.000000 -1.000000 0.000000
vn 0.000000 1.000000 0.000000
usemtl None
s off
f 66//44 62//44 61//44
f 67//45 63//45 62//45
f 68//46 64//46 63//46
f 65//47 61//47 64//47
f 62//48 63//48 64//48
f 67//49 66//49 65//49
f 65//44 66//44 61//44
f 66//45 67//45 62//45
f 67//46 68//46 63//46
f 68//47 65//47 64//47
f 61//48 62//48 64//48
f 68//49 67//49 65//49
o Cube.007_Cube.009
v 3.907074 -0.376055 0.973804
v 3.907074 -0.376055 0.673804
v 4.207075 -0.376055 0.673804
v 4.207075 -0.376055 0.973804
v 3.907074 0.623945 0.973804
v 3.907074 0.623945 0.673804
v 4.207075 0.623945 0.673804
v 4.207075 0.623945 0.973804
vn -1.000000 0.000000 0.000000
vn 0.000000 0.000000 -1.000000
vn 1.000000 0.000000 0.000000
vn 0.000000 0.000000 1.000000
vn 0.000000 -1.000000 0.000000
vn 0.000000 1.000000 0.000000
usemtl None
s off
f 74//50 70//50 69//50
f 75//51 71//51 70//51
f 76//52 72//52 71//52
f 73//53 69//53 72//53
f 70//54 71//54 72//54
f 75//55 74//55 73//55
f 73//50 74//50 69//50
f 74//51 75//51 70//51
f 75//52 76//52 71//52
f 76//53 73//53 72//53
f 69//54 70//54 72//54
f 76//55 75//55 73//55
o Cube.008_Cube.010
v 3.944458 -0.212630 0.012064
v 3.944458 -0.212630 -0.287936
v 4.244459 -0.212630 -0.287936
v 4.244459 -0.212630 0.012064
v 3.944458 0.787370 0.012064
v 3.944458 0.787370 -0.287936
v 4.244459 0.787370 -0.287936
v 4.244459 0.787370 0.012064
vn -1.000000 0.000000 0.000000
vn 0.000000 0.000000 -1.000000
vn 1.000000 0.000000 0.000000
vn 0.000000 0.000000 1.000000
vn 0.000000 -1.000000 0.000000
vn 0.000000 1.000000 0.000000
usemtl None
s off
f 82//56 78//56 77//56
f 83//57 79//57 78//57
f 84//58 80//58 79//58
f 81//59 77//59 80//59
f 78//60 79//60 80//60
f 83//61 82//61 81//61
f 81//56 82//56 77//56
f 82//57 83//57 78//57
f 83//58 84//58 79//58
f 84//59 81//59 80//59
f 77//60 78//60 80//60
f 84//61 83//61 81//61
o Cube.009_Cube.011
v 4.389750 0.311756 0.716120
v 4.389750 0.311756 0.416120
v 4.689750 0.311756 0.416120
v 4.689750 0.311756 0.716120
v 4.389750 1.311756 0.716120
v 4.389750 1.311756 0.416120
v 4.689750 1.311756 0.416120
v 4.689750 1.311756 0.716120
vn -1.000000 0.000000 0.000000
vn 0.000000 0.000000 -1.000000
vn 1.000000 0.000000 0.000000
vn 0.000000 0.000000 1.000000
vn 0.000000 -1.000000 0.000000
vn 0.000000 1.000000 0.000000
usemtl None
s off
f 90//62 86//62 85//62
f 91//63 87//63 86//63
f 92//64 88//64 87//64
f 89//65 85//65 88//65
f 86//66 87//66 88//66
f 91//67 90//67 89//67
f 89//62 90//62 85//62
f 90//63 91//63 86//63
f 91//64 92//64 87//64
f 92//65 89//65 88//65
f 85//66 86//66 88//66
f 92//67 91//67 89//67
o Cube.010_Cube.012
v 4.389750 0.198384 -0.013592
v 4.389750 0.198384 -0.313592
v 4.689750 0.198384 -0.313592
v 4.689750 0.198384 -0.013592
v 4.389750 1.198384 -0.013592
v 4.389750 1.198384 -0.313592
v 4.689750 1.198384 -0.313592
v 4.689750 1.198384 -0.013592
vn -1.000000 0.000000 0.000000
vn 0.000000 0.000000 -1.000000
vn 1.000000 0.000000 0.000000
vn 0.000000 0.000000 1.000000
vn 0.000000 -1.000000 0.000000
vn 0.000000 1.000000 0.000000
usemtl None
s off
f 98//68 94//68 93//68
f 99//69 95//69 94//69
f 100//70 96//70 95//70
f 97//71 93//71 96//71
f 94//72 95//72 96//72
f 99//73 98//73 97//73
f 97//68 98//68 93//68
f 98//69 99//69 94//69
f 99//70 100//70 95//70
f 100//71 97//71 96//71
f 93//72 94//72 96//72
f 100//73 99//73 97//73
o Cube.011_Cube.013
v 4.389750 -0.164905 0.333315
v 4.389750 -0.164905 0.033315
v 4.689750 -0.164905 0.033315
v 4.689750 -0.164905 0.333315
v 4.389750 0.835095 0.333315
v 4.389750 0.835095 0.033315
v 4.689750 0.835095 0.033315
v 4.689750 0.835095 0.333315
vn -1.000000 0.000000 0.000000
vn 0.000000 0.000000 -1.000000
vn 1.000000 0.000000 0.000000
vn 0.000000 0.000000 1.000000
vn 0.000000 -1.000000 0.000000
vn 0.000000 1.000000 0.000000
usemtl None
s off
f 106//74 102//74 101//74
f 107//75 103//75 102//75
f 108//76 104//76 103//76
f 105//77 101//77 104//77
f 102//78 103//78 104//78
f 107//79 106//79 105//79
f 105//74 106//74 101//74
f 106//75 107//75 102//75
f 107//76 108//76 103//76
f 108//77 105//77 104//77
f 101//78 102//78 104//78
f 108//79 107//79 105//79
o Cube.012_Cube.014
v 4.777668 0.672145 0.162727
v 4.777668 0.672145 -0.137273
v 5.077669 0.672145 -0.137273
v 5.077669 0.672145 0.162727
v 4.777668 1.672145 0.162727
v 4.777668 1.672145 -0.137273
v 5.077669 1.672145 -0.137273
v 5.077669 1.672145 0.162727
vn -1.000000 0.000000 0.000000
vn 0.000000 0.000000 -1.000000
vn 1.000000 0.000000 0.000000
vn 0.000000 0.000000 1.000000
vn 0.000000 -1.000000 0.000000
vn 0.000000 1.000000 0.000000
usemtl None
s off
f 114//80 110//80 109//80
f 115//81 111//81 110//81
f 116//82 112//82 111//82
f 113//83 109//83 112//83
f 110//84 111//84 112//84
f 115//85 114//85 113//85
f 113//80 114//80 109//80
f 114//81 115//81 110//81
f 115//82 116//82 111//82
f 116//83 113//83 112//83
f 109//84 110//84 112//84
f 116//85 115//85 113//85
o Cube.013_Cube.015
v 4.811763 1.017807 0.750642
v 4.811763 1.017807 0.450642
v 5.111763 1.017807 0.450642
v 5.111763 1.017807 0.750642
v 4.811763 2.017807 0.750642
v 4.811763 2.017807 0.450642
v 5.111763 2.017807 0.450642
v 5.111763 2.017807 0.750642
vn -1.000000 0.000000 0.000000
vn 0.000000 0.000000 -1.000000
vn 1.000000 0.000000 0.000000
vn 0.000000 0.000000 1.000000
vn 0.000000 -1.000000 0.000000
vn 0.000000 1.000000 0.000000
usemtl None
s off
f 122//86 118//86 117//86
f 123//87 119//87 118//87
f 124//88 120//88 119//88
f 121//89 117//89 120//89
f 118//90 119//90 120//90
f 123//91 122//91 121//91
f 121//86 122//86 117//86
f 122//87 123//87 118//87
f 123//88 124//88 119//88
f 124//89 121//89 120//89
f 117//90 118//90 120//90
f 124//91 123//91 121//91
o Plane.001
v 5.114715 1.174168 1.406369
v 5.114715 6.174168 1.406369
v 5.114715 1.174169 -1.093631
v 5.114715 6.174169 -1.093630
vt -0.000000 1.000000
vt 0.000000 0.000000
vt 1.000000 1.000000
vt 1.000000 0.000000
vn -1.000000 0.000000 0.000000
usemtl Default-Diffuse.001
s off
f 125/5/92 126/6/92 127/7/92
f 127/7/92 126/6/92 128/8/92
o Cube.014_Cube.016
v 4.996990 2.684327 -0.363089
v 4.996990 2.684327 -0.563089
v 5.096991 2.684327 -0.563089
v 5.096991 2.684327 -0.363089
v 4.996990 2.884327 -0.363089
v 4.996990 2.884327 -0.563089
v 5.096991 2.884327 -0.563089
v 5.096991 2.884327 -0.363089
vn -1.000000 0.000000 0.000000
vn 0.000000 0.000000 -1.000000
vn 1.000000 0.000000 0.000000
vn 0.000000 0.000000 1.000000
vn 0.000000 -1.000000 0.000000
vn 0.000000 1.000000 0.000000
usemtl None
s off
f 134//93 130//93 129//93
f 135//94 131//94 130//94
f 136//95 132//95 131//95
f 133//96 129//96 132//96
f 130//97 131//97 132//97
f 135//98 134//98 133//98
f 133//93 134//93 129//93
f 134//94 135//94 130//94
f 135//95 136//95 131//95
f 136//96 133//96 132//96
f 129//97 130//97 132//97
f 136//98 135//98 133//98
o Cube.015_Cube.017
v 4.996990 2.118040 -0.049595
v 4.996990 2.118040 -0.249595
v 5.096991 2.118040 -0.249595
v 5.096991 2.118040 -0.049595
v 4.996990 2.318039 -0.049595
v 4.996990 2.318039 -0.249595
v 5.096991 2.318039 -0.249595
v 5.096991 2.318039 -0.049595
vn -1.000000 0.000000 0.000000
vn 0.000000 0.000000 -1.000000
vn 1.000000 0.000000 0.000000
vn 0.000000 0.000000 1.000000
vn 0.000000 -1.000000 0.000000
vn 0.000000 1.000000 0.000000
usemtl None
s off
f 142//99 138//99 137//99
f 143//100 139//100 138//100
f 144//101 140//101 139//101
f 141//102 137//102 140//102
f 138//103 139//103 140//103
f 143//104 142//104 141//104
f 141//99 142//99 137//99
f 142//100 143//100 138//100
f 143//101 144//101 139//101
f 144//102 141//102 140//102
f 137//103 138//103 140//103
f 144//104 143//104 141//104
o Cube.016_Cube.018
v 4.996990 2.650680 0.551335
v 4.996990 2.650680 0.351335
v 5.096991 2.650680 0.351335
v 5.096991 2.650680 0.551335
v 4.996990 2.850679 0.551335
v 4.996990 2.850679 0.351335
v 5.096991 2.850679 0.351335
v 5.096991 2.850679 0.551335
vn -1.000000 0.000000 0.000000
vn 0.000000 0.000000 -1.000000
vn 1.000000 0.000000 0.000000
vn 0.000000 0.000000 1.000000
vn 0.000000 -1.000000 0.000000
vn 0.000000 1.000000 0.000000
usemtl None
s off
f 150//105 146//105 145//105
f 151//106 147//106 146//106
f 152//107 148//107 147//107
f 149//108 145//108 148//108
f 146//109 147//109 148//109
f 151//110 150//110 149//110
f 149//105 150//105 145//105
f 150//106 151//106 146//106
f 151//107 152//107 147//107
f 152//108 149//108 148//108
f 145//109 146//109 148//109
f 152//110 151//110 149//110
o Cube.017_Cube.019
v 4.996990 2.477315 1.119337
v 4.996990 2.477315 0.919337
v 5.096991 2.477315 0.919337
v 5.096991 2.477315 1.119337
v 4.996990 2.677315 1.119337
v 4.996990 2.677315 0.919337
v 5.096991 2.677315 0.919337
v 5.096991 2.677315 1.119337
vn -1.000000 0.000000 0.000000
vn 0.000000 0.000000 -1.000000
vn 1.000000 0.000000 0.000000
vn 0.000000 0.000000 1.000000
vn 0.000000 -1.000000 0.000000
vn 0.000000 1.000000 0.000000
usemtl None
s off
f 158//111 154//111 153//111
f 159//112 155//112 154//112
f 160//113 156//113 155//113
f 157//114 153//114 156//114
f 154//115 155//115 156//115
f 159//116 158//116 157//116
f 157//111 158//111 153//111
f 158//112 159//112 154//112
f 159//113 160//113 155//113
f 160//114 157//114 156//114
f 153//115 154//115 156//115
f 160//116 159//116 157//116
o Cube.018_Cube.020
v 4.996990 3.340146 1.119337
v 4.996990 3.340146 0.919337
v 5.096991 3.340146 0.919337
v 5.096991 3.340146 1.119337
v 4.996990 3.540146 1.119337
v 4.996990 3.540146 0.919337
v 5.096991 3.540146 0.919337
v 5.096991 3.540146 1.119337
vn -1.000000 0.000000 0.000000
vn 0.000000 0.000000 -1.000000
vn 1.000000 0.000000 0.000000
vn 0.000000 0.000000 1.000000
vn 0.000000 -1.000000 0.000000
vn 0.000000 1.000000 0.000000
usemtl None
s off
f 166//117 162//117 161//117
f 167//118 163//118 162//118
f 168//119 164//119 163//119
f 165//120 161//120 164//120
f 162//121 163//121 164//121
f 167//122 166//122 165//122
f 165//117 166//117 161//117
f 166//118 167//118 162//118
f 167//119 168//119 163//119
f 168//120 165//120 164//120
f 161//121 162//121 164//121
f 168//122 167//122 165//122
o Cube.019_Cube.021
v 4.996990 3.340146 0.126986
v 4.996990 3.340146 -0.073014
v 5.096991 3.340146 -0.073014
v 5.096991 3.340146 0.126986
v 4.996990 3.540146 0.126986
v 4.996990 3.540146 -0.073014
v 5.096991 3.540146 -0.073014
v 5.096991 3.540146 0.126986
vn -1.000000 0.000000 0.000000
vn 0.000000 0.000000 -1.000000
vn 1.000000 0.000000 0.000000
vn 0.000000 0.000000 1.000000
vn 0.000000 -1.000000 0.000000
vn 0.000000 1.000000 0.000000
usemtl None
s off
f 174//123 170//123 169//123
f 175//124 171//124 170//124
f 176//125 172//125 171//125
f 173//126 169//126 172//126
f 170//127 171//127 172//127
f 175//128 174//128 173//128
f 173//123 174//123 169//123
f 174//124 175//124 170//124
f 175//125 176//125 171//125
f 176//126 173//126 172//126
f 169//127 170//127 172//127
f 176//128 175//128 173//128
o Cube.020_Cube.022
v 4.996990 4.037528 -0.278318
v 4.996990 4.037528 -0.478318
v 5.096991 4.037528 -0.478318
v 5.096991 4.037528 -0.278318
v 4.996990 4.237527 -0.278318
v 4.996990 4.237527 -0.478318
v 5.096991 4.237527 -0.478318
v 5.096991 4.237527 -0.278318
vn -1.000000 0.000000 0.000000
vn 0.000000 0.000000 -1.000000
vn 1.000000 0.000000 0.000000
vn 0.000000 0.000000 1.000000
vn 0.000000 -1.000000 0.000000
vn 0.000000 1.000000 0.000000
usemtl None
s off
f 182//129 178//129 177//129
f 183//130 179//130 178//130
f 184//131 180//131 179//131
f 181//132 177//132 180//132
f 178//133 179//133 180//133
f 183//134 182//134 181//134
f 181//129 182//129 177//129
f 182//130 183//130 178//130
f 183//131 184//131 179//131
f 184//132 181//132 180//132
f 177//133 178//133 180//133
f 184//134 183//134 181//134
o Cube.021_Cube.023
v 4.996990 3.773655 0.506670
v 4.996990 3.773655 0.306670
v 5.096991 3.773655 0.306670
v 5.096991 3.773655 0.506670
v 4.996990 3.973655 0.506670
v 4.996990 3.973655 0.306670
v 5.096991 3.973655 0.306670
v 5.096991 3.973655 0.506670
vn -1.000000 0.000000 0.000000
vn 0.000000 0.000000 -1.000000
vn 1.000000 0.000000 0.000000
vn 0.000000 0.000000 1.000000
vn 0.000000 -1.000000 0.000000
vn 0.000000 1.000000 0.000000
usemtl None
s off
f 190//135 186//135 185//135
f 191//136 187//136 186//136
f 192//137 188//137 187//137
f 189//138 185//138 188//138
f 186//139 187//139 188//139
f 191//140 190//140 189//140
f 189//135 190//135 185//135
f 190//136 191//136 186//136
f 191//137 192//137 187//137
f 192//138 189//138 188//138
f 185//139 186//139 188//139
f 192//140 191//140 189//140
o Cube.022_Cube.024
v 4.996990 4.687040 -0.014301
v 4.996990 4.687040 -0.214301
v 5.096991 4.687040 -0.214301
v 5.096991 4.687040 -0.014301
v 4.996990 4.887040 -0.014301
v 4.996990 4.887040 -0.214301
v 5.096991 4.887040 -0.214301
v 5.096991 4.887040 -0.014301
vn -1.000000 0.000000 0.000000
vn 0.000000 0.000000 -1.000000
vn 1.000000 0.000000 0.000000
vn 0.000000 0.000000 1.000000
vn 0.000000 -1.000000 0.000000
vn 0.000000 1.000000 0.000000
usemtl None
s off
f 198//141 194//141 193//141
f 199//142 195//142 194//142
f 200//143 196//143 195//143
f 197//144 193//144 196//144
f 194//145 195//145 196//145
f 199//146 198//146 197//146
f 197//141 198//141 193//141
f 198//142 199//142 194//142
f 199//143 200//143 195//143
f 200//144 197//144 196//144
f 193//145 194//145 196//145
f 200//146 199//146 197//146
o Cube.023_Cube.025
v 4.996990 4.396802 0.858850
v 4.996990 4.396802 0.658850
v 5.096991 4.396802 0.658850
v 5.096991 4.396802 0.858850
v 4.996990 4.596802 0.858850
v 4.996990 4.596802 0.658850
v 5.096991 4.596802 0.658850
v 5.096991 4.596802 0.858850
vn -1.000000 0.000000 0.000000
vn 0.000000 0.000000 -1.000000
vn 1.000000 0.000000 0.000000
vn 0.000000 0.000000 1.000000
vn 0.000000 -1.000000 0.000000
vn 0.000000 1.000000 0.000000
usemtl None
s off
f 206//147 202//147 201//147
f 207//148 203//148 202//148
f 208//149 204//149 203//149
f 205//150 201//150 204//150
f 202//151 203//151 204//151
f 207//152 206//152 205//152
f 205//147 206//147 201//147
f 206//148 207//148 202//148
f 207//149 208//149 203//149
f 208//150 205//150 204//150
f 201//151 202//151 204//151
f 208//152 207//152 205//152
o Cube.024_Cube.026
v 4.996990 4.396802 0.443513
v 4.996990 4.396802 0.243513
v 5.096991 4.396802 0.243513
v 5.096991 4.396802 0.443513
v 4.996990 4.596802 0.443513
v 4.996990 4.596802 0.243513
v 5.096991 4.596802 0.243513
v 5.096991 4.596802 0.443513
vn -1.000000 0.000000 0.000000
vn 0.000000 0.000000 -1.000000
vn 1.000000 0.000000 0.000000
vn 0.000000 0.000000 1.000000
vn 0.000000 -1.000000 0.000000
vn 0.000000 1.000000 0.000000
usemtl None
s off
f 214//153 210//153 209//153
f 215//154 211//154 210//154
f 216//155 212//155 211//155
f 213//156 209//156 212//156
f 210//157 211//157 212//157
f 215//158 214//158 213//158
f 213//153 214//153 209//153
f 214//154 215//154 210//154
f 215//155 216//155 211//155
f 216//156 213//156 212//156
f 209//157 210//157 212//157
f 216//158 215//158 213//158
o Cube.025_Cube.027
v 4.996990 5.119011 -0.205312
v 4.996990 5.119011 -0.405312
v 5.096991 5.119011 -0.405312
v 5.096991 5.119011 -0.205312
v 4.996990 5.319011 -0.205312
v 4.996990 5.319011 -0.405312
v 5.096991 5.319011 -0.405312
v 5.096991 5.319011 -0.205312
vn -1.000000 0.000000 0.000000
vn 0.000000 0.000000 -1.000000
vn 1.000000 0.000000 0.000000
vn 0.000000 0.000000 1.000000
vn 0.000000 -1.000000 0.000000
vn 0.000000 1.000000 0.000000
usemtl None
s off
f 222//159 218//159 217//159
f 223//160 219//160 218//160
f 224//161 220//161 219//161
f 221//162 217//162 220//162
f 218//163 219//163 220//163
f 223//164 222//164 221//164
f 221//159 222//159 217//159
f 222//160 223//160 218//160
f 223//161 224//161 219//161
f 224//162 221//162 220//162
f 217//163 218//163 220//163
f 224//164 223//164 221//164
o Cube.026_Cube.028
v 4.996990 5.399218 0.721393
v 4.996990 5.399218 0.521393
v 5.096991 5.399218 0.521393
v 5.096991 5.399218 0.721393
v 4.996990 5.599217 0.721393
v 4.996990 5.599217 0.521393
v 5.096991 5.599217 0.521393
v 5.096991 5.599217 0.721393
vn -1.000000 0.000000 0.000000
vn 0.000000 0.000000 -1.000000
vn 1.000000 0.000000 0.000000
vn 0.000000 0.000000 1.000000
vn 0.000000 -1.000000 0.000000
vn 0.000000 1.000000 0.000000
usemtl None
s off
f 230//165 226//165 225//165
f 231//166 227//166 226//166
f 232//167 228//167 227//167
f 229//168 225//168 228//168
f 226//169 227//169 228//169
f 231//170 230//170 229//170
f 229//165 230//165 225//165
f 230//166 231//166 226//166
f 231//167 232//167 227//167
f 232//168 229//168 228//168
f 225//169 226//169 228//169
f 232//170 231//170 229//170
o Plane.002
v 5.095468 6.167504 -2.312769
v 5.095468 6.167504 2.687231
v 10.095469 6.167504 -2.312769
v 10.095468 6.167504 2.687231
vt -0.000000 1.000000
vt 0.000000 0.000000
vt 1.000000 1.000000
vt 1.000000 0.000000
vn 0.000000 1.000000 0.000000
usemtl Default-Diffuse.002
s off
f 233/9/171 234/10/171 235/11/171
f 235/11/171 234/10/171 236/12/171
o Plane.004
v 9.620708 5.154482 -2.312769
v 9.620708 5.154482 2.687231
v 12.120708 5.154482 -2.312769
v 12.120708 5.154482 2.687231
vt -0.000000 1.000000
vt 0.000000 0.000000
vt 1.000000 1.000000
vt 1.000000 0.000000
vn 0.000000 1.000000 0.000000
usemtl Default-Diffuse.004
s off
f 237/13/172 238/14/172 239/15/172
f 239/15/172 238/14/172 240/16/172
