# Blender v2.72 (sub 0) OBJ File: ''
# www.blender.org
mtllib race_2.mtl
o Cube.028_Cube.030
v 14.629457 6.945779 -2.357340
v 14.629457 6.245779 -2.357340
v 14.629457 6.245779 2.642660
v 14.729458 6.945779 -2.357340
v 14.729458 6.245779 -2.357340
v 14.729458 6.945779 2.642660
v 14.729458 6.245779 2.642660
v 14.629457 6.945779 2.642660
vt -0.000000 1.000000
vn -1.000000 0.000000 0.000000
vn 0.000000 0.000000 -1.000000
vn 1.000000 0.000000 0.000000
vn 0.000000 0.000000 1.000000
vn 0.000000 -1.000000 0.000000
vn 0.000000 1.000000 0.000000
usemtl None
s off
f 1/1/1 2/1/1 3/1/1
f 4/1/2 5/1/2 2/1/2
f 6/1/3 7/1/3 5/1/3
f 8/1/4 3/1/4 7/1/4
f 2/1/5 5/1/5 7/1/5
f 4/1/6 1/1/6 8/1/6
f 8/1/1 1/1/1 3/1/1
f 1/1/2 4/1/2 2/1/2
f 4/1/3 6/1/3 5/1/3
f 6/1/4 8/1/4 7/1/4
f 3/1/5 2/1/5 7/1/5
f 6/1/6 4/1/6 8/1/6
o Plane.003
v 11.791789 6.167504 -2.312769
v 11.791789 6.167504 2.687231
v 31.791790 6.167504 -2.312769
v 31.791790 6.167504 2.687231
vt -0.000000 1.000000
vt 0.000000 0.000000
vt 1.000000 1.000000
vt 1.000000 0.000000
vn 0.000000 1.000000 0.000000
usemtl Default-Diffuse.003
s off
f 9/2/7 10/3/7 11/4/7
f 11/4/7 10/3/7 12/5/7
o Plane.007
v 13.366636 8.178871 -2.532565
v 13.366636 8.178870 2.467435
v 13.366636 7.178871 -2.532565
v 13.366636 7.178870 2.467435
vt -0.000000 1.000000
vt 0.000000 0.000000
vt 1.000000 1.000000
vt 1.000000 0.000000
vn 1.000000 0.000000 0.000000
usemtl Default-Diffuse.007
s off
f 13/6/8 14/7/8 15/8/8
f 15/8/8 14/7/8 16/9/8
o Plane.005
v 13.366636 7.182803 -2.532565
v 13.366636 7.182802 2.467435
v 13.366636 8.182803 -2.532565
v 13.366636 8.182802 2.467435
vt -0.000000 1.000000
vt 0.000000 0.000000
vt 1.000000 1.000000
vt 1.000000 0.000000
vn -1.000000 0.000000 0.000000
usemtl Default-Diffuse.006
s off
f 17/10/9 18/11/9 19/12/9
f 19/12/9 18/11/9 20/13/9
