# Blender v2.72 (sub 0) OBJ File: ''
# www.blender.org
mtllib sofa.mtl
o Plane_Plane.001
v -5.591418 0.000000 5.591418
v 5.591418 0.000000 5.591418
v -5.591418 0.000000 -5.591418
v 5.591418 0.000000 -5.591418
vn 0.000000 1.000000 0.000000
usemtl None
s off
f 2//1 4//1 3//1
f 1//1 2//1 3//1
o Cube_Cube.003
v -0.080823 0.027051 2.000000
v -0.080823 0.027051 -2.000000
v 6.306187 0.027051 -2.000000
v 6.306187 0.027051 2.000000
v -0.080823 1.140507 2.000000
v -0.080823 1.140507 -2.000000
v 6.306187 1.140507 -2.000000
v 6.306187 1.140507 2.000000
vn -1.000000 0.000000 0.000000
vn 0.000000 0.000000 -1.000000
vn 1.000000 0.000000 0.000000
vn 0.000000 0.000000 1.000000
vn 0.000000 -1.000000 0.000000
vn 0.000000 1.000000 0.000000
usemtl None
s off
f 9//2 10//2 6//2
f 11//3 7//3 6//3
f 11//4 12//4 8//4
f 9//5 5//5 8//5
f 5//6 6//6 7//6
f 12//7 11//7 10//7
f 5//2 9//2 6//2
f 10//3 11//3 6//3
f 7//4 11//4 8//4
f 12//5 9//5 8//5
f 8//6 5//6 7//6
f 9//7 12//7 10//7
o Cube.001_Cube.004
v -0.200000 2.260336 -0.376303
v -0.200000 2.260336 -1.953783
v 0.200000 2.260336 -1.953783
v 0.200000 2.260336 -0.376303
v -0.200000 1.254812 -0.376303
v -0.200000 1.254812 -1.953783
v 0.200000 1.254812 -1.953783
v 0.200000 1.254812 -0.376303
vn 1.000000 0.000000 0.000000
vn 0.000000 0.000000 1.000000
vn -1.000000 0.000000 0.000000
vn 0.000000 0.000000 -1.000000
vn 0.000000 -1.000000 0.000000
vn 0.000000 1.000000 0.000000
usemtl None
s off
f 18//8 14//8 13//8
f 19//9 15//9 14//9
f 20//10 16//10 15//10
f 17//11 13//11 16//11
f 14//12 15//12 16//12
f 19//13 18//13 17//13
f 17//8 18//8 13//8
f 18//9 19//9 14//9
f 19//10 20//10 15//10
f 20//11 17//11 16//11
f 13//12 14//12 16//12
f 20//13 19//13 17//13
o Cube.002_Cube.005
v -0.218704 1.358486 1.924480
v -0.218704 1.358486 0.746476
v 0.181296 1.358486 0.746476
v 0.181296 1.358486 1.924480
v -0.218704 2.226913 1.924480
v -0.218704 2.226913 0.746476
v 0.181296 2.226913 0.746476
v 0.181296 2.226913 1.924480
vn -1.000000 0.000000 0.000000
vn 0.000000 0.000000 -1.000000
vn 1.000000 0.000000 0.000000
vn 0.000000 0.000000 1.000000
vn 0.000000 -1.000000 0.000000
vn 0.000000 1.000000 0.000000
usemtl None
s off
f 26//14 22//14 21//14
f 27//15 23//15 22//15
f 28//16 24//16 23//16
f 25//17 21//17 24//17
f 22//18 23//18 24//18
f 27//19 26//19 25//19
f 25//14 26//14 21//14
f 26//15 27//15 22//15
f 27//16 28//16 23//16
f 28//17 25//17 24//17
f 21//18 22//18 24//18
f 28//19 27//19 25//19
o Cube.003_Cube.006
v -0.200000 2.422619 1.969254
v -0.200000 2.422619 -1.969254
v 0.200000 2.422619 -1.969254
v 0.200000 2.422619 1.969254
v -0.200000 5.761135 1.969254
v -0.200000 5.761135 -1.969254
v 0.200000 5.761135 -1.969254
v 0.200000 5.761135 1.969254
vn -1.000000 0.000000 0.000000
vn 0.000000 0.000000 -1.000000
vn 1.000000 0.000000 0.000000
vn 0.000000 0.000000 1.000000
vn 0.000000 -1.000000 0.000000
vn 0.000000 1.000000 0.000000
usemtl None
s off
f 34//20 30//20 29//20
f 35//21 31//21 30//21
f 36//22 32//22 31//22
f 33//23 29//23 32//23
f 30//24 31//24 32//24
f 35//25 34//25 33//25
f 33//20 34//20 29//20
f 34//21 35//21 30//21
f 35//22 36//22 31//22
f 36//23 33//23 32//23
f 29//24 30//24 32//24
f 36//25 35//25 33//25
o Cube.004_Cube.007
v -0.200000 0.012109 6.196039
v -0.200000 0.012109 2.196039
v 0.200000 0.012109 2.196039
v 0.200000 0.012109 6.196039
v -0.200000 6.203809 6.196039
v -0.200000 6.203809 2.196039
v 0.200000 6.203809 2.196039
v 0.200000 6.203809 6.196039
vn -1.000000 0.000000 0.000000
vn 0.000000 0.000000 -1.000000
vn 1.000000 0.000000 0.000000
vn 0.000000 0.000000 1.000000
vn 0.000000 -1.000000 0.000000
vn 0.000000 1.000000 0.000000
usemtl None
s off
f 42//26 38//26 37//26
f 43//27 39//27 38//27
f 44//28 40//28 39//28
f 41//29 37//29 40//29
f 38//30 39//30 40//30
f 43//31 42//31 41//31
f 41//26 42//26 37//26
f 42//27 43//27 38//27
f 43//28 44//28 39//28
f 44//29 41//29 40//29
f 37//30 38//30 40//30
f 44//31 43//31 41//31
o Cube.005_Cube.008
v -0.200000 0.012109 -1.985754
v -0.200000 0.012109 -5.985754
v 0.200000 0.012109 -5.985754
v 0.200000 0.012109 -1.985754
v -0.200000 6.203809 -1.985754
v -0.200000 6.203809 -5.985754
v 0.200000 6.203809 -5.985754
v 0.200000 6.203809 -1.985754
vn -1.000000 0.000000 0.000000
vn 0.000000 0.000000 -1.000000
vn 1.000000 0.000000 0.000000
vn 0.000000 0.000000 1.000000
vn 0.000000 -1.000000 0.000000
vn 0.000000 1.000000 0.000000
usemtl None
s off
f 50//32 46//32 45//32
f 51//33 47//33 46//33
f 52//34 48//34 47//34
f 49//35 45//35 48//35
f 46//36 47//36 48//36
f 51//37 50//37 49//37
f 49//32 50//32 45//32
f 50//33 51//33 46//33
f 51//34 52//34 47//34
f 52//35 49//35 48//35
f 45//36 46//36 48//36
f 52//37 51//37 49//37
