# Blender v2.72 (sub 0) OBJ File: ''
# www.blender.org
mtllib tunnelsimpleplan.mtl
o Cube.001
v 7.633490 1.600000 1.097810
v 5.834475 -0.000000 1.097810
v 7.633490 -0.000000 1.097810
v 5.834475 1.600000 1.097810
v 7.633490 1.600000 -0.674542
v 5.834475 1.600000 1.097810
v 7.633490 1.600000 1.097810
v 5.834475 1.600000 -0.674542
v 7.633490 0.000000 -0.674542
v 5.834475 1.600000 -0.674542
v 7.633490 1.600000 -0.674542
v 5.834475 0.000000 -0.674542
v 7.633490 -0.000000 1.097810
v 5.834475 0.000000 -0.674542
v 7.633490 0.000000 -0.674542
v 5.834475 -0.000000 1.097810
v 7.633490 1.600000 -0.674542
v 7.633490 -0.000000 1.097810
v 7.633490 0.000000 -0.674542
v 7.633490 1.600000 1.097810
v 5.834475 1.600000 1.097810
v 5.834475 0.000000 -0.674542
v 5.834475 -0.000000 1.097810
v 5.834475 1.600000 -0.674542
v 4.801540 4.987127 1.164751
v 0.666424 1.370779 1.164751
v 4.801540 1.370779 1.164751
v 0.666424 4.987127 1.164751
v 4.801540 4.987127 -0.741483
v 0.666424 4.987127 1.164751
v 4.801540 4.987127 1.164751
v 0.666424 4.987127 -0.741483
v 4.801540 1.370779 -0.741483
v 0.666424 4.987127 -0.741483
v 4.801540 4.987127 -0.741483
v 0.666424 1.370779 -0.741483
v 4.801540 1.370779 1.164751
v 0.666424 1.370779 -0.741483
v 4.801540 1.370779 -0.741483
v 0.666424 1.370779 1.164751
v 4.801540 4.987127 -0.741483
v 4.801540 1.370779 1.164751
v 4.801540 1.370779 -0.741483
v 4.801540 4.987127 1.164751
v 0.666424 4.987127 1.164751
v 0.666424 1.370779 -0.741483
v 0.666424 1.370779 1.164751
v 0.666424 4.987127 -0.741483
v 6.059157 5.000000 -0.778817
v -0.591193 0.000000 -0.778817
v 6.059157 0.000000 -0.778817
v -0.591193 5.000000 -0.778817
v 6.059157 5.000000 -4.801571
v -0.591193 5.000000 -0.778817
v 6.059157 5.000000 -0.778817
v -0.591193 5.000000 -4.801571
v 6.059157 0.000000 -4.801571
v -0.591193 5.000000 -4.801571
v 6.059157 5.000000 -4.801571
v -0.591193 0.000000 -4.801571
v 6.059157 0.000000 -0.778817
v -0.591193 0.000000 -4.801571
v 6.059157 0.000000 -4.801571
v -0.591193 0.000000 -0.778817
v 6.059157 5.000000 -4.801571
v 6.059157 0.000000 -0.778817
v 6.059157 0.000000 -4.801571
v 6.059157 5.000000 -0.778817
v -0.591193 5.000000 -0.778817
v -0.591193 0.000000 -4.801571
v -0.591193 0.000000 -0.778817
v -0.591193 5.000000 -4.801571
v 6.059157 5.000000 5.171646
v -0.591193 -0.000000 5.171646
v 6.059157 -0.000000 5.171646
v -0.591193 5.000000 5.171646
v 6.059157 5.000000 1.148893
v -0.591193 5.000000 5.171646
v 6.059157 5.000000 5.171646
v -0.591193 5.000000 1.148893
v 6.059157 -0.000000 1.148893
v -0.591193 5.000000 1.148893
v 6.059157 5.000000 1.148893
v -0.591193 -0.000000 1.148893
v 6.059157 -0.000000 5.171646
v -0.591193 -0.000000 1.148893
v 6.059157 -0.000000 1.148893
v -0.591193 -0.000000 5.171646
v 6.059157 5.000000 1.148893
v 6.059157 -0.000000 5.171646
v 6.059157 -0.000000 1.148893
v 6.059157 5.000000 5.171646
v -0.591193 5.000000 5.171646
v -0.591193 -0.000000 1.148893
v -0.591193 -0.000000 5.171646
v -0.591193 5.000000 1.148893
vt 1.000000 1.000000
vt 0.000000 0.000000
vt 1.000000 0.000000
vt 0.000000 1.000000
vn 0.000000 -0.000000 1.000000
vn 0.000000 1.000000 0.000000
vn 0.000000 0.000000 -1.000000
vn 0.000000 -1.000000 -0.000000
vn 1.000000 0.000000 0.000000
vn -1.000000 0.000000 0.000000
usemtl Default-Diffuse
s off
f 1/1/1 2/2/1 3/3/1
f 2/2/1 1/1/1 4/4/1
f 5/1/2 6/2/2 7/3/2
f 8/4/2 6/2/2 5/1/2
f 9/1/3 10/2/3 11/3/3
f 12/4/3 10/2/3 9/1/3
f 13/1/4 14/2/4 15/3/4
f 16/4/4 14/2/4 13/1/4
f 17/1/5 18/2/5 19/3/5
f 20/4/5 18/2/5 17/1/5
f 21/1/6 22/2/6 23/3/6
f 24/4/6 22/2/6 21/1/6
f 25/1/1 26/2/1 27/3/1
f 28/4/1 26/2/1 25/1/1
f 29/1/2 30/2/2 31/3/2
f 32/4/2 30/2/2 29/1/2
f 33/1/3 34/2/3 35/3/3
f 36/4/3 34/2/3 33/1/3
f 37/1/4 38/2/4 39/3/4
f 40/4/4 38/2/4 37/1/4
f 41/1/5 42/2/5 43/3/5
f 44/4/5 42/2/5 41/1/5
f 45/1/6 46/2/6 47/3/6
f 48/4/6 46/2/6 45/1/6
f 49/1/1 50/2/1 51/3/1
f 52/4/1 50/2/1 49/1/1
f 53/1/2 54/2/2 55/3/2
f 56/4/2 54/2/2 53/1/2
f 57/1/3 58/2/3 59/3/3
f 60/4/3 58/2/3 57/1/3
f 61/1/4 62/2/4 63/3/4
f 64/4/4 62/2/4 61/1/4
f 65/1/5 66/2/5 67/3/5
f 68/4/5 66/2/5 65/1/5
f 69/1/6 70/2/6 71/3/6
f 72/4/6 70/2/6 69/1/6
f 73/1/1 74/2/1 75/3/1
f 76/4/1 74/2/1 73/1/1
f 77/1/2 78/2/2 79/3/2
f 80/4/2 78/2/2 77/1/2
f 81/1/3 82/2/3 83/3/3
f 84/4/3 82/2/3 81/1/3
f 85/1/4 86/2/4 87/3/4
f 88/4/4 86/2/4 85/1/4
f 89/1/5 90/2/5 91/3/5
f 92/4/5 90/2/5 89/1/5
f 93/1/6 94/2/6 95/3/6
f 96/4/6 94/2/6 93/1/6
o Plane
v -1.266018 0.000000 -4.789259
v -1.266018 -0.000000 5.210741
v 8.733983 0.000000 -4.789258
v 8.733982 -0.000000 5.210742
vt -0.000000 1.000000
vt 0.000000 0.000000
vt 1.000000 1.000000
vt 1.000000 0.000000
vn 0.000000 1.000000 0.000000
usemtl Default-Diffuse
s off
f 97/5/7 98/6/7 99/7/7
f 99/7/7 98/6/7 100/8/7
