# Blender v2.72 (sub 0) OBJ File: ''
# www.blender.org
mtllib tunnelx90.mtl
o Plane
v -0.266018 -4.210741 0.000001
v -1.266018 -5.210741 0.000001
v -0.266018 -5.210741 0.000001
v -1.266018 -4.210741 0.000001
v 0.733982 -4.210741 0.000001
v 0.733982 -5.210741 0.000001
v 1.733982 -4.210741 0.000001
v 1.733982 -5.210741 0.000001
v 2.733982 -4.210741 0.000001
v 2.733982 -5.210741 0.000001
v 3.733982 -4.210741 0.000001
v 3.733982 -5.210741 0.000001
v 4.733982 -4.210741 0.000001
v 4.733982 -5.210741 0.000001
v 5.733982 -4.210741 0.000001
v 5.733982 -5.210741 0.000001
v 6.733982 -4.210741 0.000001
v 6.733982 -5.210741 0.000001
v 7.733983 -4.210741 0.000001
v 7.733983 -5.210741 0.000001
v 8.733982 -4.210741 0.000001
v 8.733982 -5.210741 0.000001
v 2.733982 -3.210741 0.000000
v 3.733982 -3.210741 0.000000
v 4.733982 -3.210741 0.000000
v 5.733982 -3.210741 0.000000
v 6.733982 -3.210741 0.000000
v 7.733983 -3.210741 0.000000
v 8.733982 -3.210741 0.000000
v 3.733982 -2.210741 0.000000
v 2.733982 -2.210741 0.000000
v 1.733982 -3.210741 0.000000
v 0.733982 -3.210741 0.000000
v -0.266018 -3.210741 0.000000
v -1.266018 -3.210741 0.000000
v -0.266018 -2.210741 0.000000
v -1.266018 -2.210741 0.000000
v 0.733982 -2.210741 0.000000
v 1.733982 -2.210741 0.000000
v 8.733982 -2.210741 0.000000
v -0.266018 -1.210741 0.000000
v -1.266018 -1.210741 0.000000
v 0.733982 -1.210741 0.000000
v 1.733982 -1.210741 0.000000
v 2.733982 -1.210741 0.000000
v 3.733982 -1.210741 0.000000
v 4.733982 -1.210741 0.000000
v 4.733982 -2.210741 0.000000
v 5.733982 -2.210741 0.000000
v 6.733982 -2.210741 0.000000
v 7.733983 -2.210741 0.000000
v 5.733982 -1.210741 0.000000
v 6.733982 -1.210741 0.000000
v 7.733983 -1.210741 0.000000
v 8.733982 -1.210741 0.000000
v 5.733982 -0.210741 0.000000
v 4.733982 -0.210741 0.000000
v 6.733982 -0.210741 0.000000
v 7.733983 -0.210741 0.000000
v 8.733982 -0.210741 0.000000
v 5.733982 0.789259 -0.000000
v 4.733982 0.789259 -0.000000
v 3.733982 -0.210741 0.000000
v 2.733982 -0.210741 0.000000
v 1.733982 -0.210741 0.000000
v 0.733982 -0.210741 0.000000
v -0.266018 -0.210741 0.000000
v -1.266018 -0.210741 0.000000
v -0.266018 0.789259 -0.000000
v -1.266018 0.789259 -0.000000
v 0.733982 0.789259 -0.000000
v 1.733982 0.789259 -0.000000
v 2.733982 0.789259 -0.000000
v 3.733982 0.789259 -0.000000
v -0.266018 1.789259 -0.000000
v -1.266018 1.789259 -0.000000
v 0.733982 1.789259 -0.000000
v 1.733982 1.789259 -0.000000
v 2.733982 1.789259 -0.000000
v 3.733982 1.789259 -0.000000
v 4.733982 1.789259 -0.000000
v 5.733982 1.789259 -0.000000
v 6.733982 1.789259 -0.000000
v 6.733982 0.789259 -0.000000
v 7.733983 0.789259 -0.000000
v 8.733982 0.789259 -0.000000
v 7.733983 1.789259 -0.000000
v 8.733982 1.789259 -0.000000
v 2.733982 2.789259 -0.000000
v 3.733982 2.789259 -0.000000
v 5.733982 2.789259 -0.000000
v 6.733982 2.789259 -0.000000
v 7.733983 2.789259 -0.000000
v 8.733982 2.789259 -0.000000
v 3.733982 3.789259 -0.000001
v 2.733982 3.789259 -0.000001
v 1.733982 2.789259 -0.000000
v 0.733982 2.789259 -0.000000
v -0.266018 2.789259 -0.000000
v -1.266018 2.789259 -0.000000
v -0.266018 3.789259 -0.000001
v -1.266018 3.789259 -0.000001
v 0.733982 3.789259 -0.000001
v 1.733982 3.789259 -0.000001
v -0.266018 4.789259 -0.000001
v -1.266018 4.789259 -0.000001
v 0.733982 4.789259 -0.000001
v 1.733982 4.789259 -0.000001
v 2.733982 4.789259 -0.000001
v 3.733982 4.789259 -0.000001
v 4.733982 4.789259 -0.000001
v 4.733982 3.789259 -0.000001
v 4.733982 2.789259 -0.000000
v 5.733982 3.789259 -0.000001
v 6.733982 3.789259 -0.000001
v 7.733983 3.789259 -0.000001
v 8.733982 3.789259 -0.000001
v 5.733982 4.789259 -0.000001
v 6.733982 4.789259 -0.000001
v 7.733983 4.789259 -0.000001
v 8.733982 4.789259 -0.000001
vt 0.100000 0.100000
vt 0.000000 0.000000
vt 0.100000 0.000000
vt 0.000000 0.100000
vt 0.200000 0.100000
vt 0.200000 0.000000
vt 0.300000 0.100000
vt 0.300000 0.000000
vt 0.400000 0.100000
vt 0.400000 0.000000
vt 0.500000 0.100000
vt 0.500000 0.000000
vt 0.600000 0.100000
vt 0.600000 0.000000
vt 0.700000 0.100000
vt 0.700000 0.000000
vt 0.800000 0.100000
vt 0.800000 0.000000
vt 0.900000 0.100000
vt 0.900000 0.000000
vt 1.000000 0.100000
vt 1.000000 0.000000
vt 0.400000 0.200000
vt 0.500000 0.200000
vt 0.600000 0.200000
vt 0.700000 0.200000
vt 0.800000 0.200000
vt 0.900000 0.200000
vt 1.000000 0.200000
vt 0.500000 0.300000
vt 0.400000 0.300000
vt 0.300000 0.200000
vt 0.200000 0.200000
vt 0.100000 0.200000
vt 0.000000 0.200000
vt 0.100000 0.300000
vt 0.000000 0.300000
vt 0.200000 0.300000
vt 0.300000 0.300000
vt 1.000000 0.300000
vt 0.100000 0.400000
vt 0.000000 0.400000
vt 0.200000 0.400000
vt 0.300000 0.400000
vt 0.400000 0.400000
vt 0.500000 0.400000
vt 0.600000 0.400000
vt 0.600000 0.300000
vt 0.700000 0.300000
vt 0.800000 0.300000
vt 0.900000 0.300000
vt 0.700000 0.400000
vt 0.800000 0.400000
vt 0.900000 0.400000
vt 1.000000 0.400000
vt 0.700000 0.500000
vt 0.600000 0.500000
vt 0.800000 0.500000
vt 0.900000 0.500000
vt 1.000000 0.500000
vt 0.700000 0.600000
vt 0.600000 0.600000
vt 0.500000 0.500000
vt 0.400000 0.500000
vt 0.300000 0.500000
vt 0.200000 0.500000
vt 0.100000 0.500000
vt 0.000000 0.500000
vt 0.100000 0.600000
vt 0.000000 0.600000
vt 0.200000 0.600000
vt 0.300000 0.600000
vt 0.400000 0.600000
vt 0.500000 0.600000
vt 0.100000 0.700000
vt 0.000000 0.700000
vt 0.200000 0.700000
vt 0.300000 0.700000
vt 0.400000 0.700000
vt 0.500000 0.700000
vt 0.600000 0.700000
vt 0.700000 0.700000
vt 0.800000 0.700000
vt 0.800000 0.600000
vt 0.900000 0.600000
vt 1.000000 0.600000
vt 0.900000 0.700000
vt 1.000000 0.700000
vt 0.400000 0.800000
vt 0.500000 0.800000
vt 0.700000 0.800000
vt 0.800000 0.800000
vt 0.900000 0.800000
vt 1.000000 0.800000
vt 0.500000 0.900000
vt 0.400000 0.900000
vt 0.300000 0.800000
vt 0.200000 0.800000
vt 0.100000 0.800000
vt 0.000000 0.800000
vt 0.100000 0.900000
vt 0.000000 0.900000
vt 0.200000 0.900000
vt 0.300000 0.900000
vt 0.100000 1.000000
vt 0.000000 1.000000
vt 0.200000 1.000000
vt 0.300000 1.000000
vt 0.400000 1.000000
vt 0.500000 1.000000
vt 0.600000 1.000000
vt 0.600000 0.900000
vt 0.600000 0.800000
vt 0.700000 0.900000
vt 0.800000 0.900000
vt 0.900000 0.900000
vt 1.000000 0.900000
vt 0.700000 1.000000
vt 0.800000 1.000000
vt 0.900000 1.000000
vt 1.000000 1.000000
vn 0.000000 0.000000 1.000000
usemtl Default-Diffuse
s off
f 1/1/1 2/2/1 3/3/1
f 2/2/1 1/1/1 4/4/1
f 1/1/1 3/3/1 5/5/1
f 5/5/1 3/3/1 6/6/1
f 5/5/1 6/6/1 7/7/1
f 7/7/1 6/6/1 8/8/1
f 7/7/1 8/8/1 9/9/1
f 9/9/1 8/8/1 10/10/1
f 9/9/1 10/10/1 11/11/1
f 11/11/1 10/10/1 12/12/1
f 11/11/1 12/12/1 13/13/1
f 13/13/1 12/12/1 14/14/1
f 13/13/1 14/14/1 15/15/1
f 15/15/1 14/14/1 16/16/1
f 15/15/1 16/16/1 17/17/1
f 17/17/1 16/16/1 18/18/1
f 17/17/1 18/18/1 19/19/1
f 19/19/1 18/18/1 20/20/1
f 19/19/1 20/20/1 21/21/1
f 21/21/1 20/20/1 22/22/1
f 23/23/1 7/7/1 9/9/1
f 24/24/1 9/9/1 11/11/1
f 23/23/1 9/9/1 24/24/1
f 25/25/1 11/11/1 13/13/1
f 24/24/1 11/11/1 25/25/1
f 26/26/1 13/13/1 15/15/1
f 25/25/1 13/13/1 26/26/1
f 27/27/1 15/15/1 17/17/1
f 26/26/1 15/15/1 27/27/1
f 28/28/1 17/17/1 19/19/1
f 27/27/1 17/17/1 28/28/1
f 29/29/1 19/19/1 21/21/1
f 28/28/1 19/19/1 29/29/1
f 30/30/1 23/23/1 24/24/1
f 31/31/1 23/23/1 30/30/1
f 31/31/1 32/32/1 23/23/1
f 32/32/1 7/7/1 23/23/1
f 32/32/1 5/5/1 7/7/1
f 33/33/1 5/5/1 32/32/1
f 33/33/1 1/1/1 5/5/1
f 34/34/1 1/1/1 33/33/1
f 4/4/1 1/1/1 34/34/1
f 35/35/1 4/4/1 34/34/1
f 36/36/1 35/35/1 34/34/1
f 37/37/1 35/35/1 36/36/1
f 38/38/1 34/34/1 33/33/1
f 36/36/1 34/34/1 38/38/1
f 39/39/1 33/33/1 32/32/1
f 38/38/1 33/33/1 39/39/1
f 39/39/1 32/32/1 31/31/1
f 40/40/1 28/28/1 29/29/1
f 41/41/1 37/37/1 36/36/1
f 42/42/1 37/37/1 41/41/1
f 43/43/1 36/36/1 38/38/1
f 41/41/1 36/36/1 43/43/1
f 44/44/1 38/38/1 39/39/1
f 43/43/1 38/38/1 44/44/1
f 44/44/1 39/39/1 45/45/1
f 45/45/1 39/39/1 31/31/1
f 45/45/1 31/31/1 46/46/1
f 46/46/1 31/31/1 30/30/1
f 46/46/1 30/30/1 47/47/1
f 47/47/1 30/30/1 48/48/1
f 30/30/1 24/24/1 48/48/1
f 48/48/1 24/24/1 25/25/1
f 48/48/1 25/25/1 49/49/1
f 49/49/1 25/25/1 26/26/1
f 49/49/1 26/26/1 50/50/1
f 50/50/1 26/26/1 27/27/1
f 50/50/1 27/27/1 51/51/1
f 51/51/1 27/27/1 28/28/1
f 51/51/1 28/28/1 40/40/1
f 52/52/1 48/48/1 49/49/1
f 47/47/1 48/48/1 52/52/1
f 53/53/1 49/49/1 50/50/1
f 52/52/1 49/49/1 53/53/1
f 54/54/1 50/50/1 51/51/1
f 53/53/1 50/50/1 54/54/1
f 55/55/1 51/51/1 40/40/1
f 54/54/1 51/51/1 55/55/1
f 56/56/1 47/47/1 52/52/1
f 57/57/1 47/47/1 56/56/1
f 58/58/1 52/52/1 53/53/1
f 56/56/1 52/52/1 58/58/1
f 59/59/1 53/53/1 54/54/1
f 58/58/1 53/53/1 59/59/1
f 60/60/1 54/54/1 55/55/1
f 59/59/1 54/54/1 60/60/1
f 61/61/1 57/57/1 56/56/1
f 62/62/1 57/57/1 61/61/1
f 62/62/1 63/63/1 57/57/1
f 63/63/1 46/46/1 57/57/1
f 63/63/1 45/45/1 46/46/1
f 64/64/1 45/45/1 63/63/1
f 64/64/1 44/44/1 45/45/1
f 65/65/1 44/44/1 64/64/1
f 65/65/1 43/43/1 44/44/1
f 66/66/1 43/43/1 65/65/1
f 66/66/1 41/41/1 43/43/1
f 67/67/1 41/41/1 66/66/1
f 67/67/1 42/42/1 41/41/1
f 68/68/1 42/42/1 67/67/1
f 69/69/1 68/68/1 67/67/1
f 70/70/1 68/68/1 69/69/1
f 71/71/1 67/67/1 66/66/1
f 69/69/1 67/67/1 71/71/1
f 72/72/1 66/66/1 65/65/1
f 71/71/1 66/66/1 72/72/1
f 73/73/1 65/65/1 64/64/1
f 72/72/1 65/65/1 73/73/1
f 73/73/1 64/64/1 74/74/1
f 74/74/1 64/64/1 63/63/1
f 74/74/1 63/63/1 62/62/1
f 75/75/1 70/70/1 69/69/1
f 76/76/1 70/70/1 75/75/1
f 77/77/1 69/69/1 71/71/1
f 75/75/1 69/69/1 77/77/1
f 78/78/1 71/71/1 72/72/1
f 77/77/1 71/71/1 78/78/1
f 79/79/1 72/72/1 73/73/1
f 78/78/1 72/72/1 79/79/1
f 80/80/1 73/73/1 74/74/1
f 79/79/1 73/73/1 80/80/1
f 81/81/1 74/74/1 62/62/1
f 80/80/1 74/74/1 81/81/1
f 81/81/1 62/62/1 82/82/1
f 82/82/1 62/62/1 61/61/1
f 82/82/1 61/61/1 83/83/1
f 83/83/1 61/61/1 84/84/1
f 61/61/1 56/56/1 84/84/1
f 84/84/1 56/56/1 58/58/1
f 84/84/1 58/58/1 85/85/1
f 85/85/1 58/58/1 59/59/1
f 85/85/1 59/59/1 86/86/1
f 86/86/1 59/59/1 60/60/1
f 87/87/1 84/84/1 85/85/1
f 83/83/1 84/84/1 87/87/1
f 88/88/1 85/85/1 86/86/1
f 87/87/1 85/85/1 88/88/1
f 89/89/1 78/78/1 79/79/1
f 90/90/1 79/79/1 80/80/1
f 89/89/1 79/79/1 90/90/1
f 91/91/1 81/81/1 82/82/1
f 92/92/1 82/82/1 83/83/1
f 91/91/1 82/82/1 92/92/1
f 93/93/1 83/83/1 87/87/1
f 92/92/1 83/83/1 93/93/1
f 94/94/1 87/87/1 88/88/1
f 93/93/1 87/87/1 94/94/1
f 95/95/1 89/89/1 90/90/1
f 96/96/1 89/89/1 95/95/1
f 96/96/1 97/97/1 89/89/1
f 97/97/1 78/78/1 89/89/1
f 97/97/1 77/77/1 78/78/1
f 98/98/1 77/77/1 97/97/1
f 98/98/1 75/75/1 77/77/1
f 99/99/1 75/75/1 98/98/1
f 99/99/1 76/76/1 75/75/1
f 100/100/1 76/76/1 99/99/1
f 101/101/1 100/100/1 99/99/1
f 102/102/1 100/100/1 101/101/1
f 103/103/1 99/99/1 98/98/1
f 101/101/1 99/99/1 103/103/1
f 104/104/1 98/98/1 97/97/1
f 103/103/1 98/98/1 104/104/1
f 104/104/1 97/97/1 96/96/1
f 105/105/1 102/102/1 101/101/1
f 106/106/1 102/102/1 105/105/1
f 107/107/1 101/101/1 103/103/1
f 105/105/1 101/101/1 107/107/1
f 108/108/1 103/103/1 104/104/1
f 107/107/1 103/103/1 108/108/1
f 108/108/1 104/104/1 109/109/1
f 109/109/1 104/104/1 96/96/1
f 109/109/1 96/96/1 110/110/1
f 110/110/1 96/96/1 95/95/1
f 110/110/1 95/95/1 111/111/1
f 111/111/1 95/95/1 112/112/1
f 95/95/1 90/90/1 112/112/1
f 112/112/1 90/90/1 113/113/1
f 90/90/1 80/80/1 113/113/1
f 113/113/1 80/80/1 81/81/1
f 113/113/1 81/81/1 91/91/1
f 114/114/1 113/113/1 91/91/1
f 112/112/1 113/113/1 114/114/1
f 114/114/1 91/91/1 115/115/1
f 115/115/1 91/91/1 92/92/1
f 115/115/1 92/92/1 116/116/1
f 116/116/1 92/92/1 93/93/1
f 116/116/1 93/93/1 117/117/1
f 117/117/1 93/93/1 94/94/1
f 118/118/1 112/112/1 114/114/1
f 111/111/1 112/112/1 118/118/1
f 119/119/1 114/114/1 115/115/1
f 118/118/1 114/114/1 119/119/1
f 120/120/1 115/115/1 116/116/1
f 119/119/1 115/115/1 120/120/1
f 121/121/1 116/116/1 117/117/1
f 120/120/1 116/116/1 121/121/1
f 57/57/1 46/46/1 47/47/1
o Cube.001
v 7.633490 -1.097810 1.600000
v 5.834475 -1.097810 0.000000
v 7.633490 -1.097810 0.000000
v 5.834475 -1.097810 1.600000
v 7.633490 0.674542 1.600000
v 5.834475 -1.097810 1.600000
v 7.633490 -1.097810 1.600000
v 5.834475 0.674542 1.600000
v 7.633490 0.674542 -0.000000
v 5.834475 0.674542 1.600000
v 7.633490 0.674542 1.600000
v 5.834475 0.674542 -0.000000
v 7.633490 -1.097810 0.000000
v 5.834475 0.674542 -0.000000
v 7.633490 0.674542 -0.000000
v 5.834475 -1.097810 0.000000
v 7.633490 0.674542 1.600000
v 7.633490 -1.097810 0.000000
v 7.633490 0.674542 -0.000000
v 7.633490 -1.097810 1.600000
v 5.834475 -1.097810 1.600000
v 5.834475 0.674542 -0.000000
v 5.834475 -1.097810 0.000000
v 5.834475 0.674542 1.600000
v 4.801540 -1.164750 4.987127
v 0.666424 -1.164751 1.370779
v 4.801540 -1.164751 1.370779
v 0.666424 -1.164750 4.987127
v 4.801540 0.741484 4.987127
v 0.666424 -1.164750 4.987127
v 4.801540 -1.164750 4.987127
v 0.666424 0.741484 4.987127
v 4.801540 0.741483 1.370779
v 0.666424 0.741484 4.987127
v 4.801540 0.741484 4.987127
v 0.666424 0.741483 1.370779
v 4.801540 -1.164751 1.370779
v 0.666424 0.741483 1.370779
v 4.801540 0.741483 1.370779
v 0.666424 -1.164751 1.370779
v 4.801540 0.741484 4.987127
v 4.801540 -1.164751 1.370779
v 4.801540 0.741483 1.370779
v 4.801540 -1.164750 4.987127
v 0.666424 -1.164750 4.987127
v 0.666424 0.741483 1.370779
v 0.666424 -1.164751 1.370779
v 0.666424 0.741484 4.987127
v 6.059157 0.778818 5.000000
v -0.591193 0.778817 -0.000000
v 6.059157 0.778817 -0.000000
v -0.591193 0.778818 5.000000
v 6.059157 4.801572 4.999999
v -0.591193 0.778818 5.000000
v 6.059157 0.778818 5.000000
v -0.591193 4.801572 4.999999
v 6.059157 4.801571 -0.000001
v -0.591193 4.801572 4.999999
v 6.059157 4.801572 4.999999
v -0.591193 4.801571 -0.000001
v 6.059157 0.778817 -0.000000
v -0.591193 4.801571 -0.000001
v 6.059157 4.801571 -0.000001
v -0.591193 0.778817 -0.000000
v 6.059157 4.801572 4.999999
v 6.059157 0.778817 -0.000000
v 6.059157 4.801571 -0.000001
v 6.059157 0.778818 5.000000
v -0.591193 0.778818 5.000000
v -0.591193 4.801571 -0.000001
v -0.591193 0.778817 -0.000000
v -0.591193 4.801572 4.999999
v 6.059157 -5.171645 5.000001
v -0.591193 -5.171646 0.000001
v 6.059157 -5.171646 0.000001
v -0.591193 -5.171645 5.000001
v 6.059157 -1.148892 5.000000
v -0.591193 -5.171645 5.000001
v 6.059157 -5.171645 5.000001
v -0.591193 -1.148892 5.000000
v 6.059157 -1.148893 0.000000
v -0.591193 -1.148892 5.000000
v 6.059157 -1.148892 5.000000
v -0.591193 -1.148893 0.000000
v 6.059157 -5.171646 0.000001
v -0.591193 -1.148893 0.000000
v 6.059157 -1.148893 0.000000
v -0.591193 -5.171646 0.000001
v 6.059157 -1.148892 5.000000
v 6.059157 -5.171646 0.000001
v 6.059157 -1.148893 0.000000
v 6.059157 -5.171645 5.000001
v -0.591193 -5.171645 5.000001
v -0.591193 -1.148893 0.000000
v -0.591193 -5.171646 0.000001
v -0.591193 -1.148892 5.000000
vt 1.000000 1.000000
vt 0.000000 0.000000
vt 1.000000 0.000000
vt 0.000000 1.000000
vn 0.000000 -1.000000 0.000000
vn 0.000000 0.000000 1.000000
vn 0.000000 1.000000 -0.000000
vn 0.000000 -0.000000 -1.000000
vn 1.000000 0.000000 0.000000
vn -1.000000 -0.000000 0.000000
usemtl Default-Diffuse
s off
f 122/122/2 123/123/2 124/124/2
f 123/123/2 122/122/2 125/125/2
f 126/122/3 127/123/3 128/124/3
f 129/125/3 127/123/3 126/122/3
f 130/122/4 131/123/4 132/124/4
f 133/125/4 131/123/4 130/122/4
f 134/122/5 135/123/5 136/124/5
f 137/125/5 135/123/5 134/122/5
f 138/122/6 139/123/6 140/124/6
f 141/125/6 139/123/6 138/122/6
f 142/122/7 143/123/7 144/124/7
f 145/125/7 143/123/7 142/122/7
f 146/122/2 147/123/2 148/124/2
f 149/125/2 147/123/2 146/122/2
f 150/122/3 151/123/3 152/124/3
f 153/125/3 151/123/3 150/122/3
f 154/122/4 155/123/4 156/124/4
f 157/125/4 155/123/4 154/122/4
f 158/122/5 159/123/5 160/124/5
f 161/125/5 159/123/5 158/122/5
f 162/122/6 163/123/6 164/124/6
f 165/125/6 163/123/6 162/122/6
f 166/122/7 167/123/7 168/124/7
f 169/125/7 167/123/7 166/122/7
f 170/122/2 171/123/2 172/124/2
f 173/125/2 171/123/2 170/122/2
f 174/122/3 175/123/3 176/124/3
f 177/125/3 175/123/3 174/122/3
f 178/122/4 179/123/4 180/124/4
f 181/125/4 179/123/4 178/122/4
f 182/122/5 183/123/5 184/124/5
f 185/125/5 183/123/5 182/122/5
f 186/122/6 187/123/6 188/124/6
f 189/125/6 187/123/6 186/122/6
f 190/122/7 191/123/7 192/124/7
f 193/125/7 191/123/7 190/122/7
f 194/122/2 195/123/2 196/124/2
f 197/125/2 195/123/2 194/122/2
f 198/122/3 199/123/3 200/124/3
f 201/125/3 199/123/3 198/122/3
f 202/122/4 203/123/4 204/124/4
f 205/125/4 203/123/4 202/122/4
f 206/122/5 207/123/5 208/124/5
f 209/125/5 207/123/5 206/122/5
f 210/122/6 211/123/6 212/124/6
f 213/125/6 211/123/6 210/122/6
f 214/122/7 215/123/7 216/124/7
f 217/125/7 215/123/7 214/122/7
