# Blender v2.62 (sub 0) OBJ File: ''
# www.blender.org
mtllib wall_1s.mtl
o Mesh_Plane001
v -9.399991 15.748159 -2.109072
v -9.401065 20.014362 -2.114977
v -9.401333 15.759972 -6.095303
v -5.698028 0.496869 3.920196
v -3.286157 0.496864 13.551572
v -3.286157 8.717629 5.229882
v -3.286160 38.916874 13.551586
v -7.839593 26.413534 13.551848
v -7.835835 38.916874 13.552123
v -3.286160 26.405750 13.551580
v -3.286160 19.734114 19.575752
v -18.581472 31.056623 -3.128041
v -24.857437 34.650944 -16.515865
v -20.377291 29.286848 -12.179335
v -3.286160 10.769810 -28.263309
v -3.288304 0.496871 -7.948570
v -17.751747 38.916878 -3.125352
v -25.110300 38.916882 -15.252618
v -6.412868 15.165933 -28.263309
v -5.382891 7.732481 2.383149
v -9.400528 18.990831 -6.096107
v -6.421995 21.414246 -12.474611
v -13.685256 21.255066 -8.218069
v -10.615725 23.652706 0.316222
v -13.724983 30.945763 -3.113546
v -9.819819 28.895201 4.999036
v -13.978653 38.916878 7.601500
v -7.835832 19.741631 19.575752
v -13.986975 38.916878 -3.118910
v -18.615564 26.718481 -17.174870
v -18.462830 30.173216 -23.841137
v -12.575285 17.195559 -28.263306
v -3.286157 0.496878 -28.263311
v -24.667114 34.938972 -28.263302
v -19.413351 28.710524 -28.263304
v -13.715051 26.606815 -18.138279
v -13.717467 29.179747 -13.138714
v -3.289919 28.220900 5.245995
v -7.843620 38.916874 19.575758
v -3.286157 0.496863 19.575747
v -25.115135 38.916882 -28.263302
v -3.286160 38.916882 7.840942
v -8.394441 17.084694 -28.263306
vt 0.772000 0.235900
vt 0.771200 0.777600
vt 0.176400 0.237400
vt -0.058500 0.024400
vt 1.058500 0.030600
vt 0.142800 1.050400
vt 0.291600 1.401000
vt 0.913000 -0.297200
vt 0.912500 1.401000
vt -0.297600 0.211800
vt 1.192900 0.211800
vt -0.298500 0.788200
vt 1.378300 0.375500
vt -0.229400 1.123200
vt 0.265300 0.359000
vt -0.971000 0.480000
vt 1.839100 -0.432100
vt 1.836800 1.665700
vt 1.417200 0.950200
vt -0.291500 0.950200
vt 1.360300 0.151000
vt -1.016600 1.161700
vt -0.423100 0.000500
vt 1.423100 0.000500
vt 1.183900 0.999500
vt 2.002400 0.539000
vt 1.122900 0.951100
vt 1.989900 0.199300
vt 0.158200 0.190300
vt 0.802900 0.303800
vt -0.200300 0.793600
vt -0.023400 -0.699900
vt 0.899600 -0.000900
vt -0.008900 0.571300
vt -0.115600 -0.013200
vt 1.059100 -0.014700
vt 0.846000 1.304200
vt 0.291600 -0.298200
vt 1.192000 0.787700
vt 1.109600 0.915700
vt -0.108600 0.915800
vt -0.108000 0.084200
vt 1.150600 0.788400
vt -0.399900 0.516500
vt 1.048100 0.698300
vt 0.256400 0.719900
vt 0.282400 -0.708000
vt 0.176200 0.647600
vt -0.814500 1.163700
vt -0.814500 -0.163700
vt 1.865200 -0.163700
vt -0.326000 0.037600
vt 0.770100 1.682200
vt 1.180500 0.944400
vt -0.229500 0.945500
vt 0.301300 -0.003000
vt 0.968800 0.874900
vt 0.250000 1.751300
vt 0.284000 0.801300
vt 0.215200 -0.754200
vt -0.301700 0.144000
vt 1.019100 0.148100
vt 0.069000 0.670500
vt 1.002200 1.388600
vt -0.126700 0.127900
vt 1.193200 0.128500
vt 1.194100 0.665000
vt 0.084200 0.260500
vt 0.915800 0.286300
vt 0.095800 0.739500
vt 0.915800 0.657700
vt -0.001900 0.863300
vt -0.971900 0.206300
vt 1.187300 0.785100
vt 0.314300 -0.147400
vt 0.155100 -1.066200
vt -0.220600 -0.022300
vt 0.655200 -1.817700
vt 0.655100 1.308200
vt -0.466600 1.527200
vt 0.074100 1.724700
vt 0.074100 0.143800
vt 0.920200 1.724700
vt 1.468800 -1.817700
vt 1.468800 0.503300
vt 1.158700 0.258300
vt -0.365100 0.724200
vt -0.365100 0.288400
vt 1.222500 1.412400
vt -0.222200 2.454600
vt 0.655200 2.817700
vt -0.116100 2.817700
vt 1.221700 0.870600
vt 1.317700 0.406100
vt 0.601700 1.605300
vt -0.304600 -0.606900
vt -0.022000 1.606900
vt -0.048300 1.235200
vt 0.951500 1.247900
vt 1.000400 0.275100
vt -0.021300 -0.188800
vt -0.034700 1.136700
vt 1.302400 1.140700
vt -0.468800 -0.825800
vt 0.920200 -0.699800
vt 0.745800 -0.309500
vt 0.797300 -0.109800
vt 1.322600 0.724200
vt -0.517700 -0.230200
vt 1.575900 0.248100
vt 0.841000 1.230200
vt -0.516700 0.075500
vt 0.457500 1.260300
vt -0.217500 1.342100
vt 1.215800 -0.405600
vt 0.194700 0.034500
vt 0.903200 0.148900
vt 0.203400 0.641800
vt 0.873900 0.967100
vt 0.650800 -0.400100
vt 0.553200 -0.091100
vt 1.100500 0.931100
vt -0.526200 0.925200
vt 1.528400 0.335900
vn -1.000000 -0.000251 0.000336
vn -0.941986 0.238786 0.235890
vn -0.000118 0.000022 -1.000000
vn -0.001189 -0.670174 -0.742203
vn -0.834174 -0.486076 0.260545
vn -0.921033 -0.347532 -0.175840
vn -0.851479 0.089705 0.516659
vn -0.811304 -0.577033 -0.093909
vn -0.980005 0.000416 -0.198971
vn -0.906097 0.000120 -0.423069
vn -0.536106 -0.817581 0.210124
vn -0.901321 -0.204755 0.381703
vn -0.850768 -0.431107 0.300567
vn -0.000059 0.000000 -1.000000
vn -0.001107 -0.670143 -0.742231
vn -0.999460 -0.032849 0.000776
vn -0.901200 -0.204507 0.382120
vn -0.909216 -0.166844 0.381430
vn -0.916049 -0.347130 -0.200885
vn -1.000000 0.000249 -0.000199
vn -1.000000 -0.000000 -0.000106
vn -0.783447 -0.620005 0.042474
vn -0.758780 -0.571037 -0.313320
vn -0.595673 -0.802691 -0.029331
vn -0.715108 -0.603201 0.353226
vn -0.810609 -0.481373 0.333457
vn -0.999994 -0.003308 0.001219
vn -0.999992 -0.004083 -0.000030
vn -0.022993 -0.984579 0.173424
vn -0.002972 0.000575 0.999995
vn -0.001711 -0.000162 0.999999
vn 0.011535 -0.981779 0.189676
vn -0.931184 0.338785 -0.134611
vn -0.743016 -0.525232 0.414800
vn -0.936857 -0.090732 0.337687
vn -0.986816 0.130039 0.096133
vn -0.942473 0.056764 0.329325
vn -0.996216 0.061556 0.060854
vn -0.797815 -0.216742 -0.562548
vn -0.777978 -0.225227 0.586505
vn -0.706626 0.000214 -0.707572
vn -0.634785 -0.277261 -0.721213
vn -0.999969 0.000092 -0.000855
vn -0.999969 0.000000 0.000000
vn -0.837825 -0.365825 -0.405164
vn -0.923429 -0.372967 0.090060
vn -0.994842 -0.100223 -0.014557
vn -0.885861 -0.461654 0.045747
vn -0.808710 -0.326365 0.489303
vn -0.707205 0.000153 -0.706992
vn -0.762291 -0.152318 0.629017
vn -0.945524 -0.140660 0.293497
vn -0.964599 -0.247353 -0.091220
vn -0.981597 -0.150426 -0.117527
vn -0.464553 -0.462722 0.754997
vn -0.610614 -0.479537 0.630177
vn -0.655141 -0.318461 0.685080
vn -0.423963 -0.607044 -0.672079
vn -0.963988 -0.081210 0.253182
vn -0.830317 -0.554826 0.052156
vn -0.864772 -0.444166 -0.234169
vn -0.344310 -0.839961 0.419324
vn -0.470199 -0.759606 0.449263
vn -0.507950 -0.835658 0.208777
vn -0.661000 -0.705496 0.255562
vn -0.523576 -0.811457 0.259529
vn -0.316691 -0.777123 0.543809
vn -0.787072 -0.612690 -0.071322
vn -0.857418 -0.481216 -0.182195
usemtl wire_086086086.001
s off
f 1/1/1 2/2/1 3/3/1
f 4/4/2 5/5/2 6/6/2
f 7/7/3 8/8/3 9/9/3
f 10/10/4 11/11/4 8/12/4
f 12/13/5 13/14/5 14/15/5
f 15/16/6 16/17/6 3/18/6
f 17/19/7 18/20/7 12/21/7
f 3/18/8 19/22/8 15/16/8
f 16/23/9 4/24/9 20/25/9
f 21/26/10 22/27/10 3/28/10
f 21/29/11 2/30/11 23/31/11
f 23/32/12 24/33/12 25/34/12
f 25/35/13 26/36/13 27/37/13
f 7/7/14 10/38/14 8/8/14
f 11/11/15 28/39/15 8/12/15
f 27/40/16 29/41/16 25/42/16
f 24/33/17 26/43/17 25/34/17
f 18/20/18 13/44/18 12/21/18
f 30/45/19 31/46/19 32/47/19
f 2/2/20 21/48/20 3/3/20
f 15/49/21 33/50/21 16/51/21
f 13/14/22 30/52/22 14/15/22
f 30/45/23 13/53/23 31/46/23
f 13/54/24 34/55/24 31/56/24
f 31/57/25 34/58/25 35/59/25
f 31/57/26 35/59/26 32/60/26
f 36/61/27 23/62/27 37/63/27
f 37/63/28 23/62/28 25/64/28
f 37/65/29 25/66/29 12/67/29
f 25/68/30 29/69/30 12/70/30
f 29/69/31 17/71/31 12/70/31
f 12/67/32 14/72/32 37/65/32
f 22/27/33 19/73/33 3/28/33
f 2/30/34 24/74/34 23/31/34
s 1
f 20/75/35 4/76/36 6/77/37
f 5/78/38 10/79/39 38/80/40
f 9/81/41 8/82/42 39/83/43
f 5/78/38 40/84/44 11/85/45
f 13/86/46 41/87/47 34/88/48
f 2/89/49 6/77/37 38/90/40
f 7/91/50 42/92/51 38/80/40
f 6/77/37 1/93/52 20/75/35
f 20/94/35 1/95/52 16/96/53
f 1/95/52 3/97/54 16/96/53
f 38/98/40 26/99/55 24/100/56
f 38/101/40 42/102/51 27/103/57
f 11/85/45 10/79/39 5/78/38
f 38/80/40 6/104/37 5/78/38
f 38/80/40 10/79/39 7/91/50
f 8/82/42 28/105/58 39/83/43
f 2/89/49 1/93/52 6/77/37
f 24/100/56 2/106/49 38/98/40
f 27/103/57 26/107/55 38/101/40
f 13/86/46 18/108/59 41/87/47
f 19/109/60 22/110/61 36/111/62
f 36/111/62 43/112/63 19/109/60
f 36/113/62 30/114/64 43/115/63
f 36/116/62 37/117/65 30/118/64
f 37/117/65 14/119/66 30/118/64
f 30/114/64 32/120/67 43/115/63
f 22/121/61 23/122/68 36/123/62
f 21/124/69 23/122/68 22/121/61
