# Blender v2.71 (sub 0) OBJ File: ''
# www.blender.org
mtllib torso.mtl
o node_shape0.008
v 0.001968 -0.039719 -0.089273
v 0.042462 0.043639 -0.075853
v -0.050281 0.090970 -0.039394
v -0.087059 -0.071423 -0.018683
v -0.114781 0.030468 -0.007562
v 0.014881 -0.116395 -0.002653
v 0.047868 0.107606 0.000855
v 0.121248 -0.016468 -0.006153
v -0.109782 -0.021715 0.074183
v -0.063581 0.096686 0.072707
v 0.108273 0.050947 0.077402
v 0.063582 -0.096686 0.072707
v -0.140898 -0.078303 0.202274
v -0.034254 -0.109643 0.067434
v 0.000422 -0.110723 0.416924
v -0.216199 -0.019743 0.416649
v 0.002020 -0.063171 0.451369
v -0.218741 -0.086480 0.283822
v 0.214181 -0.072961 0.264575
v 0.216525 -0.059183 0.397477
v 0.218487 0.086131 0.281439
v 0.033052 0.108812 0.069697
v 0.216013 0.014758 0.419943
v 0.001864 0.110956 0.417884
v -0.006179 0.062335 0.452419
v -0.215554 0.073063 0.267474
v -0.216494 0.060320 0.393608
vn -0.233200 0.264000 -0.935900
vn -0.602400 -0.077200 -0.794400
vn -0.523100 0.113200 -0.844700
vn -0.230500 -0.745400 -0.625500
vn 0.134300 0.756400 -0.640200
vn 0.758000 0.473600 -0.448400
vn 0.585000 -0.156100 -0.795900
vn 0.535500 -0.591200 -0.603100
vn -0.374300 -0.910700 -0.174700
vn -0.741700 -0.649800 0.166400
vn -0.962700 -0.250900 -0.101300
vn -0.893300 0.352100 0.279400
vn -0.710000 0.694000 -0.119600
vn -0.147300 0.987900 -0.049000
vn -0.126300 0.989800 -0.065500
vn 0.820200 0.500700 -0.276600
vn 0.598300 0.793000 0.114900
vn 0.888100 -0.280400 0.364200
vn 0.660300 -0.711300 -0.240700
vn 0.119800 -0.976700 0.178100
vn -0.883000 -0.030300 -0.468300
vn -0.703100 -0.571400 -0.423200
vn -0.386400 -0.805300 -0.449600
vn -0.696500 0.342600 -0.630500
vn -0.238100 -0.564500 0.790400
vn -0.114900 -0.993300 0.008300
vn -0.350800 -0.834000 0.425800
vn -0.999700 0.020900 0.008700
vn 0.130200 -0.991300 0.020400
vn 0.780700 -0.217700 -0.585800
vn 0.160800 -0.986800 -0.019000
vn 0.239100 -0.966200 0.096000
vn 0.208900 -0.578300 0.788600
vn 0.238800 -0.280800 0.929600
vn 0.999700 0.012700 -0.019000
vn 0.999600 -0.027500 0.003700
vn 0.877600 0.027000 -0.478700
vn 0.577400 0.693200 -0.431400
vn 0.366200 0.824500 0.431400
vn 0.116500 0.993200 0.004300
vn 0.233500 0.537100 0.810600
vn -0.123700 0.992000 0.023800
vn -0.770600 0.293600 -0.565700
vn -0.158100 0.987200 -0.020200
vn -0.235000 0.967300 0.096000
vn -0.222900 0.588700 0.777000
vn -0.262000 0.266000 0.927700
vn -0.999900 -0.006000 -0.008100
vn 0.144900 0.001200 0.989400
vn -0.160700 -0.018800 0.986800
usemtl None.003
s off
f 3//1 2//1 1//1
f 1//2 4//2 5//2
f 1//3 5//3 3//3
f 1//4 6//4 4//4
f 2//5 3//5 7//5
f 2//6 7//6 8//6
f 8//7 1//7 2//7
f 1//8 8//8 6//8
f 14//9 4//9 6//9
f 4//10 14//10 9//10
f 9//11 5//11 4//11
f 5//12 9//12 10//12
f 10//13 3//13 5//13
f 22//14 7//14 3//14
f 3//15 10//15 22//15
f 11//16 8//16 7//16
f 7//17 22//17 11//17
f 8//18 11//18 12//18
f 12//19 6//19 8//19
f 6//20 12//20 14//20
f 26//21 9//21 18//21
f 14//22 13//22 9//22
f 18//23 9//23 13//23
f 13//24 14//24 18//24
f 17//25 16//25 15//25
f 18//26 14//26 15//26
f 15//27 16//27 18//27
f 18//28 16//28 26//28
f 12//29 19//29 14//29
f 12//30 11//30 19//30
f 15//31 14//31 19//31
f 20//32 15//32 19//32
f 17//33 15//33 20//33
f 23//34 17//34 20//34
f 23//35 20//35 19//35
f 19//36 21//36 23//36
f 19//37 11//37 21//37
f 21//38 11//38 22//38
f 24//39 23//39 21//39
f 21//40 22//40 24//40
f 25//41 23//41 24//41
f 10//42 26//42 22//42
f 10//43 9//43 26//43
f 24//44 22//44 26//44
f 27//45 24//45 26//45
f 25//46 24//46 27//46
f 16//47 25//47 27//47
f 16//48 27//48 26//48
f 17//49 23//49 25//49
f 16//50 17//50 25//50
