# Blender v2.71 (sub 0) OBJ File: ''
# www.blender.org
mtllib upperRightArm.mtl
o node_shape0.011
v 0.012970 0.013515 0.012946
v 0.023603 -0.042613 -0.009005
v 0.059846 0.022764 -0.051094
v 0.045146 -0.041067 -0.056909
v 0.039545 -0.007413 -0.088305
v 0.054313 -0.032647 -0.178477
v 0.064761 0.009375 -0.188031
v 0.037094 -0.025376 -0.337094
v 0.004573 -0.026273 -0.387499
v 0.010462 -0.039510 -0.085847
v -0.015921 -0.032773 0.020385
v 0.006782 -0.061678 -0.199034
v -0.010262 -0.057471 -0.041589
v -0.035585 0.001998 0.032883
v -0.048191 -0.035163 -0.023341
v -0.033875 -0.014573 -0.078167
v -0.041279 -0.032142 -0.183176
v -0.022534 -0.007023 -0.393317
v -0.059326 0.011885 -0.019933
v -0.048431 0.023120 -0.233694
v -0.020338 0.033137 -0.081144
v -0.032816 0.052442 -0.016719
v 0.004025 0.033875 -0.373893
v 0.004433 0.059594 -0.194388
v 0.015771 0.060102 -0.032415
v 0.029843 0.027390 -0.087251
v 0.049082 0.041633 -0.188864
v 0.043612 0.014085 -0.332513
vn 0.809800 -0.074200 0.582000
vn 0.888200 -0.240200 0.391700
vn 0.917400 -0.178900 -0.355400
vn 0.958900 -0.190600 0.210400
vn 0.957400 -0.264400 -0.116100
vn 0.978400 -0.144400 -0.147900
vn 0.838500 -0.075800 -0.539600
vn 0.529000 -0.530100 -0.662600
vn 0.719400 -0.629300 0.293900
vn 0.548500 -0.212400 0.808700
vn 0.465000 -0.871500 0.155600
vn 0.549200 -0.830000 -0.097700
vn 0.309700 -0.944600 0.108800
vn 0.197900 -0.937100 -0.287600
vn 0.303800 -0.935700 -0.179300
vn 0.047100 -0.926400 0.373500
vn 0.398500 -0.102200 0.911500
vn -0.363400 -0.876400 0.316100
vn -0.601200 -0.683700 -0.413700
vn -0.486300 -0.706300 -0.514400
vn -0.469700 -0.863300 0.184400
vn -0.458800 -0.870500 0.178000
vn -0.552700 -0.820300 -0.147300
vn -0.551400 -0.821100 -0.147800
vn -0.654700 -0.554800 0.513500
vn -0.901500 -0.239500 0.360400
vn -0.928100 -0.196700 -0.316200
vn -0.995300 -0.056100 0.079600
vn -0.966800 -0.229000 -0.113600
vn -0.855900 0.213500 -0.471000
vn -0.947600 0.278600 0.156200
vn -0.769600 0.468700 0.433700
vn -0.783500 0.536900 -0.312600
vn -0.759200 0.605900 -0.237600
vn 0.345500 0.210000 -0.914600
vn -0.595300 0.801400 0.057000
vn -0.500800 0.857000 -0.121600
vn 0.130200 0.687600 0.714300
vn 0.120500 0.692600 0.711100
vn -0.248000 0.913700 -0.321800
vn 0.037300 0.862400 -0.504900
vn 0.140500 0.956900 0.254300
vn 0.383900 0.913900 -0.131800
vn 0.661500 0.502400 0.556800
vn 0.523000 0.784300 -0.333700
vn 0.345300 0.918200 0.194100
vn 0.580200 0.795500 -0.174700
vn 0.749600 0.152500 -0.644100
vn 0.894400 0.431700 -0.116800
vn 0.763100 0.231000 -0.603600
vn 0.927800 0.250200 0.276700
vn 0.873900 0.430600 0.225800
usemtl None.006
s off
f 2//1 3//1 1//1
f 2//2 4//2 3//2
f 4//3 5//3 3//3
f 6//4 7//4 5//4
f 6//5 8//5 7//5
f 8//6 28//6 7//6
f 8//7 9//7 28//7
f 10//8 5//8 4//8
f 10//9 6//9 5//9
f 11//10 2//10 1//10
f 12//11 6//11 10//11
f 12//12 8//12 6//12
f 13//13 4//13 2//13
f 13//14 10//14 4//14
f 12//15 9//15 8//15
f 11//16 13//16 2//16
f 14//17 11//17 1//17
f 15//18 13//18 11//18
f 15//19 16//19 13//19
f 16//20 10//20 13//20
f 17//21 12//21 10//21
f 16//22 17//22 10//22
f 17//23 18//23 12//23
f 18//24 9//24 12//24
f 14//25 15//25 11//25
f 19//26 15//26 14//26
f 19//27 16//27 15//27
f 16//28 20//28 17//28
f 20//29 18//29 17//29
f 21//30 16//30 19//30
f 21//31 20//31 16//31
f 22//32 19//32 14//32
f 22//33 21//33 19//33
f 20//34 23//34 18//34
f 23//35 9//35 18//35
f 21//36 24//36 20//36
f 24//37 23//37 20//37
f 1//38 25//38 14//38
f 25//39 22//39 14//39
f 25//40 21//40 22//40
f 25//41 26//41 21//41
f 26//42 24//42 21//42
f 27//43 23//43 24//43
f 1//44 3//44 25//44
f 3//45 26//45 25//45
f 27//46 24//46 26//46
f 27//47 28//47 23//47
f 28//48 9//48 23//48
f 7//49 28//49 27//49
f 3//50 5//50 26//50
f 5//51 7//51 26//51
f 7//52 27//52 26//52
