# Blender v2.62 (sub 0) OBJ File: ''
# www.blender.org
mtllib cenglobed102.mtl
o Mesh.006_Mesh_cenglobed.000
v 0.966542 -0.499025 2.070156
v -0.966542 -0.499023 -2.070156
v 0.966542 -0.499023 -2.070156
v -0.966542 -0.499025 2.070156
v 0.966542 0.499024 2.070156
v -0.966542 -0.499025 2.070156
v 0.966542 -0.499025 2.070156
v -0.966542 0.499024 2.070156
v 0.966542 0.499025 -2.070156
v -0.966542 0.499024 2.070156
v 0.966542 0.499024 2.070156
v -0.966542 0.499025 -2.070156
v 0.966542 -0.499023 -2.070156
v -0.966542 0.499025 -2.070156
v 0.966542 0.499025 -2.070156
v -0.966542 -0.499023 -2.070156
v 0.966542 0.499024 2.070156
v 0.966542 -0.499023 -2.070156
v 0.966542 0.499025 -2.070156
v 0.966542 -0.499025 2.070156
v -0.966542 -0.499025 2.070156
v -0.966542 0.499025 -2.070156
v -0.966542 -0.499023 -2.070156
v -0.966542 0.499024 2.070156
vt 1.000000 1.000000
vt 0.000000 0.000000
vt 1.000000 0.000000
vt 0.000000 1.000000
vn 0.000000 -0.999969 0.000000
vn 0.000000 -1.000000 0.000000
vn 0.000000 0.000000 1.000000
vn 0.000000 0.999969 0.000000
vn 0.000000 1.000000 0.000000
vn 0.000000 0.000000 -0.999969
vn 0.000000 0.000000 -1.000000
vn 1.000000 0.000000 0.000000
vn 0.999969 0.000000 0.000000
vn -1.000000 0.000000 0.000000
usemtl Default-Diffuse.000
s 1
f 1/1/1 2/2/1 3/3/2
f 2/2/1 1/1/1 4/4/2
f 5/1/3 6/2/3 7/3/3
f 8/4/3 6/2/3 5/1/3
f 9/1/4 10/2/4 11/3/5
f 12/4/5 10/2/4 9/1/4
f 13/1/6 14/2/6 15/3/7
f 16/4/7 14/2/6 13/1/6
f 17/1/8 18/2/8 19/3/8
f 20/4/9 18/2/8 17/1/8
f 21/1/10 22/2/10 23/3/10
f 24/4/10 22/2/10 21/1/10
